<svg xmlns="http://www.w3.org/2000/svg" xmlns:svg="http://www.w3.org/2000/svg" id="svg1065" width="64" height="64" version="1.1" viewBox="0 0 16.933 16.933"><metadata id="metadata1062"/><g id="layer1" transform="translate(19.410892,-30.192793)"><g id="g10065-7-1" transform="matrix(4.755698,0,0,4.8539504,-208.51503,-437.53116)"><g id="layer1-3" transform="matrix(0.54690637,0,0,0.53258408,-27.793814,70.920887)"><g id="g56480-4-8" transform="matrix(1.2402552,0,0,1.2402552,93.799465,-51.847303)"><path id="path51055-8-0" d="m 27.85561,85.133252 -2.48,0.0205 -1.28,-2.132 1.2,-2.214 2.48,-0.0205 1.28,2.132 z" style="fill:#60f;stroke-width:1.53888273"/><g id="g56465-6-0"><g id="g56428-5-6"><ellipse style="fill:#caf;stroke-width:1.53888273" id="ellipse51057-8-6" cx="26.544" cy="81.706" rx=".456" ry=".451"/><rect style="fill:#caf;stroke-width:1.53888273" id="rect51059-8-7" width=".616" height="2.788" x="26.256" y="81.961" rx="3.852" ry="3.876"/></g><g id="g56424-8-7"><path style="fill:none;stroke:#caf;stroke-width:.15388827" id="path51067-7-2" d="m 27.491849,81.155227 c 0.312,0.4756 0.168,0.8036 0,1.148"/><path style="fill:none;stroke:#caf;stroke-width:.15388827" id="path51069-5-9" d="m 27.137921,81.204384 c 0.264,0.4018 0.168,0.7626 0.032,1.066"/><path style="fill:none;stroke:#caf;stroke-width:.15388827" id="path51071-6-5" d="m 27.869101,81.361685 c 0.152,0.2296 0.112,0.5986 0.0288,0.7544"/></g><g id="g56424-2-3-3" transform="matrix(-1,0,0,1,53.152111,-0.03369308)"><path style="fill:none;stroke:#caf;stroke-width:.15388827" id="path51067-2-7-9" d="m 27.491849,81.155227 c 0.312,0.4756 0.168,0.8036 0,1.148"/><path style="fill:none;stroke:#caf;stroke-width:.15388827" id="path51069-8-3-3" d="m 27.137921,81.204384 c 0.264,0.4018 0.168,0.7626 0.032,1.066"/><path style="fill:none;stroke:#caf;stroke-width:.15388827" id="path51071-1-2-2" d="m 27.869101,81.361685 c 0.152,0.2296 0.112,0.5986 0.0288,0.7544"/></g></g></g></g></g></g></svg>