<svg xmlns="http://www.w3.org/2000/svg" xmlns:svg="http://www.w3.org/2000/svg" id="svg6417" width="68.537" height="30.063" version="1.1" viewBox="0 0 18.134 7.954"><defs id="defs6411"><marker id="Arrow1Lend-4-8" orient="auto" refX="0" refY="0" style="overflow:visible"><path id="path2288-58-3" d="M 0,0 5,-5 -12.5,0 5,5 Z" transform="matrix(-0.8,0,0,-0.8,-10,0)" style="fill:#fff;fill-opacity:1;fill-rule:evenodd;stroke:#fff;stroke-width:1.00000003pt;stroke-opacity:1"/></marker><marker style="overflow:visible" id="Arrow1Lend-4-8-1" orient="auto" refX="0" refY="0"><path style="fill:#fff;fill-opacity:1;fill-rule:evenodd;stroke:#fff;stroke-width:1.00000003pt;stroke-opacity:1" id="path2288-58-3-9" d="M 0,0 5,-5 -12.5,0 5,5 Z" transform="matrix(-0.8,0,0,-0.8,-10,0)"/></marker></defs><metadata id="metadata6414"/><g id="layer1" transform="translate(-6.4831613,-26.814903)"><g id="layer1-25" transform="matrix(0.88151848,0,0,0.88151848,4.7704588,25.617741)"><g id="g2985-9-6" transform="matrix(0.09422204,0,0,0.09422204,-183.35142,17.588358)"><rect style="opacity:1;fill:#131313;fill-opacity:1;stroke:none;stroke-width:2.30110049;stroke-linecap:butt;stroke-miterlimit:4;stroke-dasharray:none;stroke-opacity:1" id="rect5480-6-1" width="214.399" height="95.765" x="1968.594" y="-172.256"/><rect style="opacity:1;fill:#fff;fill-opacity:1;stroke:none;stroke-width:3.18183494;stroke-linecap:butt;stroke-miterlimit:4;stroke-dasharray:none;stroke-opacity:1" id="rect5482-6-3" width="60.677" height="57.714" x="2022.411" y="-152.997"/><rect style="opacity:1;fill:#b3b1b0;fill-opacity:1;stroke:none;stroke-width:.55817729;stroke-linecap:butt;stroke-miterlimit:4;stroke-dasharray:none;stroke-opacity:1" id="rect5482-0-9-1" width="13.427" height="8.026" x="2027.851" y="-95.746"/><rect style="opacity:1;fill:#b3b1b0;fill-opacity:1;stroke:none;stroke-width:.55817729;stroke-linecap:butt;stroke-miterlimit:4;stroke-dasharray:none;stroke-opacity:1" id="rect5482-0-8-0-3" width="13.427" height="8.026" x="2065.726" y="-95.464"/><rect style="opacity:1;fill:#b3b1b0;fill-opacity:1;stroke:none;stroke-width:.55817729;stroke-linecap:butt;stroke-miterlimit:4;stroke-dasharray:none;stroke-opacity:1" id="rect5482-0-0-9-1" width="13.427" height="8.026" x="2026.914" y="-160.902"/><rect style="opacity:1;fill:#b3b1b0;fill-opacity:1;stroke:none;stroke-width:.55817729;stroke-linecap:butt;stroke-miterlimit:4;stroke-dasharray:none;stroke-opacity:1" id="rect5482-0-2-7-4" width="13.427" height="8.026" x="2064.976" y="-161.277"/><rect style="opacity:1;fill:#b3b1b0;fill-opacity:1;stroke:none;stroke-width:.80702323;stroke-linecap:butt;stroke-miterlimit:4;stroke-dasharray:none;stroke-opacity:1" id="rect5482-0-7-7-9" width="20.587" height="10.943" x="2100.29" y="-144.322"/><rect style="opacity:1;fill:#b3b1b0;fill-opacity:1;stroke:none;stroke-width:.80702317;stroke-linecap:butt;stroke-miterlimit:4;stroke-dasharray:none;stroke-opacity:1" id="rect5482-0-7-2-0-0" width="20.587" height="10.943" x="2100.688" y="-114.491"/><rect style="opacity:1;fill:#5d5650;fill-opacity:1;stroke:none;stroke-width:1.05829096;stroke-linecap:butt;stroke-miterlimit:4;stroke-dasharray:none;stroke-opacity:1" id="rect5482-0-7-2-3-1-4" width="20.587" height="18.818" x="2100.209" y="-133.298"/><ellipse style="opacity:1;fill:#b9b9cb;fill-opacity:1;stroke:#000;stroke-width:4.25197315;stroke-linecap:butt;stroke-miterlimit:4;stroke-dasharray:none;stroke-opacity:0" id="path2177-7-27" cx="2052.91" cy="-124.93" rx="19.092" ry="20.153"/><text style="font-style:normal;font-weight:400;font-size:14.00001526px;line-height:1.25;font-family:sans-serif;letter-spacing:0;word-spacing:0;fill:#fff;fill-opacity:1;stroke:none;stroke-width:.75000077" id="text2181-3-7" x="1983.105" y="-143.735" xml:space="preserve"><tspan id="tspan2179-5-9" x="1983.105" y="-143.735" style="font-size:14.00001526px;fill:#fff;stroke-width:.75000077">GND</tspan></text><text style="font-style:normal;font-weight:400;font-size:14.00001431px;line-height:1.25;font-family:sans-serif;letter-spacing:0;word-spacing:0;fill:#fff;fill-opacity:1;stroke:none;stroke-width:.75000077" id="text2181-4-7-2" x="1983.288" y="-114.778" xml:space="preserve"><tspan id="tspan2179-9-8-3" x="1983.288" y="-114.778" style="font-size:14.00001431px;fill:#fff;stroke-width:.75000077">DI</tspan></text><text style="font-style:normal;font-weight:400;font-size:14.00001431px;line-height:1.25;font-family:sans-serif;letter-spacing:0;word-spacing:0;fill:#fff;fill-opacity:1;stroke:none;stroke-width:.75000077" id="text2181-7-1-9" x="1983.32" y="-88.793" xml:space="preserve"><tspan id="tspan2179-8-5-3" x="1983.32" y="-88.793" style="font-size:14.00001431px;fill:#fff;stroke-width:.75000077">5V</tspan></text><path style="opacity:1;fill:#ffb888;fill-opacity:1;stroke:#000;stroke-width:3.77879858;stroke-linecap:butt;stroke-miterlimit:4;stroke-dasharray:none;stroke-opacity:0" id="path2209-88-0" d="m -1968.552,158.69037 a 10.80938,8.8623381 0 0 1 -9.4072,-4.40197 10.80938,8.8623381 0 0 1 -0.028,-8.8805 10.80938,8.8623381 0 0 1 9.3792,-4.44203 l -0.01,8.86233 z" transform="scale(-1)"/><path style="opacity:1;fill:#ffb888;fill-opacity:1;stroke:#000;stroke-width:3.77879834;stroke-linecap:butt;stroke-miterlimit:4;stroke-dasharray:none;stroke-opacity:0" id="path2209-8-92-60" d="m -1968.4745,128.69034 a 10.80938,8.8623381 0 0 1 -9.4072,-4.40197 10.80938,8.8623381 0 0 1 -0.028,-8.8805 10.80938,8.8623381 0 0 1 9.3792,-4.44203 l -0.01,8.86233 z" transform="scale(-1)"/><path style="opacity:1;fill:#ffb888;fill-opacity:1;stroke:#000;stroke-width:3.77879834;stroke-linecap:butt;stroke-miterlimit:4;stroke-dasharray:none;stroke-opacity:0" id="path2209-4-5-9" d="m -1968.4745,102.44031 a 10.80938,8.8623381 0 0 1 -9.4072,-4.401968 10.80938,8.8623381 0 0 1 -0.028,-8.8805 10.80938,8.8623381 0 0 1 9.3792,-4.442036 l -0.01,8.862334 z" transform="scale(-1)"/><text style="font-style:normal;font-weight:400;font-size:14.00001431px;line-height:1.25;font-family:sans-serif;letter-spacing:0;word-spacing:0;fill:#fff;fill-opacity:1;stroke:none;stroke-width:.75000077" id="text2181-2-1-4" x="2136.605" y="-144.906" xml:space="preserve"><tspan id="tspan2179-3-8-8" x="2136.605" y="-144.906" style="font-size:14.00001431px;fill:#fff;stroke-width:.75000077">GND</tspan></text><text style="font-style:normal;font-weight:400;font-size:14.00001431px;line-height:1.25;font-family:sans-serif;letter-spacing:0;word-spacing:0;fill:#fff;fill-opacity:1;stroke:none;stroke-width:.75000077" id="text2181-4-6-4-9" x="2146.334" y="-116.744" xml:space="preserve"><tspan id="tspan2179-9-2-8-8" x="2146.334" y="-116.744" style="font-size:14.00001431px;fill:#fff;stroke-width:.75000077">DO</tspan></text><text style="font-style:normal;font-weight:400;font-size:14.00001431px;line-height:1.25;font-family:sans-serif;letter-spacing:0;word-spacing:0;fill:#fff;fill-opacity:1;stroke:none;stroke-width:.75000077" id="text2181-7-2-1-26" x="2149.549" y="-89.698" xml:space="preserve"><tspan id="tspan2179-8-3-7-9" x="2149.549" y="-89.698" style="font-size:14.00001431px;fill:#fff;stroke-width:.75000077">5V</tspan></text><path style="opacity:1;fill:#ffb888;fill-opacity:1;stroke:#000;stroke-width:3.77879834;stroke-linecap:butt;stroke-miterlimit:4;stroke-dasharray:none;stroke-opacity:0" id="path2209-2-9-65" d="m 2182.9152,158.69037 a 10.80938,8.8623381 0 0 1 -9.4072,-4.40197 10.80938,8.8623381 0 0 1 -0.028,-8.8805 10.80938,8.8623381 0 0 1 9.3792,-4.44203 l -0.01,8.86233 z" transform="scale(1,-1)"/><path style="opacity:1;fill:#ffb888;fill-opacity:1;stroke:#000;stroke-width:3.77879834;stroke-linecap:butt;stroke-miterlimit:4;stroke-dasharray:none;stroke-opacity:0" id="path2209-8-9-7-4" d="m 2182.9926,128.69034 a 10.80938,8.8623381 0 0 1 -9.4072,-4.40197 10.80938,8.8623381 0 0 1 -0.028,-8.8805 10.80938,8.8623381 0 0 1 9.3792,-4.44203 l -0.01,8.86233 z" transform="scale(1,-1)"/><path style="opacity:1;fill:#ffb888;fill-opacity:1;stroke:#000;stroke-width:3.77879834;stroke-linecap:butt;stroke-miterlimit:4;stroke-dasharray:none;stroke-opacity:0" id="path2209-4-9-9-7" d="m 2182.9926,102.44031 a 10.80938,8.8623381 0 0 1 -9.4072,-4.401968 10.80938,8.8623381 0 0 1 -0.028,-8.8805 10.80938,8.8623381 0 0 1 9.3792,-4.442036 l -0.01,8.862334 z" transform="scale(1,-1)"/><path style="fill:#fff;stroke:#fff;stroke-width:.75000077;stroke-linecap:butt;stroke-linejoin:miter;stroke-miterlimit:4;stroke-dasharray:none;stroke-opacity:1;marker-end:url(#Arrow1Lend-4-8-1)" id="path2283-3-5" d="m 1988.2521,-163.07649 21.9375,-0.0937"/></g></g></g></svg>