<svg xmlns="http://www.w3.org/2000/svg" xmlns:svg="http://www.w3.org/2000/svg" id="svg5478" width="202.422" height="187.315" version="1.1" viewBox="0 0 53.558 49.561"><metadata id="metadata5475"/><g id="layer1" transform="translate(-46.66917,-52.043179)"><g id="layer1-11" transform="matrix(0.31291628,0,0,0.31291628,40.7177,50.124646)"><g id="g14140" transform="matrix(5.2630371,0,0,5.2630371,-840.98057,-141.13445)" style="display:inline;opacity:1"><rect style="display:inline;opacity:1;fill:#f1f1f3;fill-opacity:1;stroke:none;stroke-width:.13341844;stroke-miterlimit:4;stroke-dasharray:none;stroke-opacity:1" id="rect13527" width="24.936" height="16.855" x="170.539" y="41.199" rx="0" ry="0"/><path style="display:inline;opacity:1;fill:#f1f1f3;fill-opacity:1;stroke:none;stroke-width:.10457836;stroke-linecap:butt;stroke-linejoin:miter;stroke-miterlimit:4;stroke-dasharray:none;stroke-opacity:1" id="path13544" d="m 195.50492,42.678658 0.41923,-0.688748 -0.0299,-0.80853 h -0.41924 z"/><path style="display:inline;opacity:1;fill:#f1f1f3;fill-opacity:1;stroke:none;stroke-width:.16769509px;stroke-linecap:butt;stroke-linejoin:miter;stroke-opacity:1" id="path13544-1" d="m 195.48994,56.577249 0.41924,0.688747 -0.0299,0.80853 h -0.41924 z"/><rect style="display:inline;opacity:1;fill:#dcb500;fill-opacity:1;stroke:none;stroke-width:.10182238;stroke-miterlimit:4;stroke-dasharray:none;stroke-opacity:1" id="rect13561" width="2.713" height="16.985" x="167.825" y="40.958"/><rect style="display:inline;opacity:1;fill:#dcb500;fill-opacity:1;stroke:none;stroke-width:.03983601;stroke-miterlimit:4;stroke-dasharray:none;stroke-opacity:1" id="rect13561-9" width=".446" height="15.819" x="167.371" y="41.753"/><path style="display:inline;opacity:1;fill:none;stroke:#000;stroke-width:.48486328;stroke-linecap:butt;stroke-linejoin:miter;stroke-miterlimit:4;stroke-dasharray:none;stroke-opacity:1" id="path13602" d="m 167.35754,49.228524 c -0.32468,-0.04688 -0.64937,-0.0736 -0.97404,-0.338796 -0.80873,-1.57687 -1.77212,-2.728397 -2.15982,-5.463072 l -0.1694,-3.726747 c -0.001,-0.94688 0.30171,-1.589895 0.50819,-2.329218 0.8629,-1.554198 1.75912,-3.081743 3.17621,-4.192593 2.75271,-1.341064 4.72514,-3.202318 8.25813,-4.023192 2.28687,-0.249881 4.57374,-0.662199 6.86061,-0.381145 1.20131,0.247029 2.50454,0.324221 3.38795,1.101084 2.27096,1.391736 3.08355,2.991811 4.61608,4.489037"/><path style="display:inline;opacity:1;fill:none;stroke:#de6550;stroke-width:.49121723;stroke-linecap:butt;stroke-linejoin:miter;stroke-miterlimit:4;stroke-dasharray:none;stroke-opacity:1" id="path13602-9" d="m 167.29502,49.634276 c -1.18033,-0.131567 -1.04783,-0.370026 -1.38117,-0.635145 -0.78794,-1.491725 -1.77703,-2.897022 -2.17507,-5.630919 l -0.0892,-4.149183 c 0.0836,-0.946613 0.47916,-1.547095 0.69114,-2.286208 0.92827,-1.638455 1.63664,-2.911471 3.09153,-4.022005 2.74144,-1.51008 4.96581,-3.266437 8.59304,-4.08708 2.28797,-0.519318 4.55114,-0.759112 6.899,-0.478138 1.26331,0.157122 2.51145,0.38402 3.56816,1.100771 2.33153,1.391341 3.13585,3.020908 4.67931,4.607546"/><rect style="display:inline;opacity:1;fill:#e4e6e3;fill-opacity:1;stroke:none;stroke-width:.48486328;stroke-miterlimit:4;stroke-dasharray:none;stroke-opacity:1" id="rect13637" width="2.216" height="3.354" x="110.775" y="158.243" transform="rotate(-44.535214)"/><text style="font-style:normal;font-weight:400;font-size:1.68861187px;line-height:1.25;font-family:sans-serif;letter-spacing:0;word-spacing:0;display:inline;opacity:1;fill:#000;fill-opacity:1;stroke:none;stroke-width:.10553824" id="text13645" x="176.186" y="49.499" xml:space="preserve"><tspan id="tspan13643" x="176.186" y="49.499" style="stroke-width:.10553824">- PKCELL LPS03035</tspan></text><text style="font-style:normal;font-weight:400;font-size:1.6334672px;line-height:1.25;font-family:sans-serif;letter-spacing:0;word-spacing:0;display:inline;opacity:1;fill:#000;fill-opacity:1;stroke:none;stroke-width:.1020917" id="text13649" x="175.762" y="51.334" xml:space="preserve"><tspan id="tspan13647" x="175.762" y="51.334" style="stroke-width:.1020917">+ 3.7 500mAh</tspan></text></g></g></g></svg>