<svg xmlns="http://www.w3.org/2000/svg" xmlns:svg="http://www.w3.org/2000/svg" id="svg8777" width="119.039" height="75.236" version="1.1" viewBox="0 0 31.496 19.906"><metadata id="metadata8774"/><g style="opacity:1" id="layer1" transform="translate(-37.16877,-19.439735)"><g id="layer1-89" transform="matrix(0.16280165,0,0,0.16280165,35.953548,18.599543)" style="opacity:1"><g id="g13444" transform="matrix(3.1353807,0,0,3.1353807,-20.825082,165.34895)" style="display:inline;opacity:1;stroke:none"><rect id="rect13223-6" width="1.872" height="2.871" x="20.752" y="-40.249" ry="0" style="display:inline;opacity:1;fill:#f4f2e5;fill-opacity:1;stroke:none;stroke-width:.12949729;stroke-miterlimit:4;stroke-dasharray:none;stroke-opacity:1"/><rect id="rect13165" width="61.197" height="38.998" x="9.528" y="-51.09" ry="4.26" style="opacity:1;fill:#034aa4;fill-opacity:1;stroke:none;stroke-width:.16561352;stroke-miterlimit:4;stroke-dasharray:none;stroke-opacity:1"/><rect id="rect13167" width="9.729" height="13.104" x="9.023" y="-37.951" ry="0" style="opacity:1;fill:#f3f3f1;fill-opacity:1;stroke:none;stroke-width:.15746225;stroke-miterlimit:4;stroke-dasharray:none;stroke-opacity:1"/><rect id="rect13167-0" width="6.863" height="6.741" x="25.933" y="-31.713" ry="0" style="display:inline;opacity:1;fill:#39383e;fill-opacity:1;stroke:none;stroke-width:.0948502;stroke-miterlimit:4;stroke-dasharray:none;stroke-opacity:1"/><rect id="rect13167-0-8" width="6.465" height="6.744" x="47.311" y="-33.038" ry="0" style="display:inline;opacity:1;fill:#302f34;fill-opacity:1;stroke:none;stroke-width:.09207675;stroke-miterlimit:4;stroke-dasharray:none;stroke-opacity:1"/><path id="path13205" d="m 46.970955,-42.207777 c 0.167042,-0.133636 1.344107,-1.45244 1.344107,-1.45244 l 4.944485,-3e-6 1.436574,1.57021 -0.03341,5.211754 -1.637025,1.403165 -4.710626,3e-6 -1.403165,-1.469982 z" style="fill:#5c5c64;fill-opacity:1;stroke:none;stroke-width:.26458332px;stroke-linecap:butt;stroke-linejoin:miter;stroke-opacity:1"/><rect id="rect13223-6-8" width="1.871" height="2.94" x="32.646" y="-40.223" ry="0" style="display:inline;opacity:1;fill:#f4f2e5;fill-opacity:1;stroke:none;stroke-width:.131;stroke-miterlimit:4;stroke-dasharray:none;stroke-opacity:1"/><ellipse id="path13255" cx="13.99" cy="-46.894" rx="2.559" ry="2.481" style="opacity:1;fill:#fff;fill-opacity:1;stroke:none;stroke-width:.83338791;stroke-miterlimit:4;stroke-dasharray:none;stroke-opacity:1"/><ellipse id="path13255-3" cx="67.091" cy="-43.368" rx="2.559" ry="2.481" style="display:inline;opacity:1;fill:#f9f9f9;fill-opacity:1;stroke:none;stroke-width:.83338797;stroke-miterlimit:4;stroke-dasharray:none;stroke-opacity:1"/><ellipse id="path13255-8" cx="66.902" cy="-21.256" rx="2.559" ry="2.481" style="display:inline;opacity:1;fill:#fff;fill-opacity:1;stroke:none;stroke-width:.83338797;stroke-miterlimit:4;stroke-dasharray:none;stroke-opacity:1"/><ellipse id="path13255-9" cx="14.269" cy="-16.909" rx="2.559" ry="2.481" style="display:inline;opacity:1;fill:#fff;fill-opacity:1;stroke:none;stroke-width:.83338797;stroke-miterlimit:4;stroke-dasharray:none;stroke-opacity:1"/><rect id="rect13284" width="1.975" height="1.19" x="17.869" y="-50.519" ry="0" style="opacity:1;fill:#e6e8e5;fill-opacity:1;stroke:none;stroke-width:.18902655;stroke-miterlimit:4;stroke-dasharray:none;stroke-opacity:1"/><rect id="rect13284-0" width="1.975" height="1.19" x="17.944" y="-45.959" ry="0" style="display:inline;opacity:1;fill:#e6e8e5;fill-opacity:1;stroke:none;stroke-width:.18902655;stroke-miterlimit:4;stroke-dasharray:none;stroke-opacity:1"/><rect id="rect13284-5" width="1.932" height="3.051" x="17.933" y="-49.145" ry="0" style="display:inline;opacity:1;fill:#d9cba4;fill-opacity:1;stroke:none;stroke-width:.29929453;stroke-miterlimit:4;stroke-dasharray:none;stroke-opacity:1"/><rect id="rect13284-1" width="1.975" height="1.19" x="-15.705" y="-22.993" ry="0" transform="rotate(90.52629)" style="display:inline;opacity:1;fill:#e6e8e5;fill-opacity:1;stroke:none;stroke-width:.18902655;stroke-miterlimit:4;stroke-dasharray:none;stroke-opacity:1"/><rect id="rect13284-0-8" width="1.975" height="1.19" x="-15.63" y="-18.433" ry="0" transform="rotate(90.52629)" style="display:inline;opacity:1;fill:#e6e8e5;fill-opacity:1;stroke:none;stroke-width:.18902655;stroke-miterlimit:4;stroke-dasharray:none;stroke-opacity:1"/><rect id="rect13284-5-9" width="1.932" height="3.051" x="-15.642" y="-21.618" ry="0" transform="rotate(90.52629)" style="display:inline;opacity:1;fill:#d9cba4;fill-opacity:1;stroke:none;stroke-width:.29929453;stroke-miterlimit:4;stroke-dasharray:none;stroke-opacity:1"/><rect id="rect13284-1-2" width="1.975" height="1.19" x="-15.799" y="-29.106" ry="0" transform="rotate(90.52629)" style="display:inline;opacity:1;fill:#e6e8e5;fill-opacity:1;stroke:none;stroke-width:.18902655;stroke-miterlimit:4;stroke-dasharray:none;stroke-opacity:1"/><rect id="rect13284-0-8-2" width="1.975" height="1.19" x="-15.723" y="-24.546" ry="0" transform="rotate(90.52629)" style="display:inline;opacity:1;fill:#e6e8e5;fill-opacity:1;stroke:none;stroke-width:.18902655;stroke-miterlimit:4;stroke-dasharray:none;stroke-opacity:1"/><rect id="rect13284-5-9-0" width="1.932" height="3.051" x="-15.735" y="-27.731" ry="0" transform="rotate(90.52629)" style="display:inline;opacity:1;fill:#d9cba4;fill-opacity:1;stroke:none;stroke-width:.29929453;stroke-miterlimit:4;stroke-dasharray:none;stroke-opacity:1"/><rect id="rect13284-1-1" width="1.975" height="1.19" x="-16.706" y="-69.211" ry="0" transform="rotate(90.52629)" style="display:inline;opacity:1;fill:#e6e8e5;fill-opacity:1;stroke:none;stroke-width:.18902655;stroke-miterlimit:4;stroke-dasharray:none;stroke-opacity:1"/><rect id="rect13284-0-8-4" width="1.975" height="1.19" x="-16.631" y="-64.65" ry="0" transform="rotate(90.52629)" style="display:inline;opacity:1;fill:#e6e8e5;fill-opacity:1;stroke:none;stroke-width:.18902655;stroke-miterlimit:4;stroke-dasharray:none;stroke-opacity:1"/><rect id="rect13284-5-9-8" width="1.932" height="3.051" x="-16.642" y="-67.836" ry="0" transform="rotate(90.52629)" style="display:inline;opacity:1;fill:#d9cba4;fill-opacity:1;stroke:none;stroke-width:.29929453;stroke-miterlimit:4;stroke-dasharray:none;stroke-opacity:1"/><text id="text13361" x="35.342" y="-48.749" xml:space="preserve" style="font-style:normal;font-weight:400;font-size:2.64317441px;line-height:1.25;font-family:sans-serif;letter-spacing:0;word-spacing:0;fill:#fff;fill-opacity:1;stroke:none;stroke-width:.1651984"><tspan style="fill:#fff;stroke:none;stroke-width:.1651984" id="tspan13359" x="35.342" y="-48.749">PowerBoost 1000C</tspan></text><text id="text13365" x="45.236" y="-45.943" xml:space="preserve" style="font-style:normal;font-weight:400;font-size:2.66301107px;line-height:1.25;font-family:sans-serif;letter-spacing:0;word-spacing:0;fill:#fff;fill-opacity:1;stroke:none;stroke-width:.16643819"><tspan style="fill:#fff;stroke:none;stroke-width:.16643819" id="tspan13363" x="45.236" y="-45.943">adafruit</tspan></text><rect id="rect13223-6-8-3" width="1.871" height="2.94" x="20.869" y="-40.42" ry="0" style="display:inline;opacity:1;fill:#f4f2e5;fill-opacity:1;stroke:none;stroke-width:.131;stroke-miterlimit:4;stroke-dasharray:none;stroke-opacity:1"/><rect id="rect13223" width="14.7" height="10.357" x="20.419" y="-50.576" ry="0" style="opacity:1;fill:#f4f2e5;fill-opacity:1;stroke:none;stroke-width:.16500001;stroke-miterlimit:4;stroke-dasharray:none;stroke-opacity:1"/><text id="text13384" x="16.41" y="-42.386" xml:space="preserve" style="font-style:normal;font-weight:400;font-size:1.67217231px;line-height:1.25;font-family:sans-serif;letter-spacing:0;word-spacing:0;fill:#fff;fill-opacity:1;stroke:none;stroke-width:.10451077"><tspan style="fill:#fff;stroke:none;stroke-width:.10451077" id="tspan13382" x="16.41" y="-42.386">LOW</tspan></text><text id="text13388" x="20.742" y="-16.077" xml:space="preserve" style="font-style:normal;font-weight:400;font-size:2.5057478px;line-height:1.25;font-family:sans-serif;letter-spacing:0;word-spacing:0;fill:#fff;fill-opacity:1;stroke:none;stroke-width:.15660924"><tspan style="fill:#fff;stroke:none;stroke-width:.15660924" id="tspan13386" x="20.742" y="-16.077">chrg</tspan></text><text id="text13392" x="63.745" y="-16.535" xml:space="preserve" style="font-style:normal;font-weight:400;font-size:2.21846724px;line-height:1.25;font-family:sans-serif;letter-spacing:0;word-spacing:0;fill:#fff;fill-opacity:1;stroke:none;stroke-width:.1386542"><tspan style="fill:#fff;stroke:none;stroke-width:.1386542" id="tspan13390" x="63.745" y="-16.535">PWR</tspan></text></g><path style="opacity:1;fill:#fff;fill-opacity:1;stroke:#bf9452;stroke-width:2.11665797;stroke-miterlimit:4;stroke-dasharray:none;stroke-dashoffset:0;stroke-opacity:1" id="path43-0-8" d="m 81.490567,119.11345 a 3.7163279,3.6806862 0 0 1 -3.694976,3.7017 3.7163279,3.6806862 0 0 1 -3.737558,-3.65953 3.7163279,3.6806862 0 0 1 3.694943,-3.70172 3.7163279,3.6806862 0 0 1 3.73759,3.65949"/><path style="opacity:1;fill:#bf9452;fill-opacity:1;stroke:#bf9452;stroke-width:1.32679546;stroke-miterlimit:4;stroke-dasharray:none;stroke-dashoffset:0;stroke-opacity:1" id="path43-0-7-8" d="m 184.03622,44.787419 a 8.2157087,4.3958669 0 0 1 -8.1685,4.42096 8.2157087,4.3958669 0 0 1 -8.26265,-4.370592 8.2157087,4.3958669 0 0 1 8.16844,-4.420998 8.2157087,4.3958669 0 0 1 8.26271,4.370554"/><path style="opacity:1;fill:#fff;fill-opacity:1;stroke:#bf9452;stroke-width:2.11665797;stroke-miterlimit:4;stroke-dasharray:none;stroke-dashoffset:0;stroke-opacity:1" id="path43-0-8-8" d="m 95.186505,119.14112 a 3.7163281,3.6806862 0 0 1 -3.694976,3.7017 3.7163281,3.6806862 0 0 1 -3.737558,-3.65952 3.7163281,3.6806862 0 0 1 3.694943,-3.70173 3.7163281,3.6806862 0 0 1 3.737591,3.65949"/><path style="opacity:1;fill:#fff;fill-opacity:1;stroke:#bf9452;stroke-width:2.11665797;stroke-miterlimit:4;stroke-dasharray:none;stroke-dashoffset:0;stroke-opacity:1" id="path43-0-8-84" d="m 108.60466,119.14113 a 3.7163281,3.6806862 0 0 1 -3.69497,3.7017 3.7163281,3.6806862 0 0 1 -3.73756,-3.65953 3.7163281,3.6806862 0 0 1 3.69494,-3.70172 3.7163281,3.6806862 0 0 1 3.73759,3.65949"/><path style="opacity:1;fill:#fff;fill-opacity:1;stroke:#bf9452;stroke-width:2.11665797;stroke-miterlimit:4;stroke-dasharray:none;stroke-dashoffset:0;stroke-opacity:1" id="path43-0-8-7" d="m 122.40078,118.95214 a 3.7163281,3.6806862 0 0 1 -3.69497,3.7017 3.7163281,3.6806862 0 0 1 -3.73756,-3.65952 3.7163281,3.6806862 0 0 1 3.69494,-3.70173 3.7163281,3.6806862 0 0 1 3.73759,3.65949"/><path style="opacity:1;fill:#fff;fill-opacity:1;stroke:#bf9452;stroke-width:2.11665797;stroke-miterlimit:4;stroke-dasharray:none;stroke-dashoffset:0;stroke-opacity:1" id="path43-0-8-86" d="m 135.62995,118.95214 a 3.7163281,3.6806862 0 0 1 -3.69498,3.7017 3.7163281,3.6806862 0 0 1 -3.73756,-3.65952 3.7163281,3.6806862 0 0 1 3.69495,-3.70173 3.7163281,3.6806862 0 0 1 3.73759,3.65949"/><path style="opacity:1;fill:#fff;fill-opacity:1;stroke:#bf9452;stroke-width:2.11665797;stroke-miterlimit:4;stroke-dasharray:none;stroke-dashoffset:0;stroke-opacity:1" id="path43-0-8-4" d="m 149.2371,119.33011 a 3.7163281,3.6806862 0 0 1 -3.69498,3.7017 3.7163281,3.6806862 0 0 1 -3.73756,-3.65953 3.7163281,3.6806862 0 0 1 3.69494,-3.70172 3.7163281,3.6806862 0 0 1 3.7376,3.65949"/><path style="opacity:1;fill:#fff;fill-opacity:1;stroke:#bf9452;stroke-width:2.11665797;stroke-miterlimit:4;stroke-dasharray:none;stroke-dashoffset:0;stroke-opacity:1" id="path43-0-8-3" d="m 162.84424,118.95214 a 3.7163281,3.6806862 0 0 1 -3.69497,3.7017 3.7163281,3.6806862 0 0 1 -3.73756,-3.65952 3.7163281,3.6806862 0 0 1 3.69494,-3.70173 3.7163281,3.6806862 0 0 1 3.73759,3.65949"/><path style="opacity:1;fill:#fff;fill-opacity:1;stroke:#bf9452;stroke-width:2.11665797;stroke-miterlimit:4;stroke-dasharray:none;stroke-dashoffset:0;stroke-opacity:1" id="path43-0-8-2" d="m 175.88442,119.14113 a 3.7163281,3.6806862 0 0 1 -3.69498,3.7017 3.7163281,3.6806862 0 0 1 -3.73756,-3.65953 3.7163281,3.6806862 0 0 1 3.69495,-3.70172 3.7163281,3.6806862 0 0 1 3.73759,3.65949"/><path style="opacity:1;fill:#fff;fill-opacity:1;stroke:#bf9452;stroke-width:2.66123104;stroke-miterlimit:4;stroke-dasharray:none;stroke-dashoffset:0;stroke-opacity:1" id="path43-0-8-24" d="m 195.07789,72.35198 a 4.6724639,4.6276522 0 0 1 -4.64562,4.654068 4.6724639,4.6276522 0 0 1 -4.69915,-4.601045 4.6724639,4.6276522 0 0 1 4.64557,-4.654108 4.6724639,4.6276522 0 0 1 4.6992,4.601004"/><path style="opacity:1;fill:#fff;fill-opacity:1;stroke:#bf9452;stroke-width:2.66123104;stroke-miterlimit:4;stroke-dasharray:none;stroke-dashoffset:0;stroke-opacity:1" id="path43-0-8-24-3" d="m 195.36137,53.367856 a 4.6724639,4.6276522 0 0 1 -4.64562,4.654068 4.6724639,4.6276522 0 0 1 -4.69916,-4.601044 4.6724639,4.6276522 0 0 1 4.64558,-4.654108 4.6724639,4.6276522 0 0 1 4.6992,4.601004"/><path style="opacity:1;fill:#fff;fill-opacity:1;stroke:#fff;stroke-width:.324;stroke-miterlimit:4;stroke-dasharray:none;stroke-dashoffset:0;stroke-opacity:1" id="path1074" d="m 178.66569,44.709895 a 2.6726952,2.5390604 0 0 1 -2.65734,2.553554 2.6726952,2.5390604 0 0 1 -2.68796,-2.524462 2.6726952,2.5390604 0 0 1 2.65732,-2.553575 2.6726952,2.5390604 0 0 1 2.68798,2.524439"/><path style="opacity:1;fill:#bf9452;fill-opacity:1;stroke:#bf9452;stroke-width:1.32679546;stroke-miterlimit:4;stroke-dasharray:none;stroke-dashoffset:0;stroke-opacity:1" id="path43-0-7-8-1" d="m 184.1635,56.959958 a 8.2157087,4.3958669 0 0 1 -8.16851,4.420959 8.2157087,4.3958669 0 0 1 -8.26264,-4.370591 8.2157087,4.3958669 0 0 1 8.16843,-4.420998 8.2157087,4.3958669 0 0 1 8.26272,4.370553"/><path style="opacity:1;fill:#fff;fill-opacity:1;stroke:#fff;stroke-width:.324;stroke-miterlimit:4;stroke-dasharray:none;stroke-dashoffset:0;stroke-opacity:1" id="path1074-7" d="m 178.79297,56.882434 a 2.6726952,2.5390604 0 0 1 -2.65734,2.553554 2.6726952,2.5390604 0 0 1 -2.68797,-2.524462 2.6726952,2.5390604 0 0 1 2.65732,-2.553576 2.6726952,2.5390604 0 0 1 2.68799,2.524439"/><path style="opacity:1;fill:#bf9452;fill-opacity:1;stroke:#bf9452;stroke-width:1.32679546;stroke-miterlimit:4;stroke-dasharray:none;stroke-dashoffset:0;stroke-opacity:1" id="path43-0-7-8-9" d="m 183.78551,68.299237 a 8.2157087,4.3958669 0 0 1 -8.16851,4.42096 8.2157087,4.3958669 0 0 1 -8.26264,-4.370592 8.2157087,4.3958669 0 0 1 8.16843,-4.420998 8.2157087,4.3958669 0 0 1 8.26271,4.370553"/><path style="opacity:1;fill:#fff;fill-opacity:1;stroke:#fff;stroke-width:.324;stroke-miterlimit:4;stroke-dasharray:none;stroke-dashoffset:0;stroke-opacity:1" id="path1074-0" d="m 178.41498,68.221717 a 2.6726952,2.5390604 0 0 1 -2.65734,2.553554 2.6726952,2.5390604 0 0 1 -2.68797,-2.524462 2.6726952,2.5390604 0 0 1 2.65732,-2.553576 2.6726952,2.5390604 0 0 1 2.68799,2.524439"/><path style="opacity:1;fill:#bf9452;fill-opacity:1;stroke:#bf9452;stroke-width:1.32679546;stroke-miterlimit:4;stroke-dasharray:none;stroke-dashoffset:0;stroke-opacity:1" id="path43-0-7-8-7" d="m 183.59651,79.638516 a 8.2157087,4.3958669 0 0 1 -8.16851,4.42096 8.2157087,4.3958669 0 0 1 -8.26264,-4.370592 8.2157087,4.3958669 0 0 1 8.16844,-4.420997 8.2157087,4.3958669 0 0 1 8.26271,4.370553"/><path style="opacity:1;fill:#fff;fill-opacity:1;stroke:#fff;stroke-width:.324;stroke-miterlimit:4;stroke-dasharray:none;stroke-dashoffset:0;stroke-opacity:1" id="path1074-8" d="m 178.22598,79.560996 a 2.6726952,2.5390604 0 0 1 -2.65734,2.553554 2.6726952,2.5390604 0 0 1 -2.68796,-2.524462 2.6726952,2.5390604 0 0 1 2.65731,-2.553576 2.6726952,2.5390604 0 0 1 2.68799,2.52444"/><text style="font-style:normal;font-weight:400;font-size:5.99585247px;line-height:1.25;font-family:sans-serif;letter-spacing:0;word-spacing:0;fill:#fff;fill-opacity:1;stroke:none;stroke-width:.37474078" id="text1112" x="71.204" y="113.384" xml:space="preserve"><tspan id="tspan1110" x="71.204" y="113.384" style="fill:#fff;stroke-width:.37474078">USB</tspan></text><text style="font-style:normal;font-weight:400;font-size:5.99585247px;line-height:1.25;font-family:sans-serif;letter-spacing:0;word-spacing:0;opacity:1;fill:#fff;fill-opacity:1;stroke:none;stroke-width:.37474078" id="text1112-6" x="86.802" y="113.323" xml:space="preserve"><tspan id="tspan1110-8" x="86.802" y="113.323" style="fill:#fff;stroke-width:.37474078">Bat</tspan></text><text style="font-style:normal;font-weight:400;font-size:5.99585247px;line-height:1.25;font-family:sans-serif;letter-spacing:0;word-spacing:0;opacity:1;fill:#fff;fill-opacity:1;stroke:none;stroke-width:.37474078" id="text1112-65" x="100.967" y="113.457" xml:space="preserve"><tspan id="tspan1110-3" x="100.967" y="113.457" style="fill:#fff;stroke-width:.37474078">Vs</tspan></text><text style="font-style:normal;font-weight:400;font-size:5.99585247px;line-height:1.25;font-family:sans-serif;letter-spacing:0;word-spacing:0;opacity:1;fill:#fff;fill-opacity:1;stroke:none;stroke-width:.37474078" id="text1112-1" x="114.264" y="113.591" xml:space="preserve"><tspan id="tspan1110-0" x="114.264" y="113.591" style="fill:#fff;stroke-width:.37474078">EN</tspan></text><text style="font-style:normal;font-weight:400;font-size:5.99585247px;line-height:1.25;font-family:sans-serif;letter-spacing:0;word-spacing:0;opacity:1;fill:#fff;fill-opacity:1;stroke:none;stroke-width:.37474078" id="text1112-18" x="125.222" y="113.591" xml:space="preserve"><tspan id="tspan1110-2" x="125.222" y="113.591" style="fill:#fff;stroke-width:.37474078">GND</tspan></text><text style="font-style:normal;font-weight:400;font-size:5.99585247px;line-height:1.25;font-family:sans-serif;letter-spacing:0;word-spacing:0;opacity:1;fill:#fff;fill-opacity:1;stroke:none;stroke-width:.37474078" id="text1112-3" x="156.426" y="113.323" xml:space="preserve"><tspan id="tspan1110-7" x="156.426" y="113.323" style="fill:#fff;stroke-width:.37474078">G</tspan></text><text style="font-style:normal;font-weight:400;font-size:5.99585247px;line-height:1.25;font-family:sans-serif;letter-spacing:0;word-spacing:0;opacity:1;fill:#fff;fill-opacity:1;stroke:none;stroke-width:.37474078" id="text1112-19" x="168.386" y="113.39" xml:space="preserve"><tspan id="tspan1110-1" x="168.386" y="113.39" style="fill:#fff;stroke-width:.37474078">5V</tspan></text><g id="g1230" transform="matrix(0.76677374,0,0,0.76677374,41.843096,7.984764)"><text id="text1182" x="-37.269" y="180.811" transform="rotate(-90)" xml:space="preserve" style="font-style:normal;font-weight:400;font-size:25.46499252px;line-height:1.25;font-family:sans-serif;letter-spacing:0;word-spacing:0;fill:#fff;fill-opacity:1;stroke:none;stroke-width:1.59156203"><tspan style="fill:#fff;stroke-width:1.59156203" id="tspan1180" x="-37.269" y="180.811">-</tspan></text><path id="path1206" d="m -26.397466,173.6483 a 6.1421127,5.5468297 0 0 1 -6.106824,5.57849 6.1421127,5.5468297 0 0 1 -6.1772,-5.51493 6.1421127,5.5468297 0 0 1 6.10677,-5.57854 6.1421127,5.5468297 0 0 1 6.177253,5.51488" transform="rotate(-90)" style="opacity:1;fill:none;fill-opacity:1;stroke:#fff;stroke-width:.36600438;stroke-miterlimit:4;stroke-dasharray:none;stroke-dashoffset:0;stroke-opacity:1"/></g><g id="g1235" transform="matrix(0.79009637,0,0,0.79009637,37.145076,19.320502)"><text id="text1204" x="168.072" y="96.326" xml:space="preserve" style="font-style:normal;font-weight:400;font-size:13.29060936px;line-height:1.25;font-family:sans-serif;letter-spacing:0;word-spacing:0;fill:#fff;fill-opacity:1;stroke:none;stroke-width:.83066308"><tspan style="fill:#fff;stroke-width:.83066308" id="tspan1202" x="168.072" y="96.326">+</tspan></text><path id="path1206-6" d="m -85.861253,173.74753 a 6.1421127,5.5468297 0 0 1 -6.106824,5.57849 6.1421127,5.5468297 0 0 1 -6.1772,-5.51494 6.1421127,5.5468297 0 0 1 6.10677,-5.57854 6.1421127,5.5468297 0 0 1 6.177253,5.51489" transform="rotate(-90)" style="opacity:1;fill:none;fill-opacity:1;stroke:#fff;stroke-width:.36600438;stroke-miterlimit:4;stroke-dasharray:none;stroke-dashoffset:0;stroke-opacity:1"/></g></g></g></svg>