<svg xmlns="http://www.w3.org/2000/svg" xmlns:svg="http://www.w3.org/2000/svg" id="svg14909" width="95.95" height="68.581" version="1.1" viewBox="0 0 25.387 18.145"><metadata id="metadata14906"/><g id="layer1" transform="translate(-10.070711,-10.317868)"><g id="layer1-77" transform="matrix(0.31983288,0,0,0.31983288,-9.4491431,8.224978)"><rect id="rect15475-2-7-8" width="11.711" height="2.757" x="-52.628" y="75.553" rx=".15" transform="matrix(0.0012809,-0.99999918,0.99981896,0.01902735,0,0)" style="opacity:1;fill:#bcb4a1;fill-opacity:1;stroke:#000;stroke-width:.87680298;stroke-miterlimit:4;stroke-dasharray:none;stroke-dashoffset:0;stroke-opacity:0"/><rect id="rect15475-2-7" width="11.728" height="2.815" x="-52.814" y="67.013" rx=".15" transform="matrix(0.00130559,-0.99999915,0.99982574,0.01866763,0,0)" style="opacity:1;fill:#bcb4a1;fill-opacity:1;stroke:#000;stroke-width:.8865366;stroke-miterlimit:4;stroke-dasharray:none;stroke-dashoffset:0;stroke-opacity:0"/><path id="path14922" d="m 105.13142,47.043824 c 17.85769,-13.001563 17.7668,-13.315936 33.95477,-36.784336" style="fill:none;stroke:red;stroke-width:3.20832443;stroke-linecap:butt;stroke-linejoin:miter;stroke-miterlimit:4;stroke-dasharray:none;stroke-opacity:1"/><path id="path14924" d="M 101.69552,42.193148 C 119.62964,28.89813 122.09839,26.657126 134.84184,7.4299274" style="fill:none;stroke:#000;stroke-width:3.20832443;stroke-linecap:butt;stroke-linejoin:miter;stroke-miterlimit:4;stroke-dasharray:none;stroke-opacity:1"/><rect id="rect15475" width="19.313" height="17.178" x="32.094" y="89.955" rx=".248" transform="matrix(0.80884451,-0.58802259,0.65545322,0.75523578,0,0)" style="opacity:1;fill:#f4eeee;fill-opacity:1;stroke:#000;stroke-width:2.81045628;stroke-miterlimit:4;stroke-dasharray:none;stroke-dashoffset:0;stroke-opacity:0"/><rect id="rect15475-2" width="21.828" height="19.807" x="-42.239" y="62.844" rx=".28" transform="rotate(-89.717118)" style="opacity:1;fill:#f4eeee;fill-opacity:1;stroke:#000;stroke-width:3.20832443;stroke-miterlimit:4;stroke-dasharray:none;stroke-dashoffset:0;stroke-opacity:0"/></g></g></svg>