<svg xmlns="http://www.w3.org/2000/svg" xmlns:svg="http://www.w3.org/2000/svg" id="svg8" width="254.206" height="73.182" version="1.1" viewBox="0 0 67.259 19.363"><metadata id="metadata5"/><g id="layer1" transform="translate(-3.4123181,-3.8364301)"><g id="g5188" transform="matrix(0.30973183,0,0,0.30973183,-13.953893,1.353297)"><rect style="opacity:1;fill:#7d3187;fill-opacity:1;stroke:none;stroke-width:.58600003;stroke-linecap:round;stroke-miterlimit:4;stroke-dasharray:none;stroke-dashoffset:0;stroke-opacity:1" id="rect4526" width="104.281" height="56.52" x="56.069" y="8.42" ry="3.207"/><rect style="opacity:1;fill:#232633;fill-opacity:1;stroke:#000;stroke-width:.58600003;stroke-linecap:round;stroke-miterlimit:4;stroke-dasharray:none;stroke-dashoffset:0;stroke-opacity:0" id="rect4529" width="14.299" height="21.916" x="90.337" y="29.062"/><rect style="opacity:1;fill:#232633;fill-opacity:1;stroke:none;stroke-width:.58600003;stroke-linecap:round;stroke-miterlimit:4;stroke-dasharray:none;stroke-dashoffset:0;stroke-opacity:1" id="rect4531" width="21.782" height="43.298" x="133.501" y="21.579"/><path style="fill:#232633;fill-opacity:1;stroke:none;stroke-width:.26458332px;stroke-linecap:butt;stroke-linejoin:miter;stroke-opacity:1" id="path4533" d="m 135.97693,64.788983 v 5.102677 c 4.56018,0.590035 9.53185,1.082559 15.68602,0 l -0.0945,-5.197173 z"/><path style="opacity:1;fill:#fff;fill-opacity:1;stroke:#c79b71;stroke-width:1.30299997;stroke-linecap:round;stroke-miterlimit:4;stroke-dasharray:none;stroke-dashoffset:0;stroke-opacity:1" id="path4537" d="m 63.209198,16.150861 a 2.7395127,2.7395127 0 0 1 -2.723773,2.755151 2.7395127,2.7395127 0 0 1 -2.755162,-2.723761 2.7395127,2.7395127 0 0 1 2.723749,-2.755175 2.7395127,2.7395127 0 0 1 2.755186,2.723737"/><path style="opacity:1;fill:#fff;fill-opacity:1;stroke:#c79b71;stroke-width:1.30299997;stroke-linecap:round;stroke-miterlimit:4;stroke-dasharray:none;stroke-dashoffset:0;stroke-opacity:1" id="path4537-8" d="m 63.342831,24.56985 a 2.7395127,2.7395127 0 0 1 -2.723773,2.755151 2.7395127,2.7395127 0 0 1 -2.755163,-2.723761 2.7395127,2.7395127 0 0 1 2.723749,-2.755174 2.7395127,2.7395127 0 0 1 2.755187,2.723737"/><path style="opacity:1;fill:#fff;fill-opacity:1;stroke:#c79b71;stroke-width:1.30299997;stroke-linecap:round;stroke-miterlimit:4;stroke-dasharray:none;stroke-dashoffset:0;stroke-opacity:1" id="path4537-6" d="m 63.409649,32.988841 a 2.7395127,2.7395127 0 0 1 -2.723773,2.755151 2.7395127,2.7395127 0 0 1 -2.755162,-2.723761 2.7395127,2.7395127 0 0 1 2.723749,-2.755174 2.7395127,2.7395127 0 0 1 2.755186,2.723737"/><path style="opacity:1;fill:#fff;fill-opacity:1;stroke:#c79b71;stroke-width:1.30299997;stroke-linecap:round;stroke-miterlimit:4;stroke-dasharray:none;stroke-dashoffset:0;stroke-opacity:1" id="path4537-1" d="m 63.342831,41.608283 a 2.7395127,2.7395127 0 0 1 -2.723773,2.755151 2.7395127,2.7395127 0 0 1 -2.755163,-2.723761 2.7395127,2.7395127 0 0 1 2.723749,-2.755174 2.7395127,2.7395127 0 0 1 2.755187,2.723737"/><path style="opacity:1;fill:#fff;fill-opacity:1;stroke:#c79b71;stroke-width:1.30299997;stroke-linecap:round;stroke-miterlimit:4;stroke-dasharray:none;stroke-dashoffset:0;stroke-opacity:1" id="path4537-86" d="m 63.476463,50.227725 a 2.7395127,2.7395127 0 0 1 -2.723773,2.755151 2.7395127,2.7395127 0 0 1 -2.755162,-2.723761 2.7395127,2.7395127 0 0 1 2.723749,-2.755174 2.7395127,2.7395127 0 0 1 2.755186,2.723737"/><path style="opacity:1;fill:#fff;fill-opacity:1;stroke:#c79b71;stroke-width:1.30299997;stroke-linecap:round;stroke-miterlimit:4;stroke-dasharray:none;stroke-dashoffset:0;stroke-opacity:1" id="path4537-0" d="m 63.543282,58.446266 a 2.7395127,2.7395127 0 0 1 -2.723773,2.75515 2.7395127,2.7395127 0 0 1 -2.755163,-2.723761 2.7395127,2.7395127 0 0 1 2.723749,-2.755174 2.7395127,2.7395127 0 0 1 2.755186,2.723737"/><path style="opacity:1;fill:#fff;fill-opacity:1;stroke:#c79b71;stroke-width:1.30299997;stroke-linecap:round;stroke-miterlimit:4;stroke-dasharray:none;stroke-dashoffset:0;stroke-opacity:1" id="path4537-3" d="m 84.404269,12.201003 a 2.7465456,2.8816106 0 0 1 -2.730766,2.89806 2.7465456,2.8816106 0 0 1 -2.762235,-2.865042 2.7465456,2.8816106 0 0 1 2.730741,-2.8980845 2.7465456,2.8816106 0 0 1 2.76226,2.8650165"/><path style="opacity:1;fill:#fff;fill-opacity:1;stroke:#c79b71;stroke-width:1.30299997;stroke-linecap:round;stroke-miterlimit:4;stroke-dasharray:none;stroke-dashoffset:0;stroke-opacity:1" id="path4537-9" d="m 93.120051,12.201003 a 2.7465456,2.8816106 0 0 1 -2.730766,2.89806 2.7465456,2.8816106 0 0 1 -2.762235,-2.865042 2.7465456,2.8816106 0 0 1 2.730741,-2.8980845 2.7465456,2.8816106 0 0 1 2.76226,2.8650165"/><path style="opacity:1;fill:#fff;fill-opacity:1;stroke:#c79b71;stroke-width:1.30299997;stroke-linecap:round;stroke-miterlimit:4;stroke-dasharray:none;stroke-dashoffset:0;stroke-opacity:1" id="path4537-2" d="m 101.2674,12.201003 a 2.7465456,2.8816106 0 0 1 -2.730768,2.89806 2.7465456,2.8816106 0 0 1 -2.762235,-2.865042 2.7465456,2.8816106 0 0 1 2.730741,-2.8980845 2.7465456,2.8816106 0 0 1 2.762262,2.8650165"/><path style="opacity:1;fill:#fff;fill-opacity:1;stroke:#c79b71;stroke-width:1.30299997;stroke-linecap:round;stroke-miterlimit:4;stroke-dasharray:none;stroke-dashoffset:0;stroke-opacity:1" id="path4537-81" d="m 109.6042,12.201003 a 2.7465456,2.8816106 0 0 1 -2.73077,2.89806 2.7465456,2.8816106 0 0 1 -2.76223,-2.865042 2.7465456,2.8816106 0 0 1 2.73074,-2.8980845 2.7465456,2.8816106 0 0 1 2.76226,2.8650165"/><path style="opacity:1;fill:#fff;fill-opacity:1;stroke:#c79b71;stroke-width:1.30299997;stroke-linecap:round;stroke-miterlimit:4;stroke-dasharray:none;stroke-dashoffset:0;stroke-opacity:1" id="path4537-18" d="m 118.32,12.201003 a 2.7465456,2.8816106 0 0 1 -2.73076,2.89806 2.7465456,2.8816106 0 0 1 -2.76224,-2.865042 2.7465456,2.8816106 0 0 1 2.73074,-2.8980845 2.7465456,2.8816106 0 0 1 2.76226,2.8650165"/><path style="opacity:1;fill:#fff;fill-opacity:1;stroke:#c79b71;stroke-width:1.30299997;stroke-linecap:round;stroke-miterlimit:4;stroke-dasharray:none;stroke-dashoffset:0;stroke-opacity:1" id="path4537-07" d="m 126.08842,12.201003 a 2.7465456,2.8816106 0 0 1 -2.73077,2.89806 2.7465456,2.8816106 0 0 1 -2.76223,-2.865042 2.7465456,2.8816106 0 0 1 2.73074,-2.8980845 2.7465456,2.8816106 0 0 1 2.76226,2.8650165"/><path style="opacity:1;fill:#fff;fill-opacity:1;stroke:#c79b71;stroke-width:1.30299997;stroke-linecap:round;stroke-miterlimit:4;stroke-dasharray:none;stroke-dashoffset:0;stroke-opacity:1" id="path4537-85" d="m 134.61466,12.201003 a 2.7465456,2.8816106 0 0 1 -2.73076,2.89806 2.7465456,2.8816106 0 0 1 -2.76224,-2.865042 2.7465456,2.8816106 0 0 1 2.73075,-2.8980845 2.7465456,2.8816106 0 0 1 2.76225,2.8650165"/><path style="opacity:1;fill:#fff;fill-opacity:1;stroke:#c79b71;stroke-width:1.30299997;stroke-linecap:round;stroke-miterlimit:4;stroke-dasharray:none;stroke-dashoffset:0;stroke-opacity:1" id="path4537-7" d="m 142.57258,12.201003 a 2.7465456,2.8816106 0 0 1 -2.73076,2.89806 2.7465456,2.8816106 0 0 1 -2.76224,-2.865042 2.7465456,2.8816106 0 0 1 2.73074,-2.8980845 2.7465456,2.8816106 0 0 1 2.76226,2.8650165"/><path style="opacity:1;fill:#fff;fill-opacity:1;stroke:#c79b71;stroke-width:1.30299997;stroke-linecap:round;stroke-miterlimit:4;stroke-dasharray:none;stroke-dashoffset:0;stroke-opacity:1" id="path4537-02" d="m 150.9094,12.201003 a 2.7465456,2.8816106 0 0 1 -2.73076,2.89806 2.7465456,2.8816106 0 0 1 -2.76224,-2.865042 2.7465456,2.8816106 0 0 1 2.73074,-2.8980845 2.7465456,2.8816106 0 0 1 2.76226,2.8650165"/><text style="font-style:normal;font-variant:normal;font-weight:400;font-stretch:normal;font-size:3.90105844px;line-height:1.25;font-family:arial;-inkscape-font-specification:arial;letter-spacing:0;word-spacing:0;fill:#615f62;fill-opacity:1;stroke:none;stroke-width:.20898525;stroke-opacity:1" id="text4654" x="-48.518" y="94.746" transform="rotate(-90)" xml:space="preserve"><tspan id="tspan4652" x="-48.518" y="94.746" style="font-style:normal;font-variant:normal;font-weight:400;font-stretch:normal;font-family:arial;-inkscape-font-specification:arial;fill:#615f62;fill-opacity:1;stroke:none;stroke-width:.20898525;stroke-opacity:1">PCM5102</tspan></text><text style="font-style:normal;font-variant:normal;font-weight:400;font-stretch:normal;font-size:4.93888855px;line-height:1.25;font-family:arial;-inkscape-font-specification:arial;letter-spacing:0;word-spacing:0;fill:#fff;fill-opacity:1;stroke:none;stroke-width:.26458332" id="text4658" x="64.778" y="17.663" xml:space="preserve"><tspan id="tspan4656" x="64.778" y="17.663" style="font-style:normal;font-variant:normal;font-weight:400;font-stretch:normal;font-family:arial;-inkscape-font-specification:arial;fill:#fff;stroke-width:.26458332">SCK</tspan></text><text style="font-style:normal;font-variant:normal;font-weight:400;font-stretch:normal;font-size:4.93888855px;line-height:1.25;font-family:arial;-inkscape-font-specification:arial;letter-spacing:0;word-spacing:0;fill:#fff;fill-opacity:1;stroke:none;stroke-width:.26458332" id="text4658-8" x="64.638" y="26.136" xml:space="preserve"><tspan id="tspan4656-4" x="64.638" y="26.136" style="font-style:normal;font-variant:normal;font-weight:400;font-stretch:normal;font-family:arial;-inkscape-font-specification:arial;fill:#fff;stroke-width:.26458332">BCK</tspan></text><text style="font-style:normal;font-variant:normal;font-weight:400;font-stretch:normal;font-size:4.93888855px;line-height:1.25;font-family:arial;-inkscape-font-specification:arial;letter-spacing:0;word-spacing:0;fill:#fff;fill-opacity:1;stroke:none;stroke-width:.26458332" id="text4658-87" x="64.619" y="34.484" xml:space="preserve"><tspan id="tspan4656-8" x="64.619" y="34.484" style="font-style:normal;font-variant:normal;font-weight:400;font-stretch:normal;font-family:arial;-inkscape-font-specification:arial;fill:#fff;stroke-width:.26458332">DIN</tspan></text><text style="font-style:normal;font-variant:normal;font-weight:400;font-stretch:normal;font-size:4.93888855px;line-height:1.25;font-family:arial;-inkscape-font-specification:arial;letter-spacing:0;word-spacing:0;fill:#fff;fill-opacity:1;stroke:none;stroke-width:.26458332" id="text4658-7" x="64.638" y="43.445" xml:space="preserve"><tspan id="tspan4656-2" x="64.638" y="43.445" style="font-style:normal;font-variant:normal;font-weight:400;font-stretch:normal;font-family:arial;-inkscape-font-specification:arial;fill:#fff;stroke-width:.26458332">LCK</tspan></text><text style="font-style:normal;font-variant:normal;font-weight:400;font-stretch:normal;font-size:4.93888855px;line-height:1.25;font-family:arial;-inkscape-font-specification:arial;letter-spacing:0;word-spacing:0;fill:#fff;fill-opacity:1;stroke:none;stroke-width:.26458332" id="text4658-0" x="64.737" y="52.138" xml:space="preserve"><tspan id="tspan4656-89" x="64.737" y="52.138" style="font-style:normal;font-variant:normal;font-weight:400;font-stretch:normal;font-family:arial;-inkscape-font-specification:arial;fill:#fff;stroke-width:.26458332">GND</tspan></text><text style="font-style:normal;font-variant:normal;font-weight:400;font-stretch:normal;font-size:4.93888855px;line-height:1.25;font-family:arial;-inkscape-font-specification:arial;letter-spacing:0;word-spacing:0;fill:#fff;fill-opacity:1;stroke:none;stroke-width:.26458332" id="text4658-6" x="64.978" y="60.454" xml:space="preserve"><tspan id="tspan4656-6" x="64.978" y="60.454" style="font-style:normal;font-variant:normal;font-weight:400;font-stretch:normal;font-family:arial;-inkscape-font-specification:arial;fill:#fff;stroke-width:.26458332">VIN</tspan></text><text style="font-style:normal;font-variant:normal;font-weight:400;font-stretch:normal;font-size:4.93888855px;line-height:1.25;font-family:arial;-inkscape-font-specification:arial;letter-spacing:0;word-spacing:0;fill:#fff;fill-opacity:1;stroke:none;stroke-width:.26458332" id="text4658-4" x="76.813" y="18.218" xml:space="preserve"><tspan id="tspan4656-0" x="76.813" y="18.218" style="font-style:normal;font-variant:normal;font-weight:400;font-stretch:normal;font-family:arial;-inkscape-font-specification:arial;fill:#fff;stroke-width:.26458332">1</tspan></text><text style="font-style:normal;font-variant:normal;font-weight:400;font-stretch:normal;font-size:4.93888855px;line-height:1.25;font-family:arial;-inkscape-font-specification:arial;letter-spacing:0;word-spacing:0;fill:#fff;fill-opacity:1;stroke:none;stroke-width:.26458332" id="text4658-4-9" x="84.856" y="18.218" xml:space="preserve"><tspan id="tspan4656-0-2" x="84.856" y="18.218" style="font-style:normal;font-variant:normal;font-weight:400;font-stretch:normal;font-family:arial;-inkscape-font-specification:arial;fill:#fff;stroke-width:.26458332">2</tspan></text><text style="font-style:normal;font-variant:normal;font-weight:400;font-stretch:normal;font-size:4.93888855px;line-height:1.25;font-family:arial;-inkscape-font-specification:arial;letter-spacing:0;word-spacing:0;fill:#fff;fill-opacity:1;stroke:none;stroke-width:.26458332" id="text4658-4-4" x="92.74" y="18.155" xml:space="preserve"><tspan id="tspan4656-0-8" x="92.74" y="18.155" style="font-style:normal;font-variant:normal;font-weight:400;font-stretch:normal;font-family:arial;-inkscape-font-specification:arial;fill:#fff;stroke-width:.26458332">3</tspan></text><text style="font-style:normal;font-variant:normal;font-weight:400;font-stretch:normal;font-size:4.93888855px;line-height:1.25;font-family:arial;-inkscape-font-specification:arial;letter-spacing:0;word-spacing:0;fill:#fff;fill-opacity:1;stroke:none;stroke-width:.26458332" id="text4658-4-7" x="100.758" y="18.218" xml:space="preserve"><tspan id="tspan4656-0-4" x="100.758" y="18.218" style="font-style:normal;font-variant:normal;font-weight:400;font-stretch:normal;font-family:arial;-inkscape-font-specification:arial;fill:#fff;stroke-width:.26458332">4</tspan></text><text style="font-style:normal;font-variant:normal;font-weight:400;font-stretch:normal;font-size:4.93888855px;line-height:1.25;font-family:arial;-inkscape-font-specification:arial;letter-spacing:0;word-spacing:0;fill:#fff;fill-opacity:1;stroke:none;stroke-width:.26458332" id="text4658-4-0" x="130.04" y="19.717" xml:space="preserve"><tspan id="tspan4656-0-1" x="130.04" y="19.717" style="font-style:normal;font-variant:normal;font-weight:400;font-stretch:normal;font-family:arial;-inkscape-font-specification:arial;fill:#fff;stroke-width:.26458332">R</tspan></text><text style="font-style:normal;font-variant:normal;font-weight:400;font-stretch:normal;font-size:4.93888855px;line-height:1.25;font-family:arial;-inkscape-font-specification:arial;letter-spacing:0;word-spacing:0;fill:#fff;fill-opacity:1;stroke:none;stroke-width:.26458332" id="text4658-4-8" x="121.622" y="19.657" xml:space="preserve"><tspan id="tspan4656-0-25" x="121.622" y="19.657" style="font-style:normal;font-variant:normal;font-weight:400;font-stretch:normal;font-family:arial;-inkscape-font-specification:arial;fill:#fff;stroke-width:.26458332">G</tspan></text><text style="font-style:normal;font-variant:normal;font-weight:400;font-stretch:normal;font-size:4.93888855px;line-height:1.25;font-family:arial;-inkscape-font-specification:arial;letter-spacing:0;word-spacing:0;fill:#fff;fill-opacity:1;stroke:none;stroke-width:.26458332" id="text4658-4-2" x="138.192" y="19.657" xml:space="preserve"><tspan id="tspan4656-0-0" x="138.192" y="19.657" style="font-style:normal;font-variant:normal;font-weight:400;font-stretch:normal;font-family:arial;-inkscape-font-specification:arial;fill:#fff;stroke-width:.26458332">G</tspan></text><text style="font-style:normal;font-variant:normal;font-weight:400;font-stretch:normal;font-size:4.93888855px;line-height:1.25;font-family:arial;-inkscape-font-specification:arial;letter-spacing:0;word-spacing:0;fill:#fff;fill-opacity:1;stroke:none;stroke-width:.26458332" id="text4658-4-47" x="146.21" y="19.717" xml:space="preserve"><tspan id="tspan4656-0-7" x="146.21" y="19.717" style="font-style:normal;font-variant:normal;font-weight:400;font-stretch:normal;font-family:arial;-inkscape-font-specification:arial;fill:#fff;stroke-width:.26458332">L</tspan></text><text style="font-style:normal;font-variant:normal;font-weight:400;font-stretch:normal;font-size:4.93888855px;line-height:1.25;font-family:arial;-inkscape-font-specification:arial;letter-spacing:0;word-spacing:0;fill:#fff;fill-opacity:1;stroke:none;stroke-width:.26458332" id="text4658-4-21" x="14.606" y="-155.964" transform="rotate(90)" xml:space="preserve"><tspan id="tspan4656-0-22" x="14.606" y="-155.964" style="font-style:normal;font-variant:normal;font-weight:400;font-stretch:normal;font-family:arial;-inkscape-font-specification:arial;fill:#fff;stroke-width:.26458332">LINE OUT</tspan></text></g><g id="g11415" transform="matrix(0.30973183,0,0,0.30973183,-7.621663,-96.989211)"><rect style="opacity:1;fill:#7d3187;fill-opacity:1;stroke:none;stroke-width:.58600003;stroke-linecap:round;stroke-miterlimit:4;stroke-dasharray:none;stroke-dashoffset:0;stroke-opacity:1" id="rect4526-1" width="104.281" height="56.52" x="-252.776" y="325.526" ry="3.207" transform="scale(-1,1)"/><path style="opacity:1;fill:#fff;fill-opacity:1;stroke:#c79b71;stroke-width:1.30300009;stroke-linecap:round;stroke-miterlimit:4;stroke-dasharray:none;stroke-dashoffset:0;stroke-opacity:1" id="path4537-16" d="m -245.63504,333.25693 a 2.7395127,2.7395127 0 0 1 -2.72378,2.75515 2.7395127,2.7395127 0 0 1 -2.75516,-2.72376 2.7395127,2.7395127 0 0 1 2.72375,-2.75517 2.7395127,2.7395127 0 0 1 2.75519,2.72373" transform="scale(-1,1)"/><path style="opacity:1;fill:#fff;fill-opacity:1;stroke:#c79b71;stroke-width:1.30300009;stroke-linecap:round;stroke-miterlimit:4;stroke-dasharray:none;stroke-dashoffset:0;stroke-opacity:1" id="path4537-8-7" d="m -245.50141,341.67591 a 2.7395127,2.7395127 0 0 1 -2.72377,2.75515 2.7395127,2.7395127 0 0 1 -2.75516,-2.72376 2.7395127,2.7395127 0 0 1 2.72375,-2.75518 2.7395127,2.7395127 0 0 1 2.75518,2.72374" transform="scale(-1,1)"/><path style="opacity:1;fill:#fff;fill-opacity:1;stroke:#c79b71;stroke-width:1.30300009;stroke-linecap:round;stroke-miterlimit:4;stroke-dasharray:none;stroke-dashoffset:0;stroke-opacity:1" id="path4537-6-0" d="m -245.43459,350.09491 a 2.7395127,2.7395127 0 0 1 -2.72377,2.75515 2.7395127,2.7395127 0 0 1 -2.75516,-2.72376 2.7395127,2.7395127 0 0 1 2.72374,-2.75517 2.7395127,2.7395127 0 0 1 2.75519,2.72374" transform="scale(-1,1)"/><path style="opacity:1;fill:#fff;fill-opacity:1;stroke:#c79b71;stroke-width:1.30300009;stroke-linecap:round;stroke-miterlimit:4;stroke-dasharray:none;stroke-dashoffset:0;stroke-opacity:1" id="path4537-1-5" d="m -245.50141,358.71436 a 2.7395127,2.7395127 0 0 1 -2.72377,2.75515 2.7395127,2.7395127 0 0 1 -2.75516,-2.72376 2.7395127,2.7395127 0 0 1 2.72375,-2.75518 2.7395127,2.7395127 0 0 1 2.75518,2.72374" transform="scale(-1,1)"/><path style="opacity:1;fill:#fff;fill-opacity:1;stroke:#c79b71;stroke-width:1.30300009;stroke-linecap:round;stroke-miterlimit:4;stroke-dasharray:none;stroke-dashoffset:0;stroke-opacity:1" id="path4537-86-3" d="m -245.36777,367.33377 a 2.7395127,2.7395127 0 0 1 -2.72377,2.75515 2.7395127,2.7395127 0 0 1 -2.75517,-2.72376 2.7395127,2.7395127 0 0 1 2.72375,-2.75517 2.7395127,2.7395127 0 0 1 2.75519,2.72374" transform="scale(-1,1)"/><path style="opacity:1;fill:#fff;fill-opacity:1;stroke:#c79b71;stroke-width:1.30300009;stroke-linecap:round;stroke-miterlimit:4;stroke-dasharray:none;stroke-dashoffset:0;stroke-opacity:1" id="path4537-0-9" d="m -245.30095,375.55231 a 2.7395127,2.7395127 0 0 1 -2.72378,2.75515 2.7395127,2.7395127 0 0 1 -2.75516,-2.72376 2.7395127,2.7395127 0 0 1 2.72375,-2.75517 2.7395127,2.7395127 0 0 1 2.75519,2.72373" transform="scale(-1,1)"/><path style="opacity:1;fill:#fff;fill-opacity:1;stroke:#c79b71;stroke-width:1.30300009;stroke-linecap:round;stroke-miterlimit:4;stroke-dasharray:none;stroke-dashoffset:0;stroke-opacity:1" id="path4537-3-8" d="m -224.43996,329.30705 a 2.7465456,2.8816106 0 0 1 -2.73077,2.89806 2.7465456,2.8816106 0 0 1 -2.76223,-2.86504 2.7465456,2.8816106 0 0 1 2.73074,-2.89809 2.7465456,2.8816106 0 0 1 2.76226,2.86502" transform="scale(-1,1)"/><path style="opacity:1;fill:#fff;fill-opacity:1;stroke:#c79b71;stroke-width:1.30300009;stroke-linecap:round;stroke-miterlimit:4;stroke-dasharray:none;stroke-dashoffset:0;stroke-opacity:1" id="path4537-9-7" d="m -215.72417,329.30705 a 2.7465456,2.8816106 0 0 1 -2.73077,2.89806 2.7465456,2.8816106 0 0 1 -2.76223,-2.86504 2.7465456,2.8816106 0 0 1 2.73074,-2.89809 2.7465456,2.8816106 0 0 1 2.76226,2.86502" transform="scale(-1,1)"/><path style="opacity:1;fill:#fff;fill-opacity:1;stroke:#c79b71;stroke-width:1.30300009;stroke-linecap:round;stroke-miterlimit:4;stroke-dasharray:none;stroke-dashoffset:0;stroke-opacity:1" id="path4537-2-2" d="m -207.57683,329.30705 a 2.7465456,2.8816106 0 0 1 -2.73077,2.89806 2.7465456,2.8816106 0 0 1 -2.76223,-2.86504 2.7465456,2.8816106 0 0 1 2.73074,-2.89809 2.7465456,2.8816106 0 0 1 2.76226,2.86502" transform="scale(-1,1)"/><path style="opacity:1;fill:#fff;fill-opacity:1;stroke:#c79b71;stroke-width:1.30300009;stroke-linecap:round;stroke-miterlimit:4;stroke-dasharray:none;stroke-dashoffset:0;stroke-opacity:1" id="path4537-81-2" d="m -199.24003,329.30705 a 2.7465456,2.8816106 0 0 1 -2.73076,2.89806 2.7465456,2.8816106 0 0 1 -2.76224,-2.86504 2.7465456,2.8816106 0 0 1 2.73074,-2.89809 2.7465456,2.8816106 0 0 1 2.76226,2.86502" transform="scale(-1,1)"/><path style="opacity:1;fill:#fff;fill-opacity:1;stroke:#c79b71;stroke-width:1.30300009;stroke-linecap:round;stroke-miterlimit:4;stroke-dasharray:none;stroke-dashoffset:0;stroke-opacity:1" id="path4537-18-3" d="m -190.52424,329.30705 a 2.7465456,2.8816106 0 0 1 -2.73076,2.89806 2.7465456,2.8816106 0 0 1 -2.76224,-2.86504 2.7465456,2.8816106 0 0 1 2.73074,-2.89809 2.7465456,2.8816106 0 0 1 2.76226,2.86502" transform="scale(-1,1)"/><path style="opacity:1;fill:#fff;fill-opacity:1;stroke:#c79b71;stroke-width:1.30300009;stroke-linecap:round;stroke-miterlimit:4;stroke-dasharray:none;stroke-dashoffset:0;stroke-opacity:1" id="path4537-07-9" d="m -182.7558,329.30705 a 2.7465456,2.8816106 0 0 1 -2.73077,2.89806 2.7465456,2.8816106 0 0 1 -2.76223,-2.86504 2.7465456,2.8816106 0 0 1 2.73074,-2.89809 2.7465456,2.8816106 0 0 1 2.76226,2.86502" transform="scale(-1,1)"/><path style="opacity:1;fill:#fff;fill-opacity:1;stroke:#c79b71;stroke-width:1.30300009;stroke-linecap:round;stroke-miterlimit:4;stroke-dasharray:none;stroke-dashoffset:0;stroke-opacity:1" id="path4537-85-5" d="m -174.22956,329.30705 a 2.7465456,2.8816106 0 0 1 -2.73076,2.89806 2.7465456,2.8816106 0 0 1 -2.76224,-2.86504 2.7465456,2.8816106 0 0 1 2.73074,-2.89809 2.7465456,2.8816106 0 0 1 2.76226,2.86502" transform="scale(-1,1)"/><path style="opacity:1;fill:#fff;fill-opacity:1;stroke:#c79b71;stroke-width:1.30300009;stroke-linecap:round;stroke-miterlimit:4;stroke-dasharray:none;stroke-dashoffset:0;stroke-opacity:1" id="path4537-7-5" d="m -166.27166,329.30705 a 2.7465456,2.8816106 0 0 1 -2.73076,2.89806 2.7465456,2.8816106 0 0 1 -2.76224,-2.86504 2.7465456,2.8816106 0 0 1 2.73074,-2.89809 2.7465456,2.8816106 0 0 1 2.76226,2.86502" transform="scale(-1,1)"/><path style="opacity:1;fill:#fff;fill-opacity:1;stroke:#c79b71;stroke-width:1.30300009;stroke-linecap:round;stroke-miterlimit:4;stroke-dasharray:none;stroke-dashoffset:0;stroke-opacity:1" id="path4537-02-2" d="m -157.93483,329.30705 a 2.7465456,2.8816106 0 0 1 -2.73077,2.89806 2.7465456,2.8816106 0 0 1 -2.76224,-2.86504 2.7465456,2.8816106 0 0 1 2.73075,-2.89809 2.7465456,2.8816106 0 0 1 2.76225,2.86502" transform="scale(-1,1)"/><text style="font-style:normal;font-variant:normal;font-weight:400;font-stretch:normal;font-size:4.93888855px;line-height:1.25;font-family:arial;-inkscape-font-specification:arial;letter-spacing:0;word-spacing:0;fill:#fff;fill-opacity:1;stroke:none;stroke-width:.26458332" id="text4658-44" x="232.833" y="334.808" xml:space="preserve"><tspan id="tspan4656-9" x="232.833" y="334.808" style="font-style:normal;font-variant:normal;font-weight:400;font-stretch:normal;font-family:arial;-inkscape-font-specification:arial;fill:#fff;stroke-width:.26458332">SCK</tspan></text><text style="font-style:normal;font-variant:normal;font-weight:400;font-stretch:normal;font-size:4.93888855px;line-height:1.25;font-family:arial;-inkscape-font-specification:arial;letter-spacing:0;word-spacing:0;fill:#fff;fill-opacity:1;stroke:none;stroke-width:.26458332" id="text4658-8-5" x="232.693" y="343.242" xml:space="preserve"><tspan id="tspan4656-4-5" x="232.693" y="343.242" style="font-style:normal;font-variant:normal;font-weight:400;font-stretch:normal;font-family:arial;-inkscape-font-specification:arial;fill:#fff;stroke-width:.26458332">BCK</tspan></text><text style="font-style:normal;font-variant:normal;font-weight:400;font-stretch:normal;font-size:4.93888855px;line-height:1.25;font-family:arial;-inkscape-font-specification:arial;letter-spacing:0;word-spacing:0;fill:#fff;fill-opacity:1;stroke:none;stroke-width:.26458332" id="text4658-87-7" x="232.674" y="351.59" xml:space="preserve"><tspan id="tspan4656-8-9" x="232.674" y="351.59" style="font-style:normal;font-variant:normal;font-weight:400;font-stretch:normal;font-family:arial;-inkscape-font-specification:arial;fill:#fff;stroke-width:.26458332">DIN</tspan></text><text style="font-style:normal;font-variant:normal;font-weight:400;font-stretch:normal;font-size:4.93888855px;line-height:1.25;font-family:arial;-inkscape-font-specification:arial;letter-spacing:0;word-spacing:0;fill:#fff;fill-opacity:1;stroke:none;stroke-width:.26458332" id="text4658-7-3" x="232.693" y="360.551" xml:space="preserve"><tspan id="tspan4656-2-2" x="232.693" y="360.551" style="font-style:normal;font-variant:normal;font-weight:400;font-stretch:normal;font-family:arial;-inkscape-font-specification:arial;fill:#fff;stroke-width:.26458332">LCK</tspan></text><text style="font-style:normal;font-variant:normal;font-weight:400;font-stretch:normal;font-size:4.93888855px;line-height:1.25;font-family:arial;-inkscape-font-specification:arial;letter-spacing:0;word-spacing:0;fill:#fff;fill-opacity:1;stroke:none;stroke-width:.26458332" id="text4658-0-2" x="232.792" y="369.244" xml:space="preserve"><tspan id="tspan4656-89-1" x="232.792" y="369.244" style="font-style:normal;font-variant:normal;font-weight:400;font-stretch:normal;font-family:arial;-inkscape-font-specification:arial;fill:#fff;stroke-width:.26458332">GND</tspan></text><text style="font-style:normal;font-variant:normal;font-weight:400;font-stretch:normal;font-size:4.93888855px;line-height:1.25;font-family:arial;-inkscape-font-specification:arial;letter-spacing:0;word-spacing:0;fill:#fff;fill-opacity:1;stroke:none;stroke-width:.26458332" id="text4658-6-5" x="233.033" y="377.56" xml:space="preserve"><tspan id="tspan4656-6-5" x="233.033" y="377.56" style="font-style:normal;font-variant:normal;font-weight:400;font-stretch:normal;font-family:arial;-inkscape-font-specification:arial;fill:#fff;stroke-width:.26458332">VIN</tspan></text><text style="font-style:normal;font-variant:normal;font-weight:400;font-stretch:normal;font-size:4.93888855px;line-height:1.25;font-family:arial;-inkscape-font-specification:arial;letter-spacing:0;word-spacing:0;fill:#fff;fill-opacity:1;stroke:none;stroke-width:.26458332" id="text5250" x="333.603" y="-225.558" transform="rotate(90)" xml:space="preserve"><tspan id="tspan5248" x="333.603" y="-225.558" style="font-style:normal;font-variant:normal;font-weight:400;font-stretch:normal;font-family:arial;-inkscape-font-specification:arial;fill:#fff;stroke-width:.26458332">FTL</tspan></text><text style="font-style:normal;font-variant:normal;font-weight:400;font-stretch:normal;font-size:4.93888855px;line-height:1.25;font-family:arial;-inkscape-font-specification:arial;letter-spacing:0;word-spacing:0;fill:#fff;fill-opacity:1;stroke:none;stroke-width:.26458332" id="text5250-5" x="333.404" y="-216.854" transform="rotate(90)" xml:space="preserve"><tspan id="tspan5248-4" x="333.404" y="-216.854" style="font-style:normal;font-variant:normal;font-weight:400;font-stretch:normal;font-family:arial;-inkscape-font-specification:arial;fill:#fff;stroke-width:.26458332">DEMP</tspan></text><text style="font-style:normal;font-variant:normal;font-weight:400;font-stretch:normal;font-size:4.93888855px;line-height:1.25;font-family:arial;-inkscape-font-specification:arial;letter-spacing:0;word-spacing:0;fill:#fff;fill-opacity:1;stroke:none;stroke-width:.26458332" id="text5250-7" x="333.404" y="-208.444" transform="rotate(90)" xml:space="preserve"><tspan id="tspan5248-1" x="333.404" y="-208.444" style="font-style:normal;font-variant:normal;font-weight:400;font-stretch:normal;font-family:arial;-inkscape-font-specification:arial;fill:#fff;stroke-width:.26458332">XSMT</tspan></text><text style="font-style:normal;font-variant:normal;font-weight:400;font-stretch:normal;font-size:4.93888855px;line-height:1.25;font-family:arial;-inkscape-font-specification:arial;letter-spacing:0;word-spacing:0;fill:#fff;fill-opacity:1;stroke:none;stroke-width:.26458332" id="text5250-1" x="333.404" y="-200.034" transform="rotate(90)" xml:space="preserve"><tspan id="tspan5248-9" x="333.404" y="-200.034" style="font-style:normal;font-variant:normal;font-weight:400;font-stretch:normal;font-family:arial;-inkscape-font-specification:arial;fill:#fff;stroke-width:.26458332">FMT</tspan></text><text style="font-style:normal;font-variant:normal;font-weight:400;font-stretch:normal;font-size:4.93888855px;line-height:1.25;font-family:arial;-inkscape-font-specification:arial;letter-spacing:0;word-spacing:0;fill:#fff;fill-opacity:1;stroke:none;stroke-width:.26458332" id="text5250-53" x="333.865" y="-191.057" transform="rotate(90)" xml:space="preserve"><tspan id="tspan5248-45" x="333.865" y="-191.057" style="font-style:normal;font-variant:normal;font-weight:400;font-stretch:normal;font-family:arial;-inkscape-font-specification:arial;fill:#fff;stroke-width:.26458332">3.3V</tspan></text><text style="font-style:normal;font-variant:normal;font-weight:400;font-stretch:normal;font-size:4.93888855px;line-height:1.25;font-family:arial;-inkscape-font-specification:arial;letter-spacing:0;word-spacing:0;fill:#fff;fill-opacity:1;stroke:none;stroke-width:.26458332" id="text5250-6" x="333.719" y="-183.592" transform="rotate(90)" xml:space="preserve"><tspan id="tspan5248-6" x="333.719" y="-183.592" style="font-style:normal;font-variant:normal;font-weight:400;font-stretch:normal;font-family:arial;-inkscape-font-specification:arial;fill:#fff;stroke-width:.26458332">AGND</tspan></text><text style="font-style:normal;font-variant:normal;font-weight:400;font-stretch:normal;font-size:4.93888855px;line-height:1.25;font-family:arial;-inkscape-font-specification:arial;letter-spacing:0;word-spacing:0;fill:#fff;fill-opacity:1;stroke:none;stroke-width:.26458332" id="text5250-2" x="333.568" y="-174.237" transform="rotate(90)" xml:space="preserve"><tspan id="tspan5248-18" x="333.568" y="-174.237" style="font-style:normal;font-variant:normal;font-weight:400;font-stretch:normal;font-family:arial;-inkscape-font-specification:arial;fill:#fff;stroke-width:.26458332">ROUT</tspan></text><text style="font-style:normal;font-variant:normal;font-weight:400;font-stretch:normal;font-size:4.93888855px;line-height:1.25;font-family:arial;-inkscape-font-specification:arial;letter-spacing:0;word-spacing:0;fill:#fff;fill-opacity:1;stroke:none;stroke-width:.26458332" id="text5250-24" x="333.652" y="-167.339" transform="rotate(90)" xml:space="preserve"><tspan id="tspan5248-8" x="333.652" y="-167.339" style="font-style:normal;font-variant:normal;font-weight:400;font-stretch:normal;font-family:arial;-inkscape-font-specification:arial;fill:#fff;stroke-width:.26458332">AGND</tspan></text><text style="font-style:normal;font-variant:normal;font-weight:400;font-stretch:normal;font-size:4.93888855px;line-height:1.25;font-family:arial;-inkscape-font-specification:arial;letter-spacing:0;word-spacing:0;fill:#fff;fill-opacity:1;stroke:none;stroke-width:.26458332" id="text5250-9" x="333.224" y="-158.523" transform="rotate(90)" xml:space="preserve"><tspan id="tspan5248-89" x="333.224" y="-158.523" style="font-style:normal;font-variant:normal;font-weight:400;font-stretch:normal;font-family:arial;-inkscape-font-specification:arial;fill:#fff;stroke-width:.26458332">LROUT</tspan></text><text style="font-style:normal;font-variant:normal;font-weight:400;font-stretch:normal;font-size:4.93888855px;line-height:1.25;font-family:arial;-inkscape-font-specification:arial;letter-spacing:0;word-spacing:0;fill:#fff;fill-opacity:1;stroke:none;stroke-width:.26458332" id="text5328" x="167.761" y="367.74" xml:space="preserve"><tspan id="tspan5326" x="167.761" y="367.74" style="font-style:normal;font-variant:normal;font-weight:400;font-stretch:normal;font-family:arial;-inkscape-font-specification:arial;fill:#fff;stroke-width:.26458332">PCM5100</tspan></text><text style="font-style:normal;font-variant:normal;font-weight:400;font-stretch:normal;font-size:4.93888855px;line-height:1.25;font-family:arial;-inkscape-font-specification:arial;letter-spacing:0;word-spacing:0;fill:#fff;fill-opacity:1;stroke:none;stroke-width:.26458332" id="text5328-3" x="167.522" y="372.916" xml:space="preserve"><tspan id="tspan5326-6" x="167.522" y="372.916" style="font-style:normal;font-variant:normal;font-weight:400;font-stretch:normal;font-family:arial;-inkscape-font-specification:arial;fill:#fff;stroke-width:.26458332">PCM5101</tspan></text><text style="font-style:normal;font-variant:normal;font-weight:400;font-stretch:normal;font-size:4.93888855px;line-height:1.25;font-family:arial;-inkscape-font-specification:arial;letter-spacing:0;word-spacing:0;fill:#fff;fill-opacity:1;stroke:none;stroke-width:.26458332" id="text5328-8" x="167.522" y="378.127" xml:space="preserve"><tspan id="tspan5326-3" x="167.522" y="378.127" style="font-style:normal;font-variant:normal;font-weight:400;font-stretch:normal;font-family:arial;-inkscape-font-specification:arial;fill:#fff;stroke-width:.26458332">PCM5102</tspan></text><g id="g5388" transform="translate(91.054578,244.06459)"><rect id="rect5356" width="10.023" height="4.276" x="83.388" y="113.519" ry="0" style="opacity:1;fill:#fff;fill-opacity:1;stroke:#fff;stroke-width:1.30299997;stroke-linecap:round;stroke-miterlimit:4;stroke-dasharray:none;stroke-dashoffset:0;stroke-opacity:1"/><text id="text5360" x="84.457" y="117.395" xml:space="preserve" style="font-style:normal;font-variant:normal;font-weight:400;font-stretch:normal;font-size:4.93888855px;line-height:1.25;font-family:arial;-inkscape-font-specification:arial;letter-spacing:0;word-spacing:0;fill:#7d3187;fill-opacity:1;stroke:none;stroke-width:.26458332"><tspan style="font-style:normal;font-variant:normal;font-weight:400;font-stretch:normal;font-family:arial;-inkscape-font-specification:arial;fill:#7d3187;fill-opacity:1;stroke-width:.26458332" id="tspan5358" x="84.457" y="117.395">GY</tspan></text></g><rect style="opacity:1;fill:#fff;fill-opacity:1;stroke:none;stroke-width:1.11745417;stroke-linecap:round;stroke-miterlimit:4;stroke-dasharray:none;stroke-dashoffset:0;stroke-opacity:1" id="rect5362" width="7.078" height="3.962" x="159.99" y="363.971" ry="0"/><rect style="opacity:1;fill:#fff;fill-opacity:1;stroke:none;stroke-width:1.11745417;stroke-linecap:round;stroke-miterlimit:4;stroke-dasharray:none;stroke-dashoffset:0;stroke-opacity:1" id="rect5362-0" width="7.078" height="3.962" x="159.99" y="369.337" ry="0"/><rect style="opacity:1;fill:#000;fill-opacity:1;stroke:none;stroke-width:1.11745417;stroke-linecap:round;stroke-miterlimit:4;stroke-dasharray:none;stroke-dashoffset:0;stroke-opacity:1" id="rect5362-7" width="7.078" height="3.962" x="159.99" y="374.368" ry="0"/><g id="g5502" transform="translate(91.054578,245.86866)"><rect id="rect5390" width="11.922" height="5.903" x="109.41" y="105.107" ry="1.431" style="opacity:1;fill:none;fill-opacity:1;stroke:#fff;stroke-width:.61900002;stroke-linecap:round;stroke-miterlimit:4;stroke-dasharray:none;stroke-dashoffset:0;stroke-opacity:1"/><rect id="rect5419" width="8.932" height="3.389" x="110.937" y="106.393" ry="0" style="opacity:1;fill:#c79b71;fill-opacity:1;stroke:#c79b71;stroke-width:.4872337;stroke-linecap:round;stroke-miterlimit:4;stroke-dasharray:none;stroke-dashoffset:0;stroke-opacity:1"/><rect id="rect5421" width="4.754" height="3.933" x="115.372" y="106.142" ry="0" style="opacity:1;fill:#79747f;fill-opacity:1;stroke:#000;stroke-width:.65191543;stroke-linecap:round;stroke-miterlimit:4;stroke-dasharray:none;stroke-dashoffset:0;stroke-opacity:0"/><text id="text5425" x="110.844" y="115.564" xml:space="preserve" style="font-style:normal;font-variant:normal;font-weight:400;font-stretch:normal;font-size:4.93888855px;line-height:1.25;font-family:arial;-inkscape-font-specification:arial;letter-spacing:0;word-spacing:0;fill:#fff;fill-opacity:1;stroke:none;stroke-width:.26458332"><tspan style="font-style:normal;font-variant:normal;font-weight:400;font-stretch:normal;font-family:arial;-inkscape-font-specification:arial;fill:#fff;stroke-width:.26458332" id="tspan5423" x="110.844" y="115.564">H2L</tspan></text><rect id="rect5390-0" width="11.922" height="5.903" x="124.819" y="104.828" ry="1.431" style="opacity:1;fill:none;fill-opacity:1;stroke:#fff;stroke-width:.61900002;stroke-linecap:round;stroke-miterlimit:4;stroke-dasharray:none;stroke-dashoffset:0;stroke-opacity:1"/><rect id="rect5419-9" width="8.932" height="3.389" x="126.346" y="106.114" ry="0" style="opacity:1;fill:#c79b71;fill-opacity:1;stroke:#c79b71;stroke-width:.4872337;stroke-linecap:round;stroke-miterlimit:4;stroke-dasharray:none;stroke-dashoffset:0;stroke-opacity:1"/><rect id="rect5421-8" width="4.754" height="3.933" x="130.748" y="105.83" ry="0" style="opacity:1;fill:#79747f;fill-opacity:1;stroke:#000;stroke-width:.65191543;stroke-linecap:round;stroke-miterlimit:4;stroke-dasharray:none;stroke-dashoffset:0;stroke-opacity:0"/><text id="text5425-5" x="126.253" y="115.285" xml:space="preserve" style="font-style:normal;font-variant:normal;font-weight:400;font-stretch:normal;font-size:4.93888855px;line-height:1.25;font-family:arial;-inkscape-font-specification:arial;letter-spacing:0;word-spacing:0;fill:#fff;fill-opacity:1;stroke:none;stroke-width:.26458332"><tspan style="font-style:normal;font-variant:normal;font-weight:400;font-stretch:normal;font-family:arial;-inkscape-font-specification:arial;fill:#fff;stroke-width:.26458332" id="tspan5423-6" x="126.253" y="115.285">H1L</tspan></text><rect id="rect5390-03" width="11.922" height="5.903" x="109.133" y="117.49" ry="1.431" style="opacity:1;fill:none;fill-opacity:1;stroke:#fff;stroke-width:.61900002;stroke-linecap:round;stroke-miterlimit:4;stroke-dasharray:none;stroke-dashoffset:0;stroke-opacity:1"/><rect id="rect5419-2" width="8.932" height="3.389" x="110.66" y="118.776" ry="0" style="opacity:1;fill:#c79b71;fill-opacity:1;stroke:#c79b71;stroke-width:.4872337;stroke-linecap:round;stroke-miterlimit:4;stroke-dasharray:none;stroke-dashoffset:0;stroke-opacity:1"/><rect id="rect5421-3" width="4.754" height="3.933" x="115.106" y="118.508" ry="0" style="opacity:1;fill:#79747f;fill-opacity:1;stroke:#000;stroke-width:.65191543;stroke-linecap:round;stroke-miterlimit:4;stroke-dasharray:none;stroke-dashoffset:0;stroke-opacity:0"/><text id="text5425-7" x="110.567" y="127.947" xml:space="preserve" style="font-style:normal;font-variant:normal;font-weight:400;font-stretch:normal;font-size:4.93888855px;line-height:1.25;font-family:arial;-inkscape-font-specification:arial;letter-spacing:0;word-spacing:0;fill:#fff;fill-opacity:1;stroke:none;stroke-width:.26458332"><tspan style="font-style:normal;font-variant:normal;font-weight:400;font-stretch:normal;font-family:arial;-inkscape-font-specification:arial;fill:#fff;stroke-width:.26458332" id="tspan5423-62" x="110.567" y="127.947">H4L</tspan></text><rect id="rect5390-2" width="11.922" height="5.903" x="125.197" y="117.49" ry="1.431" style="opacity:1;fill:none;fill-opacity:1;stroke:#fff;stroke-width:.61900002;stroke-linecap:round;stroke-miterlimit:4;stroke-dasharray:none;stroke-dashoffset:0;stroke-opacity:1"/><rect id="rect5419-5" width="8.932" height="3.389" x="126.724" y="118.776" ry="0" style="opacity:1;fill:#c79b71;fill-opacity:1;stroke:#c79b71;stroke-width:.4872337;stroke-linecap:round;stroke-miterlimit:4;stroke-dasharray:none;stroke-dashoffset:0;stroke-opacity:1"/><rect id="rect5421-6" width="4.754" height="3.933" x="126.493" y="118.508" ry="0" style="opacity:1;fill:#79747f;fill-opacity:1;stroke:#000;stroke-width:.65191543;stroke-linecap:round;stroke-miterlimit:4;stroke-dasharray:none;stroke-dashoffset:0;stroke-opacity:0"/><text id="text5425-1" x="126.631" y="127.947" xml:space="preserve" style="font-style:normal;font-variant:normal;font-weight:400;font-stretch:normal;font-size:4.93888855px;line-height:1.25;font-family:arial;-inkscape-font-specification:arial;letter-spacing:0;word-spacing:0;fill:#fff;fill-opacity:1;stroke:none;stroke-width:.26458332"><tspan style="font-style:normal;font-variant:normal;font-weight:400;font-stretch:normal;font-family:arial;-inkscape-font-specification:arial;fill:#fff;stroke-width:.26458332" id="tspan5423-9" x="126.631" y="127.947">H3L</tspan></text></g></g></g></svg>