<svg xmlns="http://www.w3.org/2000/svg" xmlns:svg="http://www.w3.org/2000/svg" xmlns:xlink="http://www.w3.org/1999/xlink" id="svg5478" width="166.564" height="352.393" version="1.1" viewBox="0 0 44.07 93.237"><metadata id="metadata5475"/><g id="layer1" transform="translate(-98.917298,-13.012284)"><g id="layer1-2" transform="matrix(0,0.47053791,-0.47053791,0,144.94963,9.704053)"><rect id="rect11950" width="193.178" height="89.39" x="7.474" y="4.613" rx="0" ry="8.709" style="display:inline;opacity:1;fill:#005332;fill-opacity:1;stroke:#005332;stroke-width:.88583678;stroke-miterlimit:4;stroke-dasharray:none;stroke-opacity:1"/><ellipse id="path79-2-4-8" cx="-17.574" cy="-16.161" rx="6.936" ry="6.88" transform="rotate(179.96662)" style="display:inline;opacity:1;fill:#fff;fill-opacity:1;stroke:#ab944f;stroke-width:4.39458895;stroke-miterlimit:4;stroke-dasharray:none;stroke-opacity:1"/><ellipse id="path79-2-4-8-9" cx="-17.325" cy="-85.218" rx="6.936" ry="6.88" transform="rotate(179.96662)" style="display:inline;opacity:1;fill:#fff;fill-opacity:1;stroke:#ab944f;stroke-width:4.39458895;stroke-miterlimit:4;stroke-dasharray:none;stroke-opacity:1"/><ellipse id="path79-2-4-8-0" cx="-190.596" cy="-84.481" rx="6.936" ry="6.88" transform="rotate(179.96662)" style="display:inline;opacity:1;fill:#fff;fill-opacity:1;stroke:#ab944f;stroke-width:4.39458895;stroke-miterlimit:4;stroke-dasharray:none;stroke-opacity:1"/><ellipse id="path79-2-4-8-7" cx="-190.218" cy="-14.587" rx="6.936" ry="6.88" transform="rotate(179.96662)" style="display:inline;opacity:1;fill:#fff;fill-opacity:1;stroke:#ab944f;stroke-width:4.39458895;stroke-miterlimit:4;stroke-dasharray:none;stroke-opacity:1"/><rect id="rect12030" width="151.229" height="15.671" x="28.131" y="7.251" ry="0" style="display:inline;opacity:1;fill:none;fill-opacity:1;stroke:#fff;stroke-width:.95100725;stroke-miterlimit:4;stroke-dasharray:none;stroke-opacity:1"/><rect id="rect12032" width="4.587" height="4.365" x="29.908" y="17.225" style="display:inline;opacity:1;fill:#fff;fill-opacity:1;stroke:#aa8964;stroke-width:.92126334;stroke-miterlimit:4;stroke-dasharray:none;stroke-opacity:1"/><ellipse id="path12034" cx="32.078" cy="11.959" rx="2.411" ry="2.201" style="display:inline;opacity:1;fill:#fff;fill-opacity:1;stroke:#aa8964;stroke-width:.91304106;stroke-miterlimit:4;stroke-dasharray:none;stroke-opacity:1"/><use id="use12287" width="100%" height="100%" x="0" y="0" transform="translate(7.8425366,7.5465978)" xlink:href="#path12034" style="display:inline;opacity:1"/><use id="use12289" width="100%" height="100%" x="0" y="0" transform="translate(7.4546316,-9.722092e-6)" xlink:href="#path12034" style="display:inline;opacity:1"/><use id="use12291" width="100%" height="100%" x="0" y="0" transform="translate(14.909291,-9.722092e-6)" xlink:href="#path12034" style="display:inline;opacity:1"/><use id="use12293" width="100%" height="100%" x="0" y="0" transform="translate(22.363905,-9.722092e-6)" xlink:href="#path12034" style="display:inline;opacity:1"/><use id="use12295" width="100%" height="100%" x="0" y="0" transform="translate(29.818564,-9.722092e-6)" xlink:href="#path12034" style="display:inline;opacity:1"/><use id="use12297" width="100%" height="100%" x="0" y="0" transform="translate(37.273223,-9.722092e-6)" xlink:href="#path12034" style="display:inline;opacity:1"/><use id="use12299" width="100%" height="100%" x="0" y="0" transform="translate(44.727839,-9.722092e-6)" xlink:href="#path12034" style="display:inline;opacity:1"/><use id="use12301" width="100%" height="100%" x="0" y="0" transform="translate(52.182498,-9.722092e-6)" xlink:href="#path12034" style="display:inline;opacity:1"/><use id="use12303" width="100%" height="100%" x="0" y="0" transform="translate(59.637113,-9.722092e-6)" xlink:href="#path12034" style="display:inline;opacity:1"/><use id="use12305" width="100%" height="100%" x="0" y="0" transform="translate(67.091772,-9.722092e-6)" xlink:href="#path12034" style="display:inline;opacity:1"/><use id="use12307" width="100%" height="100%" x="0" y="0" transform="translate(74.54643,-9.722092e-6)" xlink:href="#path12034" style="display:inline;opacity:1"/><use id="use12309" width="100%" height="100%" x="0" y="0" transform="translate(82.001046,-9.722092e-6)" xlink:href="#path12034" style="display:inline;opacity:1"/><use id="use12311" width="100%" height="100%" x="0" y="0" transform="translate(89.455705,-9.722092e-6)" xlink:href="#path12034" style="display:inline;opacity:1"/><use id="use12313" width="100%" height="100%" x="0" y="0" transform="translate(96.910319,-9.722092e-6)" xlink:href="#path12034" style="display:inline;opacity:1"/><use id="use12315" width="100%" height="100%" x="0" y="0" transform="translate(104.36498,-9.722092e-6)" xlink:href="#path12034" style="display:inline;opacity:1"/><use id="use12317" width="100%" height="100%" x="0" y="0" transform="translate(111.81964,-9.722092e-6)" xlink:href="#path12034" style="display:inline;opacity:1"/><use id="use12319" width="100%" height="100%" x="0" y="0" transform="translate(119.27425,-9.722092e-6)" xlink:href="#path12034" style="display:inline;opacity:1"/><use id="use12321" width="100%" height="100%" x="0" y="0" transform="translate(126.72891,-9.722092e-6)" xlink:href="#path12034" style="display:inline;opacity:1"/><use id="use12323" width="100%" height="100%" x="0" y="0" transform="translate(134.18353,-9.722092e-6)" xlink:href="#path12034" style="display:inline;opacity:1"/><use id="use12325" width="100%" height="100%" x="0" y="0" transform="translate(141.63819,-9.722092e-6)" xlink:href="#path12034" style="display:inline;opacity:1"/><use id="use12363" width="100%" height="100%" x="0" y="0" transform="translate(1.6929799e-5,-9.722092e-6)" xlink:href="#use12287" style="display:inline;opacity:1"/><use id="use12365" width="100%" height="100%" x="0" y="0" transform="translate(7.4546316,-9.722092e-6)" xlink:href="#use12287" style="display:inline;opacity:1"/><use id="use12367" width="100%" height="100%" x="0" y="0" transform="translate(14.909291,-9.722092e-6)" xlink:href="#use12287" style="display:inline;opacity:1"/><use id="use12369" width="100%" height="100%" x="0" y="0" transform="translate(22.363905,-9.722092e-6)" xlink:href="#use12287" style="display:inline;opacity:1"/><use id="use12371" width="100%" height="100%" x="0" y="0" transform="translate(29.818564,-9.722092e-6)" xlink:href="#use12287" style="display:inline;opacity:1"/><use id="use12373" width="100%" height="100%" x="0" y="0" transform="translate(37.273223,-9.722092e-6)" xlink:href="#use12287" style="display:inline;opacity:1"/><use id="use12375" width="100%" height="100%" x="0" y="0" transform="translate(44.727839,-9.722092e-6)" xlink:href="#use12287" style="display:inline;opacity:1"/><use id="use12377" width="100%" height="100%" x="0" y="0" transform="translate(52.182498,-9.722092e-6)" xlink:href="#use12287" style="display:inline;opacity:1"/><use id="use12379" width="100%" height="100%" x="0" y="0" transform="translate(59.637113,-9.722092e-6)" xlink:href="#use12287" style="display:inline;opacity:1"/><use id="use12381" width="100%" height="100%" x="0" y="0" transform="translate(67.091772,-9.722092e-6)" xlink:href="#use12287" style="display:inline;opacity:1"/><use id="use12383" width="100%" height="100%" x="0" y="0" transform="translate(74.54643,-9.722092e-6)" xlink:href="#use12287" style="display:inline;opacity:1"/><use id="use12385" width="100%" height="100%" x="0" y="0" transform="translate(82.001046,-9.722092e-6)" xlink:href="#use12287" style="display:inline;opacity:1"/><use id="use12387" width="100%" height="100%" x="0" y="0" transform="translate(89.455705,-9.722092e-6)" xlink:href="#use12287" style="display:inline;opacity:1"/><use id="use12389" width="100%" height="100%" x="0" y="0" transform="translate(96.910319,-9.722092e-6)" xlink:href="#use12287" style="display:inline;opacity:1"/><use id="use12391" width="100%" height="100%" x="0" y="0" transform="translate(104.36498,-9.722092e-6)" xlink:href="#use12287" style="display:inline;opacity:1"/><use id="use12393" width="100%" height="100%" x="0" y="0" transform="translate(111.81964,-9.722092e-6)" xlink:href="#use12287" style="display:inline;opacity:1"/><use id="use12395" width="100%" height="100%" x="0" y="0" transform="translate(119.27425,-9.722092e-6)" xlink:href="#use12287" style="display:inline;opacity:1"/><use id="use12397" width="100%" height="100%" x="0" y="0" transform="translate(126.72891,-9.722092e-6)" xlink:href="#use12287" style="display:inline;opacity:1"/><use id="use12399" width="100%" height="100%" x="0" y="0" transform="translate(134.18353,-9.722092e-6)" xlink:href="#use12287" style="display:inline;opacity:1"/><rect id="rect12401" width="36.621" height="36.621" x="65.455" y="37.908" style="display:inline;opacity:1;fill:#3f3a3e;fill-opacity:1;stroke:#433d42;stroke-width:.92126334;stroke-miterlimit:4;stroke-dasharray:none;stroke-opacity:1"/><rect id="rect12401-6" width="15.67" height="10.229" x="128.247" y="49.43" style="display:inline;opacity:1;fill:#3f3a3e;fill-opacity:1;stroke:#433d42;stroke-width:.31849122;stroke-miterlimit:4;stroke-dasharray:none;stroke-opacity:1"/><rect id="rect12418" width="3.976" height="47.503" x="190.595" y="25.143" style="display:inline;opacity:1;fill:#c6b8b1;fill-opacity:1;stroke:#c7b9b2;stroke-width:.92126334;stroke-miterlimit:4;stroke-dasharray:none;stroke-opacity:1"/><rect id="rect12418-1" width="4.015" height="40.847" x="194.761" y="28.366" style="display:inline;opacity:1;fill:#c6b8b1;fill-opacity:1;stroke:#c7b9b2;stroke-width:.85846335;stroke-miterlimit:4;stroke-dasharray:none;stroke-opacity:1"/><rect id="rect12418-1-5" width="2.086" height="3.134" x="195.633" y="25.724" style="display:inline;opacity:1;fill:#c6b8b1;fill-opacity:1;stroke:#c7b9b2;stroke-width:.17141363;stroke-miterlimit:4;stroke-dasharray:none;stroke-opacity:1"/><rect id="rect12418-1-5-0" width="2.086" height="3.134" x="195.853" y="69.214" style="display:inline;opacity:1;fill:#c6b8b1;fill-opacity:1;stroke:#c7b9b2;stroke-width:.17141363;stroke-miterlimit:4;stroke-dasharray:none;stroke-opacity:1"/><rect id="rect12465" width="5.022" height="51.06" x="199.698" y="22.527" style="display:inline;opacity:1;fill:#37353e;fill-opacity:1;stroke:#3a3941;stroke-width:.92126334;stroke-miterlimit:4;stroke-dasharray:none;stroke-opacity:1"/><rect id="rect12465-4" width="1.163" height="2.68" x="198.06" y="69.703" style="display:inline;opacity:1;fill:#37353e;fill-opacity:1;stroke:#3a3941;stroke-width:.10157578;stroke-miterlimit:4;stroke-dasharray:none;stroke-opacity:1"/><rect id="rect12465-4-6" width="1.718" height="2.195" x="197.811" y="25.687" style="display:inline;opacity:1;fill:#37353e;fill-opacity:1;stroke:#3a3941;stroke-width:.11173417;stroke-miterlimit:4;stroke-dasharray:none;stroke-opacity:1"/><rect id="rect12497" width="32.706" height="23.182" x="27.555" y="72.991" style="display:inline;opacity:1;fill:#c1b6b1;fill-opacity:1;stroke:none;stroke-width:1.06928706;stroke-miterlimit:4;stroke-dasharray:none;stroke-opacity:1"/><rect id="rect12497-0" width="22.761" height="18.859" x="119.518" y="78.97" style="display:inline;opacity:1;fill:#c1b6b1;fill-opacity:1;stroke:none;stroke-width:.80457103;stroke-miterlimit:4;stroke-dasharray:none;stroke-opacity:1"/><rect id="rect12497-0-8" width="22.761" height="18.859" x="156.881" y="78.6" style="display:inline;opacity:1;fill:#c1b6b1;fill-opacity:1;stroke:none;stroke-width:.80457103;stroke-miterlimit:4;stroke-dasharray:none;stroke-opacity:1"/><rect id="rect12497-0-3" width="32.877" height="36.374" x="11.842" y="26.191" style="display:inline;opacity:1;fill:#c1b6b1;fill-opacity:1;stroke:none;stroke-width:1.34289443;stroke-miterlimit:4;stroke-dasharray:none;stroke-opacity:1"/><text id="text12546" x="129.987" y="71.307" transform="scale(0.91476093,1.0931818)" xml:space="preserve" style="font-style:normal;font-weight:400;font-size:3.81900191px;line-height:1.25;font-family:sans-serif;letter-spacing:0;word-spacing:0;display:inline;opacity:1;fill:#fff;fill-opacity:1;stroke:none;stroke-width:.23868765"><tspan style="fill:#fff;stroke-width:.23868765" id="tspan12544" x="129.987" y="71.307">USB</tspan></text><text id="text12546-7" x="147.643" y="81.425" transform="scale(1.0508998,0.9515655)" xml:space="preserve" style="font-style:normal;font-weight:400;font-size:3.51098776px;line-height:1.25;font-family:sans-serif;letter-spacing:0;word-spacing:0;display:inline;opacity:1;fill:#fff;fill-opacity:1;stroke:none;stroke-width:.21943672"><tspan style="fill:#fff;stroke-width:.21943672" id="tspan12544-7" x="147.643" y="81.425">PWR IN</tspan></text><text id="text12568" x="148.454" y="29.948" xml:space="preserve" style="font-style:normal;font-weight:400;font-size:3.89285278px;line-height:1.25;font-family:sans-serif;letter-spacing:0;word-spacing:0;display:inline;opacity:1;fill:#fff;fill-opacity:1;stroke:none;stroke-width:.2433033"><tspan style="fill:#fff;stroke-width:.2433033" id="tspan12566" x="148.454" y="29.948">GPIO</tspan></text><text id="text12584" x="-54.217" y="50.293" transform="rotate(-90.543428)" xml:space="preserve" style="font-style:normal;font-weight:400;font-size:4.27475452px;line-height:1.25;font-family:sans-serif;letter-spacing:0;word-spacing:0;display:inline;opacity:1;fill:#fff;fill-opacity:1;stroke:none;stroke-width:.26717213"><tspan style="fill:#fff;stroke-width:.26717213" id="tspan12582" x="-54.217" y="50.293">MICRO</tspan><tspan id="tspan12586" x="-54.217" y="55.636" style="fill:#fff;stroke-width:.26717213">SD CARD</tspan></text><rect id="rect12900" width="11.423" height="4.727" x="147.624" y="26.079" style="display:inline;opacity:1;fill:none;fill-opacity:1;stroke:#fff;stroke-width:.36432225;stroke-miterlimit:4;stroke-dasharray:none;stroke-opacity:1"/><path id="path12902" d="M 147.78402,26.00914 V 23.184097" style="display:inline;opacity:1;fill:#fff;stroke:#fff;stroke-width:.73080987;stroke-linecap:butt;stroke-linejoin:miter;stroke-miterlimit:4;stroke-dasharray:none;stroke-opacity:1"/></g></g></svg>