<svg xmlns="http://www.w3.org/2000/svg" xmlns:svg="http://www.w3.org/2000/svg" id="svg8" width="217.079" height="158.5" version="1.1" viewBox="0 0 57.436 41.936"><metadata id="metadata5"/><g id="layer1" transform="translate(-2.2489588,-3.0994046)"><rect id="rect24" width="27.741" height="41.906" x="2.249" y="3.099" style="fill:#1a1a1a;fill-opacity:1;stroke-width:.130873"/><rect id="rect26" width="1.291" height="1.466" x="13.59" y="8.415" style="fill:#b3b3b3;stroke-width:.107001"/><rect style="fill:#b3b3b3;stroke-width:.107001" id="rect26-2" width="1.291" height="1.466" x="13.601" y="11.179"/><rect id="rect26-2-9" width="1.291" height="1.466" x="13.601" y="9.852" style="fill:#241c1c;stroke-width:.107001"/><rect id="rect26-2-7-6-7" width="1.253" height="1.466" x="15.298" y="17.105" style="fill:#b3b3b3;stroke-width:.105421"/><rect id="rect26-2-5-7-8" width="1.253" height="1.466" x="15.298" y="18.563" style="fill:#d38d5f;stroke-width:.105421"/><rect style="fill:#b3b3b3;stroke-width:.105421" id="rect26-2-5-7-6-1" width="1.253" height="1.466" x="15.298" y="20.02"/><rect id="rect26-4-6-2-1" width="4.156" height="4.12" x="17.705" y="22.349" style="fill:#333;fill-opacity:1;stroke-width:.321845"/><text style="font-style:normal;font-weight:400;font-size:.837245px;line-height:1.25;font-family:sans-serif;fill:#fff;fill-opacity:1;stroke:none;stroke-width:.0209311" id="text206" x="22.748" y="-20.8" transform="rotate(90)" xml:space="preserve"><tspan id="tspan204" x="22.748" y="-20.8" style="fill:#fff;stroke-width:.0209311">MPR121</tspan></text><ellipse style="fill:#b3b3b3;fill-opacity:1;stroke:none;stroke-width:.140155" id="path208" cx="4.081" cy="15.849" rx="1.602" ry="1.477"/><ellipse id="path208-2" cx="4.081" cy="19.224" rx="1.602" ry="1.477" style="fill:#b3b3b3;fill-opacity:1;stroke:none;stroke-width:.140155"/><ellipse id="path208-6" cx="4.081" cy="22.799" rx="1.602" ry="1.477" style="fill:#b3b3b3;fill-opacity:1;stroke:none;stroke-width:.140155"/><ellipse id="path208-26" cx="4.081" cy="26.445" rx="1.602" ry="1.477" style="fill:#b3b3b3;fill-opacity:1;stroke:none;stroke-width:.140155"/><ellipse id="path208-28" cx="4.081" cy="29.843" rx="1.602" ry="1.477" style="fill:#b3b3b3;fill-opacity:1;stroke:none;stroke-width:.140155"/><ellipse id="path208-8" cx="4.081" cy="33.417" rx="1.602" ry="1.477" style="fill:#b3b3b3;fill-opacity:1;stroke:none;stroke-width:.140155"/><ellipse id="path208-83" cx="28.184" cy="4.847" rx="1.602" ry="1.477" style="fill:#b3b3b3;fill-opacity:1;stroke:none;stroke-width:.140155"/><ellipse style="fill:#b3b3b3;fill-opacity:1;stroke:none;stroke-width:.140155" id="path208-2-1" cx="28.184" cy="8.223" rx="1.602" ry="1.477"/><ellipse style="fill:#b3b3b3;fill-opacity:1;stroke:none;stroke-width:.140155" id="path208-6-0" cx="28.184" cy="11.798" rx="1.602" ry="1.477"/><ellipse style="fill:#b3b3b3;fill-opacity:1;stroke:none;stroke-width:.140155" id="path208-26-0" cx="28.184" cy="15.444" rx="1.602" ry="1.477"/><ellipse style="fill:#b3b3b3;fill-opacity:1;stroke:none;stroke-width:.140155" id="path208-8-2" cx="28.184" cy="22.416" rx="1.602" ry="1.477"/><ellipse id="path208-26-0-8" cx="28.184" cy="18.977" rx="1.602" ry="1.477" style="fill:#b3b3b3;fill-opacity:1;stroke:none;stroke-width:.140155"/><ellipse style="fill:#b3b3b3;fill-opacity:1;stroke:none;stroke-width:.140155" id="path208-83-6" cx="28.184" cy="25.801" rx="1.602" ry="1.477"/><ellipse id="path208-2-1-2" cx="28.184" cy="29.177" rx="1.602" ry="1.477" style="fill:#b3b3b3;fill-opacity:1;stroke:none;stroke-width:.140155"/><ellipse id="path208-6-0-3" cx="28.184" cy="32.752" rx="1.602" ry="1.477" style="fill:#b3b3b3;fill-opacity:1;stroke:none;stroke-width:.140155"/><ellipse id="path208-26-0-3" cx="28.184" cy="36.397" rx="1.602" ry="1.477" style="fill:#b3b3b3;fill-opacity:1;stroke:none;stroke-width:.140155"/><ellipse id="path208-8-2-8" cx="28.184" cy="43.37" rx="1.602" ry="1.477" style="fill:#b3b3b3;fill-opacity:1;stroke:none;stroke-width:.140155"/><ellipse style="fill:#b3b3b3;fill-opacity:1;stroke:none;stroke-width:.140155" id="path208-26-0-8-6" cx="28.184" cy="39.93" rx="1.602" ry="1.477"/><text style="font-style:normal;font-weight:400;font-size:2.90111px;line-height:1.25;font-family:sans-serif;fill:#fff;fill-opacity:1;stroke:none;stroke-width:.0725278" id="text323" x="5.967" y="16.756" xml:space="preserve"><tspan id="tspan321" x="5.967" y="16.756" style="fill:#fff;stroke-width:.0725278">3.3V</tspan></text><text id="text323-6" x="10.673" y="43.684" xml:space="preserve" style="font-style:normal;font-weight:400;font-size:1.91302px;line-height:1.25;font-family:sans-serif;fill:#fff;fill-opacity:1;stroke:none;stroke-width:.0478257"><tspan style="fill:#fff;stroke-width:.0478257" id="tspan321-2" x="10.673" y="43.684">MPR121</tspan></text><text id="text323-62" x="5.903" y="20.174" xml:space="preserve" style="font-style:normal;font-weight:400;font-size:2.90112px;line-height:1.25;font-family:sans-serif;fill:#fff;fill-opacity:1;stroke:none;stroke-width:.0725278"><tspan style="fill:#fff;stroke-width:.0725278" id="tspan321-6" x="5.903" y="20.174">IRQ</tspan></text><text id="text323-5" x="5.996" y="23.855" xml:space="preserve" style="font-style:normal;font-weight:400;font-size:2.90112px;line-height:1.25;font-family:sans-serif;fill:#fff;fill-opacity:1;stroke:none;stroke-width:.0725278"><tspan style="fill:#fff;stroke-width:.0725278" id="tspan321-1" x="5.996" y="23.855">SCL</tspan></text><text id="text323-7" x="5.996" y="27.324" xml:space="preserve" style="font-style:normal;font-weight:400;font-size:2.90112px;line-height:1.25;font-family:sans-serif;fill:#fff;fill-opacity:1;stroke:none;stroke-width:.0725278"><tspan style="fill:#fff;stroke-width:.0725278" id="tspan321-68" x="5.996" y="27.324">SDA</tspan></text><text id="text323-3" x="6.165" y="30.863" xml:space="preserve" style="font-style:normal;font-weight:400;font-size:2.90112px;line-height:1.25;font-family:sans-serif;fill:#fff;fill-opacity:1;stroke:none;stroke-width:.0725278"><tspan style="fill:#fff;stroke-width:.0725278" id="tspan321-3" x="6.165" y="30.863">ADD</tspan></text><text id="text323-9" x="6.025" y="34.544" xml:space="preserve" style="font-style:normal;font-weight:400;font-size:2.90112px;line-height:1.25;font-family:sans-serif;fill:#fff;fill-opacity:1;stroke:none;stroke-width:.0725278"><tspan style="fill:#fff;stroke-width:.0725278" id="tspan321-7" x="6.025" y="34.544">GND</tspan></text><text id="text323-90" x="-26.381" y="-42.338" transform="scale(-1)" xml:space="preserve" style="font-style:normal;font-weight:400;font-size:2.90112px;line-height:1.25;font-family:sans-serif;fill:#fff;fill-opacity:1;stroke:none;stroke-width:.0725278"><tspan style="fill:#fff;stroke-width:.0725278" id="tspan321-32" x="-26.381" y="-42.338">0</tspan></text><text style="font-style:normal;font-weight:400;font-size:2.90112px;line-height:1.25;font-family:sans-serif;fill:#fff;fill-opacity:1;stroke:none;stroke-width:.0725278" id="text323-90-8" x="-26.306" y="-38.975" transform="scale(-1)" xml:space="preserve"><tspan id="tspan321-32-5" x="-26.306" y="-38.975" style="fill:#fff;stroke-width:.0725278">1</tspan></text><text style="font-style:normal;font-weight:400;font-size:2.90112px;line-height:1.25;font-family:sans-serif;fill:#fff;fill-opacity:1;stroke:none;stroke-width:.0725278" id="text323-90-5" x="-26.283" y="-35.397" transform="scale(-1)" xml:space="preserve"><tspan id="tspan321-32-1" x="-26.283" y="-35.397" style="fill:#fff;stroke-width:.0725278">2</tspan></text><text style="font-style:normal;font-weight:400;font-size:2.90112px;line-height:1.25;font-family:sans-serif;fill:#fff;fill-opacity:1;stroke:none;stroke-width:.0725278" id="text323-90-0" x="-26.341" y="-31.75" transform="scale(-1)" xml:space="preserve"><tspan id="tspan321-32-8" x="-26.341" y="-31.75" style="fill:#fff;stroke-width:.0725278">3</tspan></text><text style="font-style:normal;font-weight:400;font-size:2.90112px;line-height:1.25;font-family:sans-serif;fill:#fff;fill-opacity:1;stroke:none;stroke-width:.0725278" id="text323-90-3" x="-26.411" y="-28.267" transform="scale(-1)" xml:space="preserve"><tspan id="tspan321-32-11" x="-26.411" y="-28.267" style="fill:#fff;stroke-width:.0725278">4</tspan></text><text style="font-style:normal;font-weight:400;font-size:2.90112px;line-height:1.25;font-family:sans-serif;fill:#fff;fill-opacity:1;stroke:none;stroke-width:.0725278" id="text323-90-83" x="-26.32" y="-24.825" transform="scale(-1)" xml:space="preserve"><tspan id="tspan321-32-0" x="-26.32" y="-24.825" style="fill:#fff;stroke-width:.0725278">5</tspan></text><text style="font-style:normal;font-weight:400;font-size:2.90112px;line-height:1.25;font-family:sans-serif;fill:#fff;fill-opacity:1;stroke:none;stroke-width:.0725278" id="text323-90-6" x="-26.391" y="-21.382" transform="scale(-1)" xml:space="preserve"><tspan id="tspan321-32-02" x="-26.391" y="-21.382" style="fill:#fff;stroke-width:.0725278">6</tspan></text><text style="font-style:normal;font-weight:400;font-size:2.90112px;line-height:1.25;font-family:sans-serif;fill:#fff;fill-opacity:1;stroke:none;stroke-width:.0725278" id="text323-90-00" x="-26.326" y="-17.908" transform="scale(-1)" xml:space="preserve"><tspan id="tspan321-32-4" x="-26.326" y="-17.908" style="fill:#fff;stroke-width:.0725278">7</tspan></text><text style="font-style:normal;font-weight:400;font-size:2.90112px;line-height:1.25;font-family:sans-serif;fill:#fff;fill-opacity:1;stroke:none;stroke-width:.0725278" id="text323-90-4" x="-26.375" y="-14.437" transform="scale(-1)" xml:space="preserve"><tspan id="tspan321-32-9" x="-26.375" y="-14.437" style="fill:#fff;stroke-width:.0725278">8</tspan></text><text style="font-style:normal;font-weight:400;font-size:2.90112px;line-height:1.25;font-family:sans-serif;fill:#fff;fill-opacity:1;stroke:none;stroke-width:.0725278" id="text323-90-52" x="-26.388" y="-7.351" transform="scale(-1)" xml:space="preserve"><tspan id="tspan321-32-110" x="-26.388" y="-7.351" style="fill:#fff;stroke-width:.0725278">10</tspan></text><text style="font-style:normal;font-weight:400;font-size:2.90112px;line-height:1.25;font-family:sans-serif;fill:#fff;fill-opacity:1;stroke:none;stroke-width:.0725278" id="text323-90-06" x="-26.313" y="-3.843" transform="scale(-1)" xml:space="preserve"><tspan id="tspan321-32-09" x="-26.313" y="-3.843" style="fill:#fff;stroke-width:.0725278">11</tspan></text><g id="text323-90-2" aria-label="9" transform="matrix(-0.52972073,0,0,-0.52972073,54.506496,35.571535)" style="font-style:normal;font-weight:400;font-size:5.47669px;line-height:1.25;font-family:sans-serif;fill:#fff;fill-opacity:1;stroke:none;stroke-width:.136917"><path style="fill:#fff;stroke-width:.136917" id="path503" d="m 53.717875,46.678335 v -0.492046 q 0.203237,0.09627 0.411822,0.147079 0.208584,0.05081 0.409147,0.05081 0.534833,0 0.81562,-0.358338 0.283462,-0.361012 0.323574,-1.093734 -0.155101,0.229979 -0.393102,0.35299 -0.238001,0.123012 -0.526811,0.123012 -0.599013,0 -0.949328,-0.361012 -0.347642,-0.363687 -0.347642,-0.992116 0,-0.615058 0.363687,-0.986767 0.363686,-0.371708 0.968047,-0.371708 0.692609,0 1.056296,0.532158 0.36636,0.529485 0.36636,1.540319 0,0.943981 -0.449259,1.508229 -0.446586,0.561575 -1.203375,0.561575 -0.203236,0 -0.411821,-0.04011 -0.208585,-0.04011 -0.433215,-0.120338 z m 1.075014,-1.692746 q 0.363687,0 0.574946,-0.248698 0.213933,-0.248697 0.213933,-0.681912 0,-0.43054 -0.213933,-0.679238 -0.211259,-0.251371 -0.574946,-0.251371 -0.363686,0 -0.577619,0.251371 -0.211259,0.248698 -0.211259,0.679238 0,0.433215 0.211259,0.681912 0.213933,0.248698 0.577619,0.248698 z"/></g><text style="font-style:normal;font-weight:400;font-size:2.7982px;line-height:1.25;font-family:sans-serif;fill:#fff;fill-opacity:1;stroke:none;stroke-width:.0699555" id="text501" x="-36.929" y="23.901" transform="rotate(-90)" xml:space="preserve"><tspan id="tspan499" x="-36.929" y="23.901" style="fill:#fff;stroke-width:.0699555">Electrodes / LEDs</tspan></text><ellipse style="fill:#fff;fill-opacity:1;stroke:none;stroke-width:.168445" id="path506" cx="18.402" cy="41.752" rx=".3" ry=".325"/><rect style="fill:#b3b3b3;stroke-width:.107001" id="rect26-8" width="1.291" height="1.466" x="15.15" y="8.42"/><rect id="rect26-2-6" width="1.291" height="1.466" x="15.161" y="11.184" style="fill:#b3b3b3;stroke-width:.107001"/><rect style="fill:#241c1c;stroke-width:.107001" id="rect26-2-9-7" width="1.291" height="1.466" x="15.161" y="9.857"/><rect style="fill:#b3b3b3;stroke-width:.107001" id="rect26-5" width="1.291" height="1.466" x="16.672" y="8.402"/><rect id="rect26-2-7" width="1.291" height="1.466" x="16.683" y="11.166" style="fill:#b3b3b3;stroke-width:.107001"/><rect style="fill:#241c1c;stroke-width:.107001" id="rect26-2-9-3" width="1.291" height="1.466" x="16.683" y="9.839"/><rect style="fill:#b3b3b3;stroke-width:.105421" id="rect26-2-7-6-7-8" width="1.253" height="1.466" x="14.998" y="27.121"/><rect style="fill:#d38d5f;stroke-width:.105421" id="rect26-2-5-7-8-7" width="1.253" height="1.466" x="14.998" y="28.58"/><rect id="rect26-2-5-7-6-1-5" width="1.253" height="1.466" x="14.998" y="30.036" style="fill:#b3b3b3;stroke-width:.105421"/><rect style="fill:#b3b3b3;stroke-width:.107001" id="rect26-0" width="1.291" height="1.466" x="16.601" y="33.603"/><rect id="rect26-2-97" width="1.291" height="1.466" x="16.612" y="36.367" style="fill:#b3b3b3;stroke-width:.107001"/><rect style="fill:#241c1c;stroke-width:.107001" id="rect26-2-9-2" width="1.291" height="1.466" x="16.612" y="35.04"/><ellipse id="path506-4" cx="17.182" cy="22.374" rx=".3" ry=".325" style="fill:#fff;fill-opacity:1;stroke:none;stroke-width:.168445"/><rect style="fill:#1a1a1a;fill-opacity:1;stroke-width:.130873" id="rect24-4" width="27.741" height="41.906" x="-59.684" y="3.129" transform="scale(-1,1)"/><ellipse id="path208-1" cx="-57.852" cy="15.879" rx="1.602" ry="1.477" transform="scale(-1,1)" style="fill:#b3b3b3;fill-opacity:1;stroke:none;stroke-width:.140155"/><ellipse style="fill:#b3b3b3;fill-opacity:1;stroke:none;stroke-width:.140155" id="path208-2-0" cx="-57.852" cy="19.254" rx="1.602" ry="1.477" transform="scale(-1,1)"/><ellipse style="fill:#b3b3b3;fill-opacity:1;stroke:none;stroke-width:.140155" id="path208-6-6" cx="-57.852" cy="22.829" rx="1.602" ry="1.477" transform="scale(-1,1)"/><ellipse style="fill:#b3b3b3;fill-opacity:1;stroke:none;stroke-width:.140155" id="path208-26-7" cx="-57.852" cy="26.475" rx="1.602" ry="1.477" transform="scale(-1,1)"/><ellipse style="fill:#b3b3b3;fill-opacity:1;stroke:none;stroke-width:.140155" id="path208-28-0" cx="-57.852" cy="29.873" rx="1.602" ry="1.477" transform="scale(-1,1)"/><ellipse style="fill:#b3b3b3;fill-opacity:1;stroke:none;stroke-width:.140155" id="path208-8-0" cx="-57.852" cy="33.448" rx="1.602" ry="1.477" transform="scale(-1,1)"/><ellipse style="fill:#b3b3b3;fill-opacity:1;stroke:none;stroke-width:.140155" id="path208-83-8" cx="-33.75" cy="4.877" rx="1.602" ry="1.477" transform="scale(-1,1)"/><ellipse id="path208-2-1-7" cx="-33.75" cy="8.253" rx="1.602" ry="1.477" transform="scale(-1,1)" style="fill:#b3b3b3;fill-opacity:1;stroke:none;stroke-width:.140155"/><ellipse id="path208-6-0-1" cx="-33.75" cy="11.828" rx="1.602" ry="1.477" transform="scale(-1,1)" style="fill:#b3b3b3;fill-opacity:1;stroke:none;stroke-width:.140155"/><ellipse id="path208-26-0-0" cx="-33.75" cy="15.474" rx="1.602" ry="1.477" transform="scale(-1,1)" style="fill:#b3b3b3;fill-opacity:1;stroke:none;stroke-width:.140155"/><ellipse id="path208-8-2-2" cx="-33.746" cy="22.446" rx="1.602" ry="1.477" transform="scale(-1,1)" style="fill:#b3b3b3;fill-opacity:1;stroke:none;stroke-width:.140155"/><ellipse style="fill:#b3b3b3;fill-opacity:1;stroke:none;stroke-width:.140155" id="path208-26-0-8-4" cx="-33.75" cy="19.007" rx="1.602" ry="1.477" transform="scale(-1,1)"/><ellipse id="path208-83-6-0" cx="-33.75" cy="25.831" rx="1.602" ry="1.477" transform="scale(-1,1)" style="fill:#b3b3b3;fill-opacity:1;stroke:none;stroke-width:.140155"/><ellipse style="fill:#b3b3b3;fill-opacity:1;stroke:none;stroke-width:.140155" id="path208-2-1-2-4" cx="-33.75" cy="29.207" rx="1.602" ry="1.477" transform="scale(-1,1)"/><ellipse style="fill:#b3b3b3;fill-opacity:1;stroke:none;stroke-width:.140155" id="path208-6-0-3-9" cx="-33.75" cy="32.782" rx="1.602" ry="1.477" transform="scale(-1,1)"/><ellipse style="fill:#b3b3b3;fill-opacity:1;stroke:none;stroke-width:.140155" id="path208-26-0-3-7" cx="-33.75" cy="36.427" rx="1.602" ry="1.477" transform="scale(-1,1)"/><ellipse style="fill:#b3b3b3;fill-opacity:1;stroke:none;stroke-width:.140155" id="path208-8-2-8-0" cx="-33.746" cy="43.4" rx="1.602" ry="1.477" transform="scale(-1,1)"/><ellipse id="path208-26-0-8-6-3" cx="-33.75" cy="39.96" rx="1.602" ry="1.477" transform="scale(-1,1)" style="fill:#b3b3b3;fill-opacity:1;stroke:none;stroke-width:.140155"/><rect style="fill:#fff;fill-opacity:1;stroke:none;stroke-width:.140155" id="rect854" width="1.133" height="2.053" x="52.824" y="18.198"/><rect id="rect854-9" width="1.133" height="2.053" x="54.204" y="18.198" style="fill:#fff;fill-opacity:1;stroke:none;stroke-width:.140155"/><rect id="rect854-5" width="1.133" height="2.053" x="52.877" y="21.702" style="fill:#fff;fill-opacity:1;stroke:none;stroke-width:.140155"/><rect style="fill:#fff;fill-opacity:1;stroke:none;stroke-width:.140155" id="rect854-9-9" width="1.133" height="2.053" x="54.257" y="21.702"/><rect id="rect854-6" width="1.133" height="2.053" x="52.842" y="25.206" style="fill:#fff;fill-opacity:1;stroke:none;stroke-width:.140155"/><rect style="fill:#fff;fill-opacity:1;stroke:none;stroke-width:.140155" id="rect854-9-3" width="1.133" height="2.053" x="54.222" y="25.206"/><rect id="rect854-1" width="1.133" height="2.053" x="52.877" y="28.781" style="fill:#fff;fill-opacity:1;stroke:none;stroke-width:.140155"/><rect style="fill:#fff;fill-opacity:1;stroke:none;stroke-width:.140155" id="rect854-9-2" width="1.133" height="2.053" x="54.257" y="28.781"/><text style="font-style:normal;font-weight:400;font-size:2.4178px;line-height:1.25;font-family:sans-serif;fill:#fff;fill-opacity:1;stroke:none;stroke-width:.0604454" id="text907" x="47.227" y="20.134" xml:space="preserve"><tspan id="tspan905" x="47.227" y="20.134" style="fill:#fff;stroke-width:.0604454">IRQ</tspan></text><text id="text907-8" x="47.227" y="27.196" xml:space="preserve" style="font-style:normal;font-weight:400;font-size:2.4178px;line-height:1.25;font-family:sans-serif;fill:#fff;fill-opacity:1;stroke:none;stroke-width:.0604454"><tspan style="fill:#fff;stroke-width:.0604454" id="tspan905-4" x="47.227" y="27.196">SDA</tspan></text><text id="text907-5" x="47.227" y="23.742" xml:space="preserve" style="font-style:normal;font-weight:400;font-size:2.4178px;line-height:1.25;font-family:sans-serif;fill:#fff;fill-opacity:1;stroke:none;stroke-width:.0604454"><tspan style="fill:#fff;stroke-width:.0604454" id="tspan905-7" x="47.227" y="23.742">SCL</tspan></text><text id="text907-87" x="47.227" y="30.55" xml:space="preserve" style="font-style:normal;font-weight:400;font-size:2.4178px;line-height:1.25;font-family:sans-serif;fill:#fff;fill-opacity:1;stroke:none;stroke-width:.0604454"><tspan style="fill:#fff;stroke-width:.0604454" id="tspan905-79" x="47.227" y="30.55">ADD</tspan></text><path style="fill:red;stroke:red;stroke-width:.617125;stroke-linecap:round;stroke-linejoin:miter;stroke-miterlimit:4;stroke-dasharray:none;stroke-opacity:1" id="path943" d="m 54.133512,28.426866 -1e-5,3.397877"/><path id="path1820" d="m 54.944192,36.177888 c -0.03507,0 -0.06919,0.0037 -0.102427,0.0098 l -0.486289,-1.083173 0.668057,-2.338357 -0.07934,-0.238025 -0.872758,1.943871 -0.872757,-1.943871 -0.07934,0.238025 0.668136,2.338357 -0.486283,1.083173 c -0.03332,-0.0062 -0.06744,-0.0098 -0.102512,-0.0098 -0.306735,0 -0.555391,0.248656 -0.555391,0.555391 0,0.306735 0.248656,0.555392 0.555391,0.555392 0.306735,0 0.555391,-0.248657 0.555391,-0.555392 0,-0.188277 -0.09394,-0.354419 -0.23723,-0.454865 l 0.245483,-0.455818 c 0.06673,-0.123852 0.178834,-0.213429 0.309113,-0.25429 0.130359,0.04086 0.242469,0.130358 0.309114,0.25429 l 0.245483,0.455818 c -0.14329,0.100446 -0.23723,0.266588 -0.23723,0.454865 0,0.306735 0.248656,0.555392 0.555391,0.555392 0.306734,0 0.555391,-0.248657 0.555391,-0.555392 0,-0.306735 -0.248657,-0.555391 -0.555391,-0.555391 z m -1.745515,0.872758 c -0.175263,0 -0.317366,-0.142101 -0.317366,-0.317367 0,-0.175265 0.142103,-0.317367 0.317366,-0.317367 0.175269,0 0.317366,0.142102 0.317366,0.317367 0,0.175266 -0.142097,0.317367 -0.317366,0.317367 z m 0.952099,-1.9042 v 0.158683 h -0.158683 v -0.158683 z m 0.793416,1.9042 c -0.175264,0 -0.317367,-0.142101 -0.317367,-0.317367 0,-0.175265 0.142103,-0.317367 0.317367,-0.317367 0.175268,0 0.317366,0.142102 0.317366,0.317367 0,0.175266 -0.142098,0.317367 -0.317366,0.317367 z" style="fill:red;stroke-width:.0793416"/><text style="font-style:normal;font-weight:400;font-size:3.59394px;line-height:1.25;font-family:sans-serif;fill:red;fill-opacity:1;stroke:none;stroke-width:.0898486" id="text1835" x="42.283" y="40.666" xml:space="preserve"><tspan id="tspan1833" x="42.283" y="40.666" style="fill:red;stroke-width:.0898486">Cut Here</tspan></text></g></svg>