<svg xmlns="http://www.w3.org/2000/svg" xmlns:svg="http://www.w3.org/2000/svg" id="svg8" width="254.055" height="169.819" version="1.1" viewBox="0 0 67.219 44.931"><metadata id="metadata5"/><g id="layer1" transform="translate(-4.5743671,-1.7326272)"><g id="layer1-98" transform="matrix(0.4136417,0,0,0.4136417,-1.5215937,-1.5617065)"><rect id="rect1013" width="161.353" height="107.472" x="15.313" y="8.54" style="opacity:1;fill:#01355f;fill-opacity:1;stroke:#013a67;stroke-width:1.15174592;stroke-miterlimit:4;stroke-dasharray:none;stroke-dashoffset:0;stroke-opacity:1"/><rect id="rect1017" width="11.774" height="13.209" x="88.883" y="94.52" style="opacity:1;fill:#f3ede9;fill-opacity:1;stroke:#faf6f1;stroke-width:.35135502;stroke-miterlimit:4;stroke-dasharray:none;stroke-dashoffset:0;stroke-opacity:1"/><path id="path1068" d="m 91.229639,96.612434 4.87904,0.21213 c 1.7795,0.20713 3.31311,0.76139 3.12895,2.65165 l -0.31821,4.879036 c -2.01525,1.80804 -4.61387,1.60515 -6.62912,0.74246 0,0 -3.07591,-3.28804 -3.07591,-3.71231 0,-0.42426 2.01525,-4.772966 2.01525,-4.772966 z" style="fill:#f5b800;fill-opacity:1;stroke:#000;stroke-width:.26458332px;stroke-linecap:butt;stroke-linejoin:miter;stroke-opacity:0"/><rect id="rect828-6" width="155.509" height="65.325" x="18.768" y="20.564" style="opacity:1;fill:#039966;fill-opacity:1;stroke:#000;stroke-width:1.077896;stroke-miterlimit:4;stroke-dasharray:none;stroke-dashoffset:0;stroke-opacity:0"/><rect id="rect828-1-6" width="137.035" height="50.856" x="27.697" y="26.803" style="opacity:1;fill:#272027;fill-opacity:1;stroke:#000;stroke-width:.89278352;stroke-miterlimit:4;stroke-dasharray:none;stroke-dashoffset:0;stroke-opacity:0"/><rect id="rect828-1-4-9" width="125.31" height="30.477" x="33.506" y="37.392" style="opacity:1;fill:#c594fb;fill-opacity:1;stroke:#000;stroke-width:.66090858;stroke-miterlimit:4;stroke-dasharray:none;stroke-dashoffset:0;stroke-opacity:1"/><g style="stroke:#fff" id="g1216" transform="translate(-29.274221,-51.138896)"><g style="stroke:#fff" id="use989" transform="translate(-11.667262,16.440233)"><path id="path1218" d="m 60.924759,52.428664 -0.784371,-0.589084 -0.01205,-3.470853 -0.01205,-3.470857 0.728921,-0.467456 0.728912,-0.467455 0.857365,-0.01727 0.857361,-0.01727 0.229661,0.157598 c 0.126313,0.08668 0.445194,0.305233 0.708614,0.485677 l 0.478945,0.328074 0.01699,3.496706 0.01699,3.496702 -0.690303,0.54741 -0.690299,0.547411 -0.825253,0.0149 -0.825239,0.0149 z" style="opacity:1;fill:none;fill-opacity:1;stroke:#fff;stroke-width:.47499999;stroke-miterlimit:4;stroke-dasharray:none;stroke-dashoffset:0;stroke-opacity:1"/><path id="path1220" d="m 63.268497,46.905996 a 1.312567,1.206501 0 0 1 -1.305026,1.213388 1.312567,1.206501 0 0 1 -1.320065,-1.199564 1.312567,1.206501 0 0 1 1.305015,-1.213398 1.312567,1.206501 0 0 1 1.320076,1.199553" transform="rotate(-0.49274051)" style="opacity:1;fill:#c2c7cf;fill-opacity:1;stroke:#fff;stroke-width:.47499999;stroke-miterlimit:4;stroke-dasharray:none;stroke-dashoffset:0;stroke-opacity:0"/><path id="path1222" d="m 63.255237,51.480093 a 1.312567,1.206501 0 0 1 -1.305025,1.213388 1.312567,1.206501 0 0 1 -1.320066,-1.199564 1.312567,1.206501 0 0 1 1.305015,-1.213399 1.312567,1.206501 0 0 1 1.320076,1.199554" transform="rotate(-0.49274051)" style="opacity:1;fill:#c2c7cf;fill-opacity:1;stroke:#fff;stroke-width:.47499999;stroke-miterlimit:4;stroke-dasharray:none;stroke-dashoffset:0;stroke-opacity:0"/></g><g style="stroke:#fff" id="use991" transform="translate(-6.5674936,16.440233)"><path id="path1226" d="m 60.924759,52.428664 -0.784371,-0.589084 -0.01205,-3.470853 -0.01205,-3.470857 0.728921,-0.467456 0.728912,-0.467455 0.857365,-0.01727 0.857361,-0.01727 0.229661,0.157598 c 0.126313,0.08668 0.445194,0.305233 0.708614,0.485677 l 0.478945,0.328074 0.01699,3.496706 0.01699,3.496702 -0.690303,0.54741 -0.690299,0.547411 -0.825253,0.0149 -0.825239,0.0149 z" style="opacity:1;fill:none;fill-opacity:1;stroke:#fff;stroke-width:.47499999;stroke-miterlimit:4;stroke-dasharray:none;stroke-dashoffset:0;stroke-opacity:1"/><path id="path1228" d="m 63.268497,46.905996 a 1.312567,1.206501 0 0 1 -1.305026,1.213388 1.312567,1.206501 0 0 1 -1.320065,-1.199564 1.312567,1.206501 0 0 1 1.305015,-1.213398 1.312567,1.206501 0 0 1 1.320076,1.199553" transform="rotate(-0.49274051)" style="opacity:1;fill:#c2c7cf;fill-opacity:1;stroke:#fff;stroke-width:.47499999;stroke-miterlimit:4;stroke-dasharray:none;stroke-dashoffset:0;stroke-opacity:0"/><path id="path1230" d="m 63.255237,51.480093 a 1.312567,1.206501 0 0 1 -1.305025,1.213388 1.312567,1.206501 0 0 1 -1.320066,-1.199564 1.312567,1.206501 0 0 1 1.305015,-1.213399 1.312567,1.206501 0 0 1 1.320076,1.199554" transform="rotate(-0.49274051)" style="opacity:1;fill:#c2c7cf;fill-opacity:1;stroke:#fff;stroke-width:.47499999;stroke-miterlimit:4;stroke-dasharray:none;stroke-dashoffset:0;stroke-opacity:0"/></g><g style="stroke:#fff" id="use993" transform="translate(-1.467725,16.440233)"><path id="path1234" d="m 60.924759,52.428664 -0.784371,-0.589084 -0.01205,-3.470853 -0.01205,-3.470857 0.728921,-0.467456 0.728912,-0.467455 0.857365,-0.01727 0.857361,-0.01727 0.229661,0.157598 c 0.126313,0.08668 0.445194,0.305233 0.708614,0.485677 l 0.478945,0.328074 0.01699,3.496706 0.01699,3.496702 -0.690303,0.54741 -0.690299,0.547411 -0.825253,0.0149 -0.825239,0.0149 z" style="opacity:1;fill:none;fill-opacity:1;stroke:#fff;stroke-width:.47499999;stroke-miterlimit:4;stroke-dasharray:none;stroke-dashoffset:0;stroke-opacity:1"/><path id="path1236" d="m 63.268497,46.905996 a 1.312567,1.206501 0 0 1 -1.305026,1.213388 1.312567,1.206501 0 0 1 -1.320065,-1.199564 1.312567,1.206501 0 0 1 1.305015,-1.213398 1.312567,1.206501 0 0 1 1.320076,1.199553" transform="rotate(-0.49274051)" style="opacity:1;fill:#c2c7cf;fill-opacity:1;stroke:#fff;stroke-width:.47499999;stroke-miterlimit:4;stroke-dasharray:none;stroke-dashoffset:0;stroke-opacity:0"/><path id="path1238" d="m 63.255237,51.480093 a 1.312567,1.206501 0 0 1 -1.305025,1.213388 1.312567,1.206501 0 0 1 -1.320066,-1.199564 1.312567,1.206501 0 0 1 1.305015,-1.213399 1.312567,1.206501 0 0 1 1.320076,1.199554" transform="rotate(-0.49274051)" style="opacity:1;fill:#c2c7cf;fill-opacity:1;stroke:#fff;stroke-width:.47499999;stroke-miterlimit:4;stroke-dasharray:none;stroke-dashoffset:0;stroke-opacity:0"/></g><g style="stroke:#fff" id="use995" transform="translate(3.632043,16.440233)"><path id="path1242" d="m 60.924759,52.428664 -0.784371,-0.589084 -0.01205,-3.470853 -0.01205,-3.470857 0.728921,-0.467456 0.728912,-0.467455 0.857365,-0.01727 0.857361,-0.01727 0.229661,0.157598 c 0.126313,0.08668 0.445194,0.305233 0.708614,0.485677 l 0.478945,0.328074 0.01699,3.496706 0.01699,3.496702 -0.690303,0.54741 -0.690299,0.547411 -0.825253,0.0149 -0.825239,0.0149 z" style="opacity:1;fill:none;fill-opacity:1;stroke:#fff;stroke-width:.47499999;stroke-miterlimit:4;stroke-dasharray:none;stroke-dashoffset:0;stroke-opacity:1"/><path id="path1244" d="m 63.268497,46.905996 a 1.312567,1.206501 0 0 1 -1.305026,1.213388 1.312567,1.206501 0 0 1 -1.320065,-1.199564 1.312567,1.206501 0 0 1 1.305015,-1.213398 1.312567,1.206501 0 0 1 1.320076,1.199553" transform="rotate(-0.49274051)" style="opacity:1;fill:#c2c7cf;fill-opacity:1;stroke:#fff;stroke-width:.47499999;stroke-miterlimit:4;stroke-dasharray:none;stroke-dashoffset:0;stroke-opacity:0"/><path id="path1246" d="m 63.255237,51.480093 a 1.312567,1.206501 0 0 1 -1.305025,1.213388 1.312567,1.206501 0 0 1 -1.320066,-1.199564 1.312567,1.206501 0 0 1 1.305015,-1.213399 1.312567,1.206501 0 0 1 1.320076,1.199554" transform="rotate(-0.49274051)" style="opacity:1;fill:#c2c7cf;fill-opacity:1;stroke:#fff;stroke-width:.47499999;stroke-miterlimit:4;stroke-dasharray:none;stroke-dashoffset:0;stroke-opacity:0"/></g><g style="stroke:#fff" id="use997" transform="translate(8.731812,16.440233)"><path id="path1250" d="m 60.924759,52.428664 -0.784371,-0.589084 -0.01205,-3.470853 -0.01205,-3.470857 0.728921,-0.467456 0.728912,-0.467455 0.857365,-0.01727 0.857361,-0.01727 0.229661,0.157598 c 0.126313,0.08668 0.445194,0.305233 0.708614,0.485677 l 0.478945,0.328074 0.01699,3.496706 0.01699,3.496702 -0.690303,0.54741 -0.690299,0.547411 -0.825253,0.0149 -0.825239,0.0149 z" style="opacity:1;fill:none;fill-opacity:1;stroke:#fff;stroke-width:.47499999;stroke-miterlimit:4;stroke-dasharray:none;stroke-dashoffset:0;stroke-opacity:1"/><path id="path1252" d="m 63.268497,46.905996 a 1.312567,1.206501 0 0 1 -1.305026,1.213388 1.312567,1.206501 0 0 1 -1.320065,-1.199564 1.312567,1.206501 0 0 1 1.305015,-1.213398 1.312567,1.206501 0 0 1 1.320076,1.199553" transform="rotate(-0.49274051)" style="opacity:1;fill:#c2c7cf;fill-opacity:1;stroke:#fff;stroke-width:.47499999;stroke-miterlimit:4;stroke-dasharray:none;stroke-dashoffset:0;stroke-opacity:0"/><path id="path1254" d="m 63.255237,51.480093 a 1.312567,1.206501 0 0 1 -1.305025,1.213388 1.312567,1.206501 0 0 1 -1.320066,-1.199564 1.312567,1.206501 0 0 1 1.305015,-1.213399 1.312567,1.206501 0 0 1 1.320076,1.199554" transform="rotate(-0.49274051)" style="opacity:1;fill:#c2c7cf;fill-opacity:1;stroke:#fff;stroke-width:.47499999;stroke-miterlimit:4;stroke-dasharray:none;stroke-dashoffset:0;stroke-opacity:0"/></g><g style="stroke:#fff" id="use999" transform="translate(13.83158,16.440233)"><path id="path1258" d="m 60.924759,52.428664 -0.784371,-0.589084 -0.01205,-3.470853 -0.01205,-3.470857 0.728921,-0.467456 0.728912,-0.467455 0.857365,-0.01727 0.857361,-0.01727 0.229661,0.157598 c 0.126313,0.08668 0.445194,0.305233 0.708614,0.485677 l 0.478945,0.328074 0.01699,3.496706 0.01699,3.496702 -0.690303,0.54741 -0.690299,0.547411 -0.825253,0.0149 -0.825239,0.0149 z" style="opacity:1;fill:none;fill-opacity:1;stroke:#fff;stroke-width:.47499999;stroke-miterlimit:4;stroke-dasharray:none;stroke-dashoffset:0;stroke-opacity:1"/><path id="path1260" d="m 63.268497,46.905996 a 1.312567,1.206501 0 0 1 -1.305026,1.213388 1.312567,1.206501 0 0 1 -1.320065,-1.199564 1.312567,1.206501 0 0 1 1.305015,-1.213398 1.312567,1.206501 0 0 1 1.320076,1.199553" transform="rotate(-0.49274051)" style="opacity:1;fill:#c2c7cf;fill-opacity:1;stroke:#fff;stroke-width:.47499999;stroke-miterlimit:4;stroke-dasharray:none;stroke-dashoffset:0;stroke-opacity:0"/><path id="path1262" d="m 63.255237,51.480093 a 1.312567,1.206501 0 0 1 -1.305025,1.213388 1.312567,1.206501 0 0 1 -1.320066,-1.199564 1.312567,1.206501 0 0 1 1.305015,-1.213399 1.312567,1.206501 0 0 1 1.320076,1.199554" transform="rotate(-0.49274051)" style="opacity:1;fill:#c2c7cf;fill-opacity:1;stroke:#fff;stroke-width:.47499999;stroke-miterlimit:4;stroke-dasharray:none;stroke-dashoffset:0;stroke-opacity:0"/></g><g style="stroke:#fff" id="use1001" transform="translate(18.931348,16.440233)"><path id="path1266" d="m 60.924759,52.428664 -0.784371,-0.589084 -0.01205,-3.470853 -0.01205,-3.470857 0.728921,-0.467456 0.728912,-0.467455 0.857365,-0.01727 0.857361,-0.01727 0.229661,0.157598 c 0.126313,0.08668 0.445194,0.305233 0.708614,0.485677 l 0.478945,0.328074 0.01699,3.496706 0.01699,3.496702 -0.690303,0.54741 -0.690299,0.547411 -0.825253,0.0149 -0.825239,0.0149 z" style="opacity:1;fill:none;fill-opacity:1;stroke:#fff;stroke-width:.47499999;stroke-miterlimit:4;stroke-dasharray:none;stroke-dashoffset:0;stroke-opacity:1"/><path id="path1268" d="m 63.268497,46.905996 a 1.312567,1.206501 0 0 1 -1.305026,1.213388 1.312567,1.206501 0 0 1 -1.320065,-1.199564 1.312567,1.206501 0 0 1 1.305015,-1.213398 1.312567,1.206501 0 0 1 1.320076,1.199553" transform="rotate(-0.49274051)" style="opacity:1;fill:#c2c7cf;fill-opacity:1;stroke:#fff;stroke-width:.47499999;stroke-miterlimit:4;stroke-dasharray:none;stroke-dashoffset:0;stroke-opacity:0"/><path id="path1270" d="m 63.255237,51.480093 a 1.312567,1.206501 0 0 1 -1.305025,1.213388 1.312567,1.206501 0 0 1 -1.320066,-1.199564 1.312567,1.206501 0 0 1 1.305015,-1.213399 1.312567,1.206501 0 0 1 1.320076,1.199554" transform="rotate(-0.49274051)" style="opacity:1;fill:#c2c7cf;fill-opacity:1;stroke:#fff;stroke-width:.47499999;stroke-miterlimit:4;stroke-dasharray:none;stroke-dashoffset:0;stroke-opacity:0"/></g><g style="stroke:#fff" id="use1003" transform="translate(24.031117,16.440233)"><path id="path1274" d="m 60.924759,52.428664 -0.784371,-0.589084 -0.01205,-3.470853 -0.01205,-3.470857 0.728921,-0.467456 0.728912,-0.467455 0.857365,-0.01727 0.857361,-0.01727 0.229661,0.157598 c 0.126313,0.08668 0.445194,0.305233 0.708614,0.485677 l 0.478945,0.328074 0.01699,3.496706 0.01699,3.496702 -0.690303,0.54741 -0.690299,0.547411 -0.825253,0.0149 -0.825239,0.0149 z" style="opacity:1;fill:none;fill-opacity:1;stroke:#fff;stroke-width:.47499999;stroke-miterlimit:4;stroke-dasharray:none;stroke-dashoffset:0;stroke-opacity:1"/><path id="path1276" d="m 63.268497,46.905996 a 1.312567,1.206501 0 0 1 -1.305026,1.213388 1.312567,1.206501 0 0 1 -1.320065,-1.199564 1.312567,1.206501 0 0 1 1.305015,-1.213398 1.312567,1.206501 0 0 1 1.320076,1.199553" transform="rotate(-0.49274051)" style="opacity:1;fill:#c2c7cf;fill-opacity:1;stroke:#fff;stroke-width:.47499999;stroke-miterlimit:4;stroke-dasharray:none;stroke-dashoffset:0;stroke-opacity:0"/><path id="path1278" d="m 63.255237,51.480093 a 1.312567,1.206501 0 0 1 -1.305025,1.213388 1.312567,1.206501 0 0 1 -1.320066,-1.199564 1.312567,1.206501 0 0 1 1.305015,-1.213399 1.312567,1.206501 0 0 1 1.320076,1.199554" transform="rotate(-0.49274051)" style="opacity:1;fill:#c2c7cf;fill-opacity:1;stroke:#fff;stroke-width:.47499999;stroke-miterlimit:4;stroke-dasharray:none;stroke-dashoffset:0;stroke-opacity:0"/></g><g style="stroke:#fff" id="use1005" transform="translate(29.130885,16.440233)"><path id="path1282-5" d="m 60.924759,52.428664 -0.784371,-0.589084 -0.01205,-3.470853 -0.01205,-3.470857 0.728921,-0.467456 0.728912,-0.467455 0.857365,-0.01727 0.857361,-0.01727 0.229661,0.157598 c 0.126313,0.08668 0.445194,0.305233 0.708614,0.485677 l 0.478945,0.328074 0.01699,3.496706 0.01699,3.496702 -0.690303,0.54741 -0.690299,0.547411 -0.825253,0.0149 -0.825239,0.0149 z" style="opacity:1;fill:none;fill-opacity:1;stroke:#fff;stroke-width:.47499999;stroke-miterlimit:4;stroke-dasharray:none;stroke-dashoffset:0;stroke-opacity:1"/><path id="path1284" d="m 63.268497,46.905996 a 1.312567,1.206501 0 0 1 -1.305026,1.213388 1.312567,1.206501 0 0 1 -1.320065,-1.199564 1.312567,1.206501 0 0 1 1.305015,-1.213398 1.312567,1.206501 0 0 1 1.320076,1.199553" transform="rotate(-0.49274051)" style="opacity:1;fill:#c2c7cf;fill-opacity:1;stroke:#fff;stroke-width:.47499999;stroke-miterlimit:4;stroke-dasharray:none;stroke-dashoffset:0;stroke-opacity:0"/><path id="path1286" d="m 63.255237,51.480093 a 1.312567,1.206501 0 0 1 -1.305025,1.213388 1.312567,1.206501 0 0 1 -1.320066,-1.199564 1.312567,1.206501 0 0 1 1.305015,-1.213399 1.312567,1.206501 0 0 1 1.320076,1.199554" transform="rotate(-0.49274051)" style="opacity:1;fill:#c2c7cf;fill-opacity:1;stroke:#fff;stroke-width:.47499999;stroke-miterlimit:4;stroke-dasharray:none;stroke-dashoffset:0;stroke-opacity:0"/></g><g style="stroke:#fff" id="use1007" transform="translate(34.230653,16.440233)"><path id="path1290" d="m 60.924759,52.428664 -0.784371,-0.589084 -0.01205,-3.470853 -0.01205,-3.470857 0.728921,-0.467456 0.728912,-0.467455 0.857365,-0.01727 0.857361,-0.01727 0.229661,0.157598 c 0.126313,0.08668 0.445194,0.305233 0.708614,0.485677 l 0.478945,0.328074 0.01699,3.496706 0.01699,3.496702 -0.690303,0.54741 -0.690299,0.547411 -0.825253,0.0149 -0.825239,0.0149 z" style="opacity:1;fill:none;fill-opacity:1;stroke:#fff;stroke-width:.47499999;stroke-miterlimit:4;stroke-dasharray:none;stroke-dashoffset:0;stroke-opacity:1"/><path id="path1292" d="m 63.268497,46.905996 a 1.312567,1.206501 0 0 1 -1.305026,1.213388 1.312567,1.206501 0 0 1 -1.320065,-1.199564 1.312567,1.206501 0 0 1 1.305015,-1.213398 1.312567,1.206501 0 0 1 1.320076,1.199553" transform="rotate(-0.49274051)" style="opacity:1;fill:#c2c7cf;fill-opacity:1;stroke:#fff;stroke-width:.47499999;stroke-miterlimit:4;stroke-dasharray:none;stroke-dashoffset:0;stroke-opacity:0"/><path id="path1294" d="m 63.255237,51.480093 a 1.312567,1.206501 0 0 1 -1.305025,1.213388 1.312567,1.206501 0 0 1 -1.320066,-1.199564 1.312567,1.206501 0 0 1 1.305015,-1.213399 1.312567,1.206501 0 0 1 1.320076,1.199554" transform="rotate(-0.49274051)" style="opacity:1;fill:#c2c7cf;fill-opacity:1;stroke:#fff;stroke-width:.47499999;stroke-miterlimit:4;stroke-dasharray:none;stroke-dashoffset:0;stroke-opacity:0"/></g><g style="stroke:#fff" id="use1009" transform="translate(39.330422,16.440233)"><path id="path1298" d="m 60.924759,52.428664 -0.784371,-0.589084 -0.01205,-3.470853 -0.01205,-3.470857 0.728921,-0.467456 0.728912,-0.467455 0.857365,-0.01727 0.857361,-0.01727 0.229661,0.157598 c 0.126313,0.08668 0.445194,0.305233 0.708614,0.485677 l 0.478945,0.328074 0.01699,3.496706 0.01699,3.496702 -0.690303,0.54741 -0.690299,0.547411 -0.825253,0.0149 -0.825239,0.0149 z" style="opacity:1;fill:none;fill-opacity:1;stroke:#fff;stroke-width:.47499999;stroke-miterlimit:4;stroke-dasharray:none;stroke-dashoffset:0;stroke-opacity:1"/><path id="path1300" d="m 63.268497,46.905996 a 1.312567,1.206501 0 0 1 -1.305026,1.213388 1.312567,1.206501 0 0 1 -1.320065,-1.199564 1.312567,1.206501 0 0 1 1.305015,-1.213398 1.312567,1.206501 0 0 1 1.320076,1.199553" transform="rotate(-0.49274051)" style="opacity:1;fill:#c2c7cf;fill-opacity:1;stroke:#fff;stroke-width:.47499999;stroke-miterlimit:4;stroke-dasharray:none;stroke-dashoffset:0;stroke-opacity:0"/><path id="path1302" d="m 63.255237,51.480093 a 1.312567,1.206501 0 0 1 -1.305025,1.213388 1.312567,1.206501 0 0 1 -1.320066,-1.199564 1.312567,1.206501 0 0 1 1.305015,-1.213399 1.312567,1.206501 0 0 1 1.320076,1.199554" transform="rotate(-0.49274051)" style="opacity:1;fill:#c2c7cf;fill-opacity:1;stroke:#fff;stroke-width:.47499999;stroke-miterlimit:4;stroke-dasharray:none;stroke-dashoffset:0;stroke-opacity:0"/></g><g style="stroke:#fff" id="use1011" transform="translate(44.43019,16.440233)"><path id="path1306" d="m 60.924759,52.428664 -0.784371,-0.589084 -0.01205,-3.470853 -0.01205,-3.470857 0.728921,-0.467456 0.728912,-0.467455 0.857365,-0.01727 0.857361,-0.01727 0.229661,0.157598 c 0.126313,0.08668 0.445194,0.305233 0.708614,0.485677 l 0.478945,0.328074 0.01699,3.496706 0.01699,3.496702 -0.690303,0.54741 -0.690299,0.547411 -0.825253,0.0149 -0.825239,0.0149 z" style="opacity:1;fill:none;fill-opacity:1;stroke:#fff;stroke-width:.47499999;stroke-miterlimit:4;stroke-dasharray:none;stroke-dashoffset:0;stroke-opacity:1"/><path id="path1308" d="m 63.268497,46.905996 a 1.312567,1.206501 0 0 1 -1.305026,1.213388 1.312567,1.206501 0 0 1 -1.320065,-1.199564 1.312567,1.206501 0 0 1 1.305015,-1.213398 1.312567,1.206501 0 0 1 1.320076,1.199553" transform="rotate(-0.49274051)" style="opacity:1;fill:#c2c7cf;fill-opacity:1;stroke:#fff;stroke-width:.47499999;stroke-miterlimit:4;stroke-dasharray:none;stroke-dashoffset:0;stroke-opacity:0"/><path id="path1310" d="m 63.255237,51.480093 a 1.312567,1.206501 0 0 1 -1.305025,1.213388 1.312567,1.206501 0 0 1 -1.320066,-1.199564 1.312567,1.206501 0 0 1 1.305015,-1.213399 1.312567,1.206501 0 0 1 1.320076,1.199554" transform="rotate(-0.49274051)" style="opacity:1;fill:#c2c7cf;fill-opacity:1;stroke:#fff;stroke-width:.47499999;stroke-miterlimit:4;stroke-dasharray:none;stroke-dashoffset:0;stroke-opacity:0"/></g></g><rect id="rect1015" width="66.716" height="14.001" x="18.58" y="94.329" style="opacity:1;fill:#252326;fill-opacity:1;stroke:#000;stroke-width:1.15199995;stroke-miterlimit:4;stroke-dasharray:none;stroke-dashoffset:0;stroke-opacity:0"/><rect id="rect1019-46" width="11.667" height="12.516" x="107.869" y="94.202" style="opacity:1;fill:#605554;fill-opacity:1;stroke:#000;stroke-width:.65200001;stroke-miterlimit:4;stroke-dasharray:none;stroke-dashoffset:0;stroke-opacity:0"/><path id="path1021" d="m 117.08773,100.33856 a 3.3941126,3.2880464 0 0 1 -3.37461,3.30682 3.3941126,3.2880464 0 0 1 -3.4135,-3.26914 3.3941126,3.2880464 0 0 1 3.37458,-3.306849 3.3941126,3.2880464 0 0 1 3.41353,3.269109" style="opacity:1;fill:#6a4945;fill-opacity:1;stroke:#000;stroke-width:.55199999;stroke-miterlimit:4;stroke-dasharray:none;stroke-dashoffset:0;stroke-opacity:0"/><path id="path1023" d="m 110.4889,96.028445 a 0.83526987,0.84852815 0 0 1 -0.83047,0.853372 0.83526987,0.84852815 0 0 1 -0.84004,-0.84365 0.83526987,0.84852815 0 0 1 0.83047,-0.853379 0.83526987,0.84852815 0 0 1 0.84004,0.843642" style="opacity:1;fill:#31343a;fill-opacity:1;stroke:#31343a;stroke-width:.55199999;stroke-miterlimit:4;stroke-dasharray:none;stroke-dashoffset:0;stroke-opacity:1"/><path id="path1031-5-28" d="m 173.19022,80.661605 a 3.9559731,3.7438412 0 0 1 -3.93324,3.765212 3.9559731,3.7438412 0 0 1 -3.97857,-3.722315 3.9559731,3.7438412 0 0 1 3.93321,-3.765245 3.9559731,3.7438412 0 0 1 3.9786,3.722282" style="opacity:1;fill:#0b0d0b;fill-opacity:1;stroke:#f9d190;stroke-width:1.14100003;stroke-miterlimit:4;stroke-dasharray:none;stroke-dashoffset:0;stroke-opacity:1"/><rect id="rect1062" width="5.137" height="2.25" x="92.038" y="99.836" style="opacity:1;fill:#fa9802;fill-opacity:1;stroke:none;stroke-width:.352;stroke-miterlimit:4;stroke-dasharray:none;stroke-dashoffset:0;stroke-opacity:1"/><rect id="rect1064" width="2.287" height="5.7" x="93.463" y="98.111" style="opacity:1;fill:#fa9802;fill-opacity:1;stroke:none;stroke-width:.40000001;stroke-miterlimit:4;stroke-dasharray:none;stroke-dashoffset:0;stroke-opacity:1"/><path id="path1023-6" d="m 118.8337,95.947009 a 0.83526987,0.84852815 0 0 1 -0.83047,0.853371 0.83526987,0.84852815 0 0 1 -0.84004,-0.843649 0.83526987,0.84852815 0 0 1 0.83046,-0.853379 0.83526987,0.84852815 0 0 1 0.84005,0.843642" style="opacity:1;fill:#31343a;fill-opacity:1;stroke:#31343a;stroke-width:.55199999;stroke-miterlimit:4;stroke-dasharray:none;stroke-dashoffset:0;stroke-opacity:1"/><path id="path1023-3" d="m 118.72764,105.01564 a 0.83526987,0.84852815 0 0 1 -0.83047,0.85337 0.83526987,0.84852815 0 0 1 -0.84004,-0.84364 0.83526987,0.84852815 0 0 1 0.83046,-0.85338 0.83526987,0.84852815 0 0 1 0.84005,0.84364" style="opacity:1;fill:#31343a;fill-opacity:1;stroke:#31343a;stroke-width:.55199999;stroke-miterlimit:4;stroke-dasharray:none;stroke-dashoffset:0;stroke-opacity:1"/><path id="path1023-38" d="m 110.66662,105.06868 a 0.83526987,0.84852815 0 0 1 -0.83047,0.85337 0.83526987,0.84852815 0 0 1 -0.84004,-0.84365 0.83526987,0.84852815 0 0 1 0.83046,-0.85337 0.83526987,0.84852815 0 0 1 0.84005,0.84364" style="opacity:1;fill:#31343a;fill-opacity:1;stroke:#31343a;stroke-width:.55199999;stroke-miterlimit:4;stroke-dasharray:none;stroke-dashoffset:0;stroke-opacity:1"/><rect id="rect1019-8" width="11.667" height="12.516" x="127.332" y="93.778" style="opacity:1;fill:#605554;fill-opacity:1;stroke:#000;stroke-width:.65200001;stroke-miterlimit:4;stroke-dasharray:none;stroke-dashoffset:0;stroke-opacity:0"/><path id="path1021-5" d="m 136.55086,99.914305 a 3.3941126,3.2880466 0 0 1 -3.37462,3.306815 3.3941126,3.2880466 0 0 1 -3.4135,-3.26914 3.3941126,3.2880466 0 0 1 3.37458,-3.306844 3.3941126,3.2880466 0 0 1 3.41354,3.269112" style="opacity:1;fill:#6a4945;fill-opacity:1;stroke:#000;stroke-width:.55199999;stroke-miterlimit:4;stroke-dasharray:none;stroke-dashoffset:0;stroke-opacity:0"/><path id="path1023-7" d="m 129.95203,95.604189 a 0.83526987,0.84852815 0 0 1 -0.83047,0.853372 0.83526987,0.84852815 0 0 1 -0.84004,-0.843649 0.83526987,0.84852815 0 0 1 0.83046,-0.853379 0.83526987,0.84852815 0 0 1 0.84005,0.843642" style="opacity:1;fill:#31343a;fill-opacity:1;stroke:#31343a;stroke-width:.55199999;stroke-miterlimit:4;stroke-dasharray:none;stroke-dashoffset:0;stroke-opacity:1"/><path id="path1023-6-4" d="m 138.29682,95.522753 a 0.83526987,0.84852815 0 0 1 -0.83047,0.853372 0.83526987,0.84852815 0 0 1 -0.84004,-0.843649 0.83526987,0.84852815 0 0 1 0.83046,-0.853379 0.83526987,0.84852815 0 0 1 0.84005,0.843641" style="opacity:1;fill:#31343a;fill-opacity:1;stroke:#31343a;stroke-width:.55199999;stroke-miterlimit:4;stroke-dasharray:none;stroke-dashoffset:0;stroke-opacity:1"/><path id="path1023-3-9" d="m 138.19077,104.59138 a 0.83526987,0.84852815 0 0 1 -0.83047,0.85337 0.83526987,0.84852815 0 0 1 -0.84004,-0.84365 0.83526987,0.84852815 0 0 1 0.83046,-0.85338 0.83526987,0.84852815 0 0 1 0.84005,0.84364" style="opacity:1;fill:#31343a;fill-opacity:1;stroke:#31343a;stroke-width:.55199999;stroke-miterlimit:4;stroke-dasharray:none;stroke-dashoffset:0;stroke-opacity:1"/><path id="path1023-38-2" d="m 130.12975,104.64442 a 0.83526987,0.84852815 0 0 1 -0.83047,0.85337 0.83526987,0.84852815 0 0 1 -0.84004,-0.84365 0.83526987,0.84852815 0 0 1 0.83046,-0.85338 0.83526987,0.84852815 0 0 1 0.84005,0.84364" style="opacity:1;fill:#31343a;fill-opacity:1;stroke:#31343a;stroke-width:.55199999;stroke-miterlimit:4;stroke-dasharray:none;stroke-dashoffset:0;stroke-opacity:1"/><rect id="rect1019-6" width="11.667" height="12.516" x="146.265" y="87.785" style="opacity:1;fill:#605554;fill-opacity:1;stroke:#000;stroke-width:.65200001;stroke-miterlimit:4;stroke-dasharray:none;stroke-dashoffset:0;stroke-opacity:0"/><path id="path1021-4" d="m 155.48364,93.921569 a 3.3941126,3.2880466 0 0 1 -3.37461,3.306815 3.3941126,3.2880466 0 0 1 -3.4135,-3.269141 3.3941126,3.2880466 0 0 1 3.37458,-3.306844 3.3941126,3.2880466 0 0 1 3.41353,3.269112" style="opacity:1;fill:#6a4945;fill-opacity:1;stroke:#000;stroke-width:.55199999;stroke-miterlimit:4;stroke-dasharray:none;stroke-dashoffset:0;stroke-opacity:0"/><path id="path1023-2" d="m 148.88482,89.611453 a 0.83526987,0.84852815 0 0 1 -0.83047,0.853371 0.83526987,0.84852815 0 0 1 -0.84005,-0.843649 0.83526987,0.84852815 0 0 1 0.83047,-0.853379 0.83526987,0.84852815 0 0 1 0.84005,0.843642" style="opacity:1;fill:#31343a;fill-opacity:1;stroke:#31343a;stroke-width:.55199999;stroke-miterlimit:4;stroke-dasharray:none;stroke-dashoffset:0;stroke-opacity:1"/><path id="path1023-6-3" d="m 157.2296,89.530016 a 0.83526987,0.84852815 0 0 1 -0.83047,0.853372 0.83526987,0.84852815 0 0 1 -0.84004,-0.843649 0.83526987,0.84852815 0 0 1 0.83047,-0.853379 0.83526987,0.84852815 0 0 1 0.84004,0.843642" style="opacity:1;fill:#31343a;fill-opacity:1;stroke:#31343a;stroke-width:.55199999;stroke-miterlimit:4;stroke-dasharray:none;stroke-dashoffset:0;stroke-opacity:1"/><path id="path1023-3-4" d="m 157.12356,98.59865 a 0.83526987,0.84852815 0 0 1 -0.83048,0.853372 0.83526987,0.84852815 0 0 1 -0.84004,-0.843649 0.83526987,0.84852815 0 0 1 0.83047,-0.853379 0.83526987,0.84852815 0 0 1 0.84005,0.843642" style="opacity:1;fill:#31343a;fill-opacity:1;stroke:#31343a;stroke-width:.55199999;stroke-miterlimit:4;stroke-dasharray:none;stroke-dashoffset:0;stroke-opacity:1"/><path id="path1023-38-3" d="m 149.06254,98.65169 a 0.83526987,0.84852815 0 0 1 -0.83048,0.853372 0.83526987,0.84852815 0 0 1 -0.84004,-0.84365 0.83526987,0.84852815 0 0 1 0.83047,-0.853379 0.83526987,0.84852815 0 0 1 0.84005,0.843642" style="opacity:1;fill:#31343a;fill-opacity:1;stroke:#31343a;stroke-width:.55199999;stroke-miterlimit:4;stroke-dasharray:none;stroke-dashoffset:0;stroke-opacity:1"/><rect id="rect1019-4" width="11.667" height="12.516" x="146.212" y="100.513" style="opacity:1;fill:#605554;fill-opacity:1;stroke:#000;stroke-width:.65200001;stroke-miterlimit:4;stroke-dasharray:none;stroke-dashoffset:0;stroke-opacity:0"/><path id="path1021-0" d="m 155.4306,106.64949 a 3.3941126,3.2880466 0 0 1 -3.37461,3.30681 3.3941126,3.2880466 0 0 1 -3.4135,-3.26914 3.3941126,3.2880466 0 0 1 3.37458,-3.30684 3.3941126,3.2880466 0 0 1 3.41353,3.26911" style="opacity:1;fill:#6a4945;fill-opacity:1;stroke:#000;stroke-width:.55199999;stroke-miterlimit:4;stroke-dasharray:none;stroke-dashoffset:0;stroke-opacity:0"/><path id="path1023-34" d="m 148.83178,102.33937 a 0.83526987,0.84852815 0 0 1 -0.83047,0.85337 0.83526987,0.84852815 0 0 1 -0.84005,-0.84364 0.83526987,0.84852815 0 0 1 0.83047,-0.85338 0.83526987,0.84852815 0 0 1 0.84005,0.84364" style="opacity:1;fill:#31343a;fill-opacity:1;stroke:#31343a;stroke-width:.55199999;stroke-miterlimit:4;stroke-dasharray:none;stroke-dashoffset:0;stroke-opacity:1"/><path id="path1023-6-2" d="m 157.17656,102.25793 a 0.83526987,0.84852815 0 0 1 -0.83047,0.85337 0.83526987,0.84852815 0 0 1 -0.84004,-0.84365 0.83526987,0.84852815 0 0 1 0.83047,-0.85338 0.83526987,0.84852815 0 0 1 0.84004,0.84364" style="opacity:1;fill:#31343a;fill-opacity:1;stroke:#31343a;stroke-width:.55199999;stroke-miterlimit:4;stroke-dasharray:none;stroke-dashoffset:0;stroke-opacity:1"/><path id="path1023-3-3" d="m 157.07052,111.32657 a 0.83526987,0.84852815 0 0 1 -0.83047,0.85337 0.83526987,0.84852815 0 0 1 -0.84005,-0.84365 0.83526987,0.84852815 0 0 1 0.83047,-0.85338 0.83526987,0.84852815 0 0 1 0.84005,0.84365" style="opacity:1;fill:#31343a;fill-opacity:1;stroke:#31343a;stroke-width:.55199999;stroke-miterlimit:4;stroke-dasharray:none;stroke-dashoffset:0;stroke-opacity:1"/><path id="path1023-38-9" d="m 149.0095,111.37961 a 0.83526987,0.84852815 0 0 1 -0.83047,0.85337 0.83526987,0.84852815 0 0 1 -0.84005,-0.84365 0.83526987,0.84852815 0 0 1 0.83047,-0.85338 0.83526987,0.84852815 0 0 1 0.84005,0.84365" style="opacity:1;fill:#31343a;fill-opacity:1;stroke:#31343a;stroke-width:.55199999;stroke-miterlimit:4;stroke-dasharray:none;stroke-dashoffset:0;stroke-opacity:1"/><rect id="rect1019-2" width="11.667" height="12.516" x="163.501" y="93.99" style="opacity:1;fill:#605554;fill-opacity:1;stroke:#000;stroke-width:.65200001;stroke-miterlimit:4;stroke-dasharray:none;stroke-dashoffset:0;stroke-opacity:0"/><path id="path1021-50" d="m 172.71936,100.12644 a 3.3941126,3.2880466 0 0 1 -3.37461,3.30682 3.3941126,3.2880466 0 0 1 -3.4135,-3.26914 3.3941126,3.2880466 0 0 1 3.37458,-3.306849 3.3941126,3.2880466 0 0 1 3.41353,3.269109" style="opacity:1;fill:#6a4945;fill-opacity:1;stroke:#000;stroke-width:.55199999;stroke-miterlimit:4;stroke-dasharray:none;stroke-dashoffset:0;stroke-opacity:0"/><path id="path1023-5" d="m 166.12053,95.816317 a 0.83526987,0.84852815 0 0 1 -0.83047,0.853372 0.83526987,0.84852815 0 0 1 -0.84004,-0.843649 0.83526987,0.84852815 0 0 1 0.83047,-0.85338 0.83526987,0.84852815 0 0 1 0.84004,0.843642" style="opacity:1;fill:#31343a;fill-opacity:1;stroke:#31343a;stroke-width:.55199999;stroke-miterlimit:4;stroke-dasharray:none;stroke-dashoffset:0;stroke-opacity:1"/><path id="path1023-6-9" d="m 174.46532,95.734881 a 0.83526987,0.84852815 0 0 1 -0.83047,0.853372 0.83526987,0.84852815 0 0 1 -0.84004,-0.84365 0.83526987,0.84852815 0 0 1 0.83046,-0.853379 0.83526987,0.84852815 0 0 1 0.84005,0.843642" style="opacity:1;fill:#31343a;fill-opacity:1;stroke:#31343a;stroke-width:.55199999;stroke-miterlimit:4;stroke-dasharray:none;stroke-dashoffset:0;stroke-opacity:1"/><path id="path1023-3-43" d="m 174.35927,104.80351 a 0.83526987,0.84852815 0 0 1 -0.83047,0.85338 0.83526987,0.84852815 0 0 1 -0.84004,-0.84365 0.83526987,0.84852815 0 0 1 0.83046,-0.85338 0.83526987,0.84852815 0 0 1 0.84005,0.84364" style="opacity:1;fill:#31343a;fill-opacity:1;stroke:#31343a;stroke-width:.55199999;stroke-miterlimit:4;stroke-dasharray:none;stroke-dashoffset:0;stroke-opacity:1"/><path id="path1023-38-36" d="m 166.29825,104.85655 a 0.83526987,0.84852815 0 0 1 -0.83047,0.85338 0.83526987,0.84852815 0 0 1 -0.84004,-0.84365 0.83526987,0.84852815 0 0 1 0.83046,-0.85338 0.83526987,0.84852815 0 0 1 0.84005,0.84364" style="opacity:1;fill:#31343a;fill-opacity:1;stroke:#31343a;stroke-width:.55199999;stroke-miterlimit:4;stroke-dasharray:none;stroke-dashoffset:0;stroke-opacity:1"/><path id="path1031-5-1-9" d="m 28.081692,81.139678 a 3.9559731,3.7438412 0 0 1 -3.933244,3.765212 3.9559731,3.7438412 0 0 1 -3.978572,-3.722315 3.9559731,3.7438412 0 0 1 3.93321,-3.765245 3.9559731,3.7438412 0 0 1 3.978606,3.722283" style="opacity:1;fill:#0b0d0b;fill-opacity:1;stroke:#f9d190;stroke-width:1.14100015;stroke-miterlimit:4;stroke-dasharray:none;stroke-dashoffset:0;stroke-opacity:1"/><path id="path1031-5-7-4" d="m 26.167997,24.901427 a 3.1779275,3.0075169 0 0 1 -3.159669,3.024684 3.1779275,3.0075169 0 0 1 -3.196081,-2.990224 3.1779275,3.0075169 0 0 1 3.159641,-3.02471 3.1779275,3.0075169 0 0 1 3.196109,2.990198" style="opacity:1;fill:#0b0d0b;fill-opacity:1;stroke:#f9d190;stroke-width:.91659266;stroke-miterlimit:4;stroke-dasharray:none;stroke-dashoffset:0;stroke-opacity:1"/><path id="path1031-5-2-3" d="m 173.28168,25.939669 a 3.9559731,3.7438412 0 0 1 -3.93324,3.765212 3.9559731,3.7438412 0 0 1 -3.97857,-3.722315 3.9559731,3.7438412 0 0 1 3.93321,-3.765244 3.9559731,3.7438412 0 0 1 3.9786,3.722282" style="opacity:1;fill:#0b0d0b;fill-opacity:1;stroke:#f9d190;stroke-width:1.14100015;stroke-miterlimit:4;stroke-dasharray:none;stroke-dashoffset:0;stroke-opacity:1"/><text id="text1316" x="91.921" y="12.895" xml:space="preserve" style="font-style:normal;font-weight:400;font-size:4.80422449px;line-height:1.25;font-family:sans-serif;letter-spacing:0;word-spacing:0;fill:#fff;fill-opacity:1;stroke:none;stroke-width:.30026403"><tspan style="fill:#fff;stroke-width:.30026403" id="tspan1314" x="91.921" y="12.895">Adafruit i2c 16x2 RGB LCD Pi Plate</tspan></text><text id="text1320" x="87.406" y="111.327" xml:space="preserve" style="font-style:normal;font-weight:400;font-size:3.39192629px;line-height:1.25;font-family:sans-serif;letter-spacing:0;word-spacing:0;fill:#fff;fill-opacity:1;stroke:none;stroke-width:.21199539"><tspan style="fill:#fff;stroke-width:.21199539" id="tspan1318" x="87.406" y="111.327">Contrast</tspan></text><text id="text1320-5" x="105.252" y="111.224" xml:space="preserve" style="font-style:normal;font-weight:400;font-size:4.63277721px;line-height:1.25;font-family:sans-serif;letter-spacing:0;word-spacing:0;fill:#fff;fill-opacity:1;stroke:none;stroke-width:.28954858"><tspan style="fill:#fff;stroke-width:.28954858" id="tspan1318-2" x="105.252" y="111.224">SELECT</tspan></text><text id="text1342" x="-65.536" y="-103.255" transform="rotate(179.54252)" xml:space="preserve" style="font-style:normal;font-weight:400;font-size:3.37341428px;line-height:1.25;font-family:sans-serif;letter-spacing:0;word-spacing:0;fill:#76716e;fill-opacity:1;stroke:none;stroke-width:.21083839"><tspan style="fill:#76716e;fill-opacity:1;stroke-width:.21083839" id="tspan1340" x="-65.536" y="-103.255">MPC23017-E/SP</tspan><tspan id="tspan1344" x="-65.536" y="-99.038" style="fill:#76716e;fill-opacity:1;stroke-width:.21083839">124750J</tspan></text><path id="path1031-5-1-0" d="m 33.654397,101.92316 a 3.9559731,3.7438412 0 0 1 -3.933245,3.76521 3.9559731,3.7438412 0 0 1 -3.978572,-3.72232 3.9559731,3.7438412 0 0 1 3.93321,-3.765242 3.9559731,3.7438412 0 0 1 3.978606,3.722282" style="opacity:1;fill:#131114;fill-opacity:1;stroke:#000;stroke-width:1.14100015;stroke-miterlimit:4;stroke-dasharray:none;stroke-dashoffset:0;stroke-opacity:0"/><path id="path1031-5-1-6" d="m 78.732459,101.81711 a 3.9559731,3.7438412 0 0 1 -3.933245,3.76521 3.9559731,3.7438412 0 0 1 -3.978572,-3.72232 3.9559731,3.7438412 0 0 1 3.93321,-3.76524 3.9559731,3.7438412 0 0 1 3.978606,3.72228" style="opacity:1;fill:#141316;fill-opacity:1;stroke:#000;stroke-width:1.14100015;stroke-miterlimit:4;stroke-dasharray:none;stroke-dashoffset:0;stroke-opacity:0"/></g></g></svg>