<svg xmlns="http://www.w3.org/2000/svg" xmlns:svg="http://www.w3.org/2000/svg" id="svg4067" width="18.765" height="16.327" version="1.1" viewBox="0 0 4.965 4.32"><metadata id="metadata4064"/><g id="layer1" transform="translate(-91.370975,-72.805944)"><g id="g73154" transform="translate(49.028241,61.952152)"><path id="path2732-5-4-6-0-8-1" d="m 46.083923,15.153575 -2.48248,0.02017 -1.258709,-2.139806 1.223771,-2.159976 2.482481,-0.02017 1.258709,2.139806 z" style="opacity:1;fill:#8a0;fill-opacity:1;stroke:none;stroke-width:.016148;stroke-linecap:round;stroke-linejoin:miter;stroke-miterlimit:4;stroke-dasharray:none;stroke-dashoffset:0;stroke-opacity:1"/><ellipse id="path13338-9" cx="44.041" cy="14.164" rx=".436" ry=".444" style="opacity:1;fill:#000;fill-opacity:1;fill-rule:nonzero;stroke:none;stroke-width:1.22505736;stroke-linecap:round;stroke-linejoin:miter;stroke-miterlimit:4;stroke-dasharray:none;stroke-dashoffset:0;stroke-opacity:1"/><path id="path13338-8-0" d="m 44.661619,14.100285 c 0,0.393688 -0.251087,0.763165 -0.63809,0.763165 -0.387002,0 -0.624523,-0.369488 -0.624523,-0.763165 0,-0.32855 0.319889,-0.397564 0.318362,-0.705696 l -0.008,-1.681865 c -0.0011,-0.234773 0.141275,-0.403273 0.334454,-0.399088 0.17633,0.0034 0.347529,0.155315 0.350077,0.35995 l 0.02146,1.722206 c 0.01205,0.343843 0.236808,0.449966 0.246289,0.704493 z" style="opacity:1;fill:none;fill-opacity:1;fill-rule:nonzero;stroke:#000;stroke-width:.19999999;stroke-linecap:round;stroke-linejoin:miter;stroke-miterlimit:4;stroke-dasharray:none;stroke-dashoffset:0;stroke-opacity:1"/><path id="path13360-1" d="m 44.041378,13.734247 -0.0069,-0.988504" style="fill:#000;stroke:#000;stroke-width:.26458332px;stroke-linecap:round;stroke-linejoin:miter;stroke-opacity:1"/><text id="text13364-1" x="44.474" y="12.413" transform="scale(1.000619,0.99938138)" xml:space="preserve" style="font-style:normal;font-variant:normal;font-weight:400;font-stretch:normal;font-size:1.61871397px;line-height:1.25;font-family:Arial;-inkscape-font-specification:Arial;letter-spacing:0;word-spacing:0;fill:#000;fill-opacity:1;stroke:none;stroke-width:.26458332"><tspan style="font-size:1.61871397px;fill:#000;fill-opacity:1;stroke-width:.26458332" id="tspan13362-5" x="44.474" y="12.413">°C</tspan></text></g></g></svg>