<svg xmlns="http://www.w3.org/2000/svg" xmlns:svg="http://www.w3.org/2000/svg" id="svg4067" width="19.27" height="16.767" version="1.1" viewBox="0 0 5.099 4.436"><metadata id="metadata4064"/><g id="layer1" transform="translate(-31.442118,-15.043709)"><g id="g73115" transform="translate(12.244511,3.8884433)"><path id="path2732-5-4-6-9-0" d="m 23.039492,15.570779 -2.549297,0.02071 -1.292588,-2.197399 1.25671,-2.218114 2.549297,-0.02071 1.292588,2.197399 z" style="opacity:1;fill:#8a0;fill-opacity:1;stroke:none;stroke-width:.01658263;stroke-linecap:round;stroke-linejoin:miter;stroke-miterlimit:4;stroke-dasharray:none;stroke-dashoffset:0;stroke-opacity:1"/><g style="fill:#000;fill-opacity:1" id="g5089" transform="matrix(0.41780431,0,0,0.41780431,-17.096014,-101.399)"><circle style="opacity:1;fill:#000;fill-opacity:1;fill-rule:nonzero;stroke:#000;stroke-width:.35702306;stroke-linecap:round;stroke-linejoin:miter;stroke-miterlimit:4;stroke-dasharray:none;stroke-dashoffset:0;stroke-opacity:0" id="path4932" cx="92.778" cy="274.728" r="2.816"/><path style="fill:#000;fill-opacity:1;stroke:none;stroke-width:.1487596px;stroke-linecap:butt;stroke-linejoin:miter;stroke-opacity:1" id="path4938" d="m 90.421475,272.94255 -0.70858,-1.39222 1.24881,0.89744 z"/><path style="fill:#000;fill-opacity:1;stroke:none;stroke-width:.1487596px;stroke-linecap:butt;stroke-linejoin:miter;stroke-opacity:1" id="path4938-6" d="m 95.152395,272.88247 0.708582,-1.39223 -1.24881,0.89745 z"/><path style="fill:#000;fill-opacity:1;stroke:none;stroke-width:.1487596px;stroke-linecap:butt;stroke-linejoin:miter;stroke-opacity:1" id="path4938-5" d="m 92.439677,271.84785 0.390767,-1.51251 0.341682,1.4994 z"/><path style="fill:#000;fill-opacity:1;stroke:none;stroke-width:.1487596px;stroke-linecap:butt;stroke-linejoin:miter;stroke-opacity:1" id="path4938-0" d="m 95.189408,276.58775 0.708581,1.39222 -1.248812,-0.89745 z"/><path style="fill:#000;fill-opacity:1;stroke:none;stroke-width:.1487596px;stroke-linecap:butt;stroke-linejoin:miter;stroke-opacity:1" id="path4938-6-7" d="m 90.458485,276.64783 -0.70858,1.39222 1.24881,-0.89744 z"/><path style="fill:#000;fill-opacity:1;stroke:none;stroke-width:.1487596px;stroke-linecap:butt;stroke-linejoin:miter;stroke-opacity:1" id="path4938-5-1" d="m 93.171205,277.68245 -0.390767,1.5125 -0.341682,-1.49939 z"/><path style="fill:#000;fill-opacity:1;stroke:none;stroke-width:.1487596px;stroke-linecap:butt;stroke-linejoin:miter;stroke-opacity:1" id="path4938-5-1-8" d="m 89.842236,275.13947 -1.512507,-0.39077 1.499396,-0.34168 z"/><path style="fill:#000;fill-opacity:1;stroke:none;stroke-width:.1487596px;stroke-linecap:butt;stroke-linejoin:miter;stroke-opacity:1" id="path4938-5-1-8-2" d="m 95.711735,275.08313 1.512507,-0.39077 -1.499395,-0.34169 z"/></g></g></g></svg>