<svg xmlns="http://www.w3.org/2000/svg" xmlns:svg="http://www.w3.org/2000/svg" id="svg4067" width="18.765" height="16.327" version="1.1" viewBox="0 0 4.965 4.32"><metadata id="metadata4064"/><g id="layer1" transform="translate(-87.616848,-48.723348)"><g id="g73146" transform="translate(51.113626,37.81394)"><path id="path2732-5-4-6-0-8" d="m 40.244412,15.20919 -2.482481,0.02017 -1.258709,-2.139806 1.223771,-2.159977 2.482481,-0.02017 1.258709,2.139805 z" style="opacity:1;fill:#8a0;fill-opacity:1;stroke:none;stroke-width:.016148;stroke-linecap:round;stroke-linejoin:miter;stroke-miterlimit:4;stroke-dasharray:none;stroke-dashoffset:0;stroke-opacity:1"/><ellipse id="path13338" cx="38.112" cy="13.849" rx=".38" ry=".387" style="opacity:1;fill:#000;fill-opacity:1;fill-rule:nonzero;stroke:none;stroke-width:1.22505736;stroke-linecap:round;stroke-linejoin:miter;stroke-miterlimit:4;stroke-dasharray:none;stroke-dashoffset:0;stroke-opacity:1"/><path id="path13338-8" d="m 38.65298,13.79354 c 0,0.34341 -0.21875,0.6657 -0.55591,0.6657 -0.33716,0 -0.54409,-0.3223 -0.54409,-0.6657 0,-0.28659 0.27869,-0.34679 0.27736,-0.61557 l -0.007,-1.46707 c -0.001,-0.20479 0.12308,-0.35177 0.29138,-0.34812 0.15362,0.003 0.30277,0.13548 0.30499,0.31398 l 0.0187,1.50226 c 0.0105,0.29993 0.20631,0.3925 0.21457,0.61452 z" style="opacity:1;fill:none;fill-opacity:1;fill-rule:nonzero;stroke:#000;stroke-width:.2;stroke-linecap:round;stroke-linejoin:miter;stroke-miterlimit:4;stroke-dasharray:none;stroke-dashoffset:0;stroke-opacity:1"/><path id="path13360" d="m 38.11262,13.47425 -0.006,-0.86226" style="fill:none;stroke:#000;stroke-width:.26458332px;stroke-linecap:round;stroke-linejoin:miter;stroke-opacity:1"/><text id="text13364" x="38.514" y="12.315" xml:space="preserve" style="font-style:normal;font-variant:normal;font-weight:400;font-stretch:normal;font-size:1.41111112px;line-height:1.25;font-family:Arial;-inkscape-font-specification:Arial;letter-spacing:0;word-spacing:0;fill:#000;fill-opacity:1;stroke:none;stroke-width:.26458332"><tspan style="font-size:1.41111112px;fill:#000;fill-opacity:1;stroke-width:.26458332" id="tspan13362" x="38.514" y="12.315">°C</tspan></text><path id="path13366" d="m 39.94176,14.09423 c 0,0.27215 -0.17575,0.49277 -0.39255,0.49277 -0.2168,0 -0.39255,-0.22062 -0.39255,-0.49277 3.6e-4,-0.27215 0.337,-1.21525 0.38002,-1.21525 0.0581,0 0.40508,0.9431 0.40508,1.21525 z" style="opacity:1;fill:#000;fill-opacity:1;fill-rule:nonzero;stroke:#000;stroke-width:.56499994;stroke-linecap:round;stroke-linejoin:miter;stroke-miterlimit:4;stroke-dasharray:none;stroke-dashoffset:0;stroke-opacity:1"/><text id="text13364-9" x="38.933" y="14.449" xml:space="preserve" style="font-style:normal;font-variant:normal;font-weight:400;font-stretch:normal;font-size:1.41111112px;line-height:1.25;font-family:Arial;-inkscape-font-specification:Arial;letter-spacing:0;word-spacing:0;fill:#8a0;fill-opacity:1;stroke:none;stroke-width:.26458332"><tspan style="font-size:1.41111112px;fill:#8a0;fill-opacity:1;stroke-width:.26458332" id="tspan13362-7" x="38.933" y="14.449">%</tspan></text></g></g></svg>