<svg xmlns="http://www.w3.org/2000/svg" xmlns:svg="http://www.w3.org/2000/svg" id="svg4067" width="18.765" height="16.327" version="1.1" viewBox="0 0 4.965 4.32"><metadata id="metadata4064"/><g id="layer1" transform="translate(-31.890995,-15.569323)"><g id="g73135" transform="translate(1.0604452,4.6042948)"><path id="path2732-5-4-6-0" d="m 34.571739,15.26481 -2.48248,0.02017 -1.258709,-2.139806 1.223771,-2.159977 2.482481,-0.02017 1.258709,2.139805 z" style="opacity:1;fill:#8a0;fill-opacity:1;stroke:none;stroke-width:.016148;stroke-linecap:round;stroke-linejoin:miter;stroke-miterlimit:4;stroke-dasharray:none;stroke-dashoffset:0;stroke-opacity:1"/><path id="path11863" d="m 33.105873,14.09317 0.208335,-1.5054 0.191667,1.5054 z" style="fill:none;stroke:#000;stroke-width:.16562577;stroke-linecap:round;stroke-linejoin:miter;stroke-miterlimit:4;stroke-dasharray:none;stroke-opacity:1"/><path id="path11867" d="m -21.57953,-27.302055 a 1.7674439,1.8416498 0 0 1 -1.370035,1.794491 1.7674439,1.8416498 0 0 1 -1.986139,-0.987512 1.7674439,1.8416498 0 0 1 0.476874,-2.238574" transform="rotate(152.47206)" style="opacity:1;fill:none;fill-opacity:1;fill-rule:nonzero;stroke:#000;stroke-width:.18847071;stroke-linecap:round;stroke-linejoin:miter;stroke-miterlimit:4;stroke-dasharray:none;stroke-dashoffset:0;stroke-opacity:1"/><path id="path11867-2" d="m -22.087272,-27.267235 a 1.2488447,1.3012773 0 0 1 -0.968043,1.267956 1.2488447,1.3012773 0 0 1 -1.403371,-0.697758 1.2488447,1.3012773 0 0 1 0.336951,-1.581737" transform="rotate(152.47206)" style="opacity:1;fill:none;fill-opacity:1;fill-rule:nonzero;stroke:#000;stroke-width:.50944203;stroke-linecap:round;stroke-linejoin:miter;stroke-miterlimit:4;stroke-dasharray:none;stroke-dashoffset:0;stroke-opacity:1"/><text id="text73075" x="32.247" y="15.133" xml:space="preserve" style="font-style:normal;font-variant:normal;font-weight:400;font-stretch:normal;font-size:1.0583334px;line-height:1.25;font-family:verdana;-inkscape-font-specification:verdana;letter-spacing:0;word-spacing:0;fill:#000;fill-opacity:1;stroke:none;stroke-width:.26458332"><tspan style="font-size:1.0583334px;stroke-width:.26458332" id="tspan73073" x="32.247" y="15.133">hPA</tspan></text></g></g></svg>