<svg xmlns="http://www.w3.org/2000/svg" xmlns:svg="http://www.w3.org/2000/svg" id="svg4067" width="19.27" height="16.767" version="1.1" viewBox="0 0 5.099 4.436"><metadata id="metadata4064"/><g id="layer1" transform="translate(-31.727642,-15.56093)"><g id="g73127" transform="translate(6.9458445,4.4449902)"><path id="path2732-5-4-6-9-0-6" d="m 28.623683,15.531452 -2.549298,0.02072 -1.292588,-2.1974 1.25671,-2.218113 2.549298,-0.02071 1.292587,2.197399 z" style="opacity:1;fill:#8a0;fill-opacity:1;stroke:none;stroke-width:.01658263;stroke-linecap:round;stroke-linejoin:miter;stroke-miterlimit:4;stroke-dasharray:none;stroke-dashoffset:0;stroke-opacity:1"/><rect id="rect28537" width=".482" height="1.251" x="31.231" y="-4.012" ry="0" transform="matrix(0.84278736,0.53824665,-0.22120243,0.97522791,0,0)" style="opacity:1;fill:#000;fill-opacity:1;fill-rule:nonzero;stroke:none;stroke-width:.25517908;stroke-linecap:round;stroke-linejoin:miter;stroke-miterlimit:4;stroke-dasharray:none;stroke-dashoffset:0;stroke-opacity:1"/><path id="path28539" d="m 27.454102,13.064219 0.237655,0.491718 0.441378,-0.01694" style="fill:none;fill-opacity:1;stroke:#000;stroke-width:.26458332px;stroke-linecap:butt;stroke-linejoin:miter;stroke-opacity:1"/><path id="path28541" d="m 27.410914,13.170418 -0.457993,-0.124458 -0.36936,0.25605" style="fill:none;fill-opacity:1;stroke:#000;stroke-width:.26458332px;stroke-linecap:butt;stroke-linejoin:miter;stroke-opacity:1"/><path id="path28543" d="m 27.100364,14.097294 -0.341407,0.561067 -0.565092,0.01436" style="fill:none;fill-opacity:1;stroke:#000;stroke-width:.26458332px;stroke-linecap:butt;stroke-linejoin:miter;stroke-opacity:1"/><path id="path28545" d="m 27.086811,14.044037 0.373456,1.186903" style="fill:#000;fill-opacity:1;stroke:#000;stroke-width:.26458332px;stroke-linecap:butt;stroke-linejoin:miter;stroke-opacity:1"/><ellipse id="path28547" cx="27.473" cy="12.729" rx=".306" ry=".356" style="opacity:1;fill:#000;fill-opacity:1;fill-rule:nonzero;stroke:none;stroke-width:.61237246;stroke-linecap:round;stroke-linejoin:miter;stroke-miterlimit:4;stroke-dasharray:none;stroke-dashoffset:0;stroke-opacity:1"/><path id="path28549" d="m 28.307108,12.573088 c -0.271632,-0.15221 -0.411427,-0.379214 -0.47838,-0.64347" style="fill:none;stroke:#000;stroke-width:.26458332px;stroke-linecap:butt;stroke-linejoin:miter;stroke-opacity:1"/><path id="path28551" d="M 28.87689,12.48316 C 28.41512,12.2636 28.09903,11.93097 28.02377,11.41138" style="fill:none;stroke:#000;stroke-width:.26458332px;stroke-linecap:butt;stroke-linejoin:miter;stroke-opacity:1"/><ellipse id="path28553" cx="28.619" cy="11.696" rx=".209" ry=".242" style="opacity:1;fill:#000;fill-opacity:1;fill-rule:nonzero;stroke:none;stroke-width:.5;stroke-linecap:round;stroke-linejoin:miter;stroke-miterlimit:4;stroke-dasharray:none;stroke-dashoffset:0;stroke-opacity:1"/></g></g></svg>