<svg xmlns="http://www.w3.org/2000/svg" xmlns:svg="http://www.w3.org/2000/svg" id="svg4067" width="18.765" height="16.327" version="1.1" viewBox="0 0 4.965 4.32"><metadata id="metadata4064"/><g id="layer1" transform="translate(-108.16528,-98.211456)"><g id="g73163" transform="translate(60.149882,87.468892)"><path id="path2732-5-4-6-0-8-5-8-5" d="m 51.756588,15.042347 -2.48248,0.02017 -1.25871,-2.139806 1.223772,-2.159976 2.482481,-0.02017 1.258709,2.139806 z" style="opacity:1;fill:#8a0;fill-opacity:1;stroke:none;stroke-width:.016148;stroke-linecap:round;stroke-linejoin:miter;stroke-miterlimit:4;stroke-dasharray:none;stroke-dashoffset:0;stroke-opacity:1"/><path id="path13366-3-6-5" d="m 51.45393,13.92738 c 0,0.27215 -0.17575,0.49277 -0.39255,0.49277 -0.2168,0 -0.39255,-0.22062 -0.39255,-0.49277 3.6e-4,-0.27215 0.337,-1.21525 0.38002,-1.21525 0.0581,0 0.40508,0.9431 0.40508,1.21525 z" style="opacity:1;fill:#000;fill-opacity:1;fill-rule:nonzero;stroke:#000;stroke-width:.56499994;stroke-linecap:round;stroke-linejoin:miter;stroke-miterlimit:4;stroke-dasharray:none;stroke-dashoffset:0;stroke-opacity:1"/><text id="text13364-9-2-4-3" x="50.445" y="14.282" xml:space="preserve" style="font-style:normal;font-variant:normal;font-weight:400;font-stretch:normal;font-size:1.41111112px;line-height:1.25;font-family:Arial;-inkscape-font-specification:Arial;letter-spacing:0;word-spacing:0;fill:#8a0;fill-opacity:1;stroke:none;stroke-width:.26458332"><tspan style="font-size:1.41111112px;fill:#8a0;fill-opacity:1;stroke-width:.26458332" id="tspan13362-7-2-0-9" x="50.445" y="14.282">%</tspan></text><rect id="rect5480" width=".927" height="3.575" x="49.193" y="11.05" ry="0" style="opacity:1;fill:#000;fill-opacity:1;fill-rule:nonzero;stroke:none;stroke-width:1.84360147;stroke-linecap:round;stroke-linejoin:miter;stroke-miterlimit:4;stroke-dasharray:none;stroke-dashoffset:0;stroke-opacity:1"/><rect id="rect5478" width=".556" height="3.178" x="49.366" y="11.257" rx=".169" ry=".169" style="opacity:1;fill:#8a0;fill-opacity:1;fill-rule:nonzero;stroke:none;stroke-width:1.48844409;stroke-linecap:round;stroke-linejoin:miter;stroke-miterlimit:4;stroke-dasharray:none;stroke-dashoffset:0;stroke-opacity:1"/><rect id="rect73077" width=".698" height="1.75" x="49.304" y="12.705" style="fill:#000;fill-opacity:1;stroke:none;stroke-width:.26458332;stroke-miterlimit:4;stroke-dasharray:none;stroke-opacity:1"/></g></g></svg>