<svg xmlns="http://www.w3.org/2000/svg" xmlns:svg="http://www.w3.org/2000/svg" id="svg8047" width="670.154" height="764.812" version="1.1" viewBox="0 0 177.312 202.356"><metadata id="metadata8044"/><g id="layer1" transform="translate(-261.56942,-193.77351)"><g id="layer1-922" transform="matrix(1.6928713,0,0,1.6928713,166.38143,184.57467)"><g id="g8254" transform="matrix(2.0681302,0,0,2.0681302,27.18382,-357.31682)" style="display:inline;opacity:1"><g id="g8530" transform="translate(-0.77539468,1.2923245)"><rect id="rect2015" width="4.419" height="1.512" x="32.804" y="183.807" rx=".262" style="opacity:1;fill:#333;fill-opacity:1;stroke:#000;stroke-width:.40599999;stroke-miterlimit:4;stroke-dasharray:none;stroke-dashoffset:0;stroke-opacity:0"/><rect id="rect2017" width="4.402" height="1.447" x="42.435" y="183.893" rx=".272" style="opacity:1;fill:#333;fill-opacity:1;stroke:#000;stroke-width:.41255036;stroke-miterlimit:4;stroke-dasharray:none;stroke-dashoffset:0;stroke-opacity:0"/><rect id="rect2019-4" width="4.963" height="3.389" x="37.373" y="179.277" rx=".263" style="display:inline;opacity:1;fill:#333;fill-opacity:1;stroke:#000;stroke-width:.38526455;stroke-miterlimit:4;stroke-dasharray:none;stroke-dashoffset:0;stroke-opacity:0"/><rect id="rect2091" width="38.285" height="10.825" x="20.781" y="219.744" rx=".42" style="opacity:1;fill:#edf2f8;fill-opacity:1;stroke:#000;stroke-width:.51202691;stroke-miterlimit:4;stroke-dasharray:none;stroke-dashoffset:0;stroke-opacity:1"/><rect id="rect2057" width="7.5" height="30.005" x="20.822" y="189.545" rx=".264" style="opacity:1;fill:#edf2f8;fill-opacity:1;stroke:#000;stroke-width:.34845832;stroke-miterlimit:4;stroke-dasharray:none;stroke-dashoffset:0;stroke-opacity:1"/><path id="path24003" d="m 20.280911,188.47165 c 0,-0.0551 -0.01503,-0.10022 -0.03341,-0.10022 -0.01837,0 -0.03341,-0.0376 -0.03341,-0.0835 0,-0.0752 0.01336,-0.0835 0.133635,-0.0835 0.09651,0 0.133635,-0.0139 0.133635,-0.0501 0,-0.0276 -0.02255,-0.0501 -0.05011,-0.0501 -0.02756,0 -0.05011,-0.0225 -0.05011,-0.0501 0,-0.0276 0.0213,-0.0501 0.04733,-0.0501 0.02603,0 0.05234,-0.0139 0.05846,-0.0309 0.0061,-0.017 0.05248,-0.0412 0.10301,-0.0537 0.07159,-0.0178 0.09187,-0.0109 0.09187,0.0309 0,0.0296 0.01503,0.0537 0.03341,0.0537 0.01838,0 0.03341,0.0225 0.03341,0.0501 0,0.0276 0.02255,0.0501 0.05011,0.0501 0.03847,0 0.05011,0.0427 0.05011,0.18374 0,0.14106 -0.01164,0.18375 -0.05011,0.18375 -0.03619,0 -0.05011,-0.0371 -0.05011,-0.13363 0,-0.12027 -0.0084,-0.13364 -0.08352,-0.13364 -0.06682,0 -0.08352,0.0167 -0.08352,0.0835 0,0.0705 -0.01559,0.0835 -0.100226,0.0835 -0.08909,0 -0.100226,0.0111 -0.100226,0.10022 0,0.0668 -0.0167,0.10023 -0.05011,0.10023 -0.03341,0 -0.05011,-0.0334 -0.05011,-0.10023 z m 0.400904,-0.41761 c 0,-0.0276 -0.02255,-0.0501 -0.05011,-0.0501 -0.02756,0 -0.05011,0.0225 -0.05011,0.0501 0,0.0276 0.02255,0.0501 0.05011,0.0501 0.02756,0 0.05011,-0.0225 0.05011,-0.0501 z" style="opacity:1;fill:none;fill-opacity:1;stroke:none;stroke-width:.0612405;stroke-miterlimit:4;stroke-dasharray:none;stroke-opacity:1"/><rect id="rect1123" width="1.316" height="56.077" x="15.022" y="175.627" rx=".262" style="opacity:1;fill:#edf2f8;fill-opacity:1;stroke:#000;stroke-width:.40599999;stroke-miterlimit:4;stroke-dasharray:none;stroke-dashoffset:0;stroke-opacity:1"/><rect id="rect1123-8" width="1.316" height="56.077" x="63.946" y="175.544" rx=".262" style="display:inline;opacity:1;fill:#edf2f8;fill-opacity:1;stroke:#000;stroke-width:.40599999;stroke-miterlimit:4;stroke-dasharray:none;stroke-dashoffset:0;stroke-opacity:1"/><rect id="rect1945" width="4.276" height="55.501" x="16.502" y="175.791" rx=".262" style="opacity:1;fill:#edf2f8;fill-opacity:1;stroke:#000;stroke-width:.40599999;stroke-miterlimit:4;stroke-dasharray:none;stroke-dashoffset:0;stroke-opacity:1"/><rect id="rect2057-1" width="10.482" height="29.452" x="51.571" y="190.001" rx=".369" style="display:inline;opacity:1;fill:#edf2f8;fill-opacity:1;stroke:#000;stroke-width:.4081485;stroke-miterlimit:4;stroke-dasharray:none;stroke-dashoffset:0;stroke-opacity:1"/><rect id="rect1945-6" width="4.276" height="55.501" x="59.423" y="175.914" rx=".262" style="display:inline;opacity:1;fill:#edf2f8;fill-opacity:1;stroke:#000;stroke-width:.40599999;stroke-miterlimit:4;stroke-dasharray:none;stroke-dashoffset:0;stroke-opacity:1"/><rect id="rect1962" width="38.481" height="5.18" x="20.86" y="174.311" rx=".262" style="opacity:1;fill:#edf2f8;fill-opacity:1;stroke:#000;stroke-width:.40599999;stroke-miterlimit:4;stroke-dasharray:none;stroke-dashoffset:0;stroke-opacity:1"/><rect id="rect1966" width="1.233" height="2.22" x="21.559" y="203.953" rx=".262" style="opacity:1;fill:#1a1a1a;fill-opacity:1;stroke:#000;stroke-width:.40599999;stroke-miterlimit:4;stroke-dasharray:none;stroke-dashoffset:0;stroke-opacity:1"/><rect id="rect1968" width="1.562" height="2.179" x="56.957" y="203.994" rx=".262" style="opacity:1;fill:#1a1a1a;fill-opacity:1;stroke:#000;stroke-width:.40599999;stroke-miterlimit:4;stroke-dasharray:none;stroke-dashoffset:0;stroke-opacity:1"/><rect id="rect1966-1" width="2.067" height=".466" x="21.053" y="206.346" rx=".439" style="display:inline;opacity:1;fill:#1a1a1a;fill-opacity:1;stroke:#000;stroke-width:.24092671;stroke-miterlimit:4;stroke-dasharray:none;stroke-dashoffset:0;stroke-opacity:1"/><rect id="rect1966-1-3" width="2.067" height=".466" x="56.704" y="206.227" rx=".439" style="display:inline;opacity:1;fill:#1a1a1a;fill-opacity:1;stroke:#000;stroke-width:.24092671;stroke-miterlimit:4;stroke-dasharray:none;stroke-dashoffset:0;stroke-opacity:1"/><path id="path2021" d="m 32.944352,185.38722 -0.05814,1.39539 2.790774,1.22096 1.453529,0.0581 0.05814,-2.67449 z" style="fill:#7c8c9b;fill-opacity:1;stroke:#000;stroke-width:.26458332px;stroke-linecap:butt;stroke-linejoin:miter;stroke-opacity:1"/><path id="path2021-7" d="m 46.665286,185.44277 0.05814,1.39539 -2.790774,1.22096 -1.453529,0.0581 -0.05814,-2.67449 z" style="display:inline;opacity:1;fill:#7c8c9b;fill-opacity:1;stroke:#000;stroke-width:.26458332px;stroke-linecap:butt;stroke-linejoin:miter;stroke-opacity:1"/><path id="path2038" d="m 37.363076,186.55004 c 0,0 0.174424,1.6861 0.40699,1.6861 0.232564,0 4.128019,-0.0581 4.128019,-0.0581 l 0.465129,-1.62796 z" style="fill:#7c8c9b;fill-opacity:1;stroke:#000;stroke-width:.26458332px;stroke-linecap:butt;stroke-linejoin:miter;stroke-opacity:1"/><path id="path2040" d="m 38.089842,188.35492 0.808325,1.11144 0.934625,-1.11144 z" style="fill:#f60;fill-opacity:1;stroke:none;stroke-width:.45980632px;stroke-linecap:butt;stroke-linejoin:miter;stroke-opacity:1"/><rect id="rect2093" width="5.016" height="1.151" x="29.576" y="224.385" rx=".262" style="opacity:1;fill:#666;fill-opacity:1;stroke:#000;stroke-width:.40599999;stroke-miterlimit:4;stroke-dasharray:none;stroke-dashoffset:0;stroke-opacity:1"/><path id="path2095" d="m 48.89867,225.06992 a 2.425607,2.5078306 0 0 1 -2.411671,2.52214 2.425607,2.5078306 0 0 1 -2.439464,-2.49341 2.425607,2.5078306 0 0 1 2.41165,-2.52217 2.425607,2.5078306 0 0 1 2.439485,2.49339" style="opacity:1;fill:#666;fill-opacity:1;stroke:#000;stroke-width:.40599999;stroke-miterlimit:4;stroke-dasharray:none;stroke-dashoffset:0;stroke-opacity:1"/><path id="path2095-0" d="m 47.403947,223.92946 a 0.62307751,0.64419878 0 0 1 -0.619497,0.64788 0.62307751,0.64419878 0 0 1 -0.626637,-0.6405 0.62307751,0.64419878 0 0 1 0.619492,-0.64788 0.62307751,0.64419878 0 0 1 0.626642,0.64049" style="display:inline;opacity:1;fill:#1a1a1a;fill-opacity:1;stroke:#000;stroke-width:.1042912;stroke-miterlimit:4;stroke-dasharray:none;stroke-dashoffset:0;stroke-opacity:1"/><rect id="rect2112" width="7.236" height="3.947" x="35.578" y="222.905" rx=".262" style="opacity:1;fill:#333;fill-opacity:1;stroke:#000;stroke-width:.40599999;stroke-miterlimit:4;stroke-dasharray:none;stroke-dashoffset:0;stroke-opacity:1"/><rect id="rect1964" width="37.576" height="1.151" x="21.271" y="202.596" rx=".262" style="opacity:1;fill:#008b84;fill-opacity:1;stroke:#000;stroke-width:.40599999;stroke-miterlimit:4;stroke-dasharray:none;stroke-dashoffset:0;stroke-opacity:1"/><rect id="rect1964-0" width="33.646" height=".551" x="23.093" y="205.527" rx=".234" style="display:inline;opacity:1;fill:#1a1a1a;fill-opacity:1;stroke:#000;stroke-width:.26585999;stroke-miterlimit:4;stroke-dasharray:none;stroke-dashoffset:0;stroke-opacity:1"/><rect id="rect2019" width="5.437" height="3.926" x="37.115" y="182.494" rx=".288" style="opacity:1;fill:#7c8c9b;fill-opacity:1;stroke:#000;stroke-width:.43402722;stroke-miterlimit:4;stroke-dasharray:none;stroke-dashoffset:0;stroke-opacity:0"/><text id="text2118" x="29.456" y="178.41" xml:space="preserve" style="font-style:normal;font-weight:400;font-size:4.23333311px;line-height:1.25;font-family:sans-serif;letter-spacing:0;word-spacing:0;fill:#000;fill-opacity:1;stroke:none;stroke-width:.26458332"><tspan style="stroke-width:.26458332" id="tspan2116" x="29.456" y="178.41">3D Printer</tspan></text></g></g></g></g></svg>